<svg xmlns="http://www.w3.org/2000/svg" xmlns:xlink="http://www.w3.org/1999/xlink" width="500" zoomAndPan="magnify" viewBox="0 0 375 374.999991" height="500" preserveAspectRatio="xMidYMid meet" version="1.0"><rect x="-37.5" width="450" fill="#ffffff" y="-37.499999" height="449.999989" fill-opacity="1"/><rect x="-37.5" width="450" fill="#ffffff" y="-37.499999" height="449.999989" fill-opacity="1"/><rect x="-37.5" width="450" fill="#ffffff" y="-37.499999" height="449.999989" fill-opacity="1"/><path fill="#0000e7" d="M 94.953125 149.558594 C 148.707031 0.0546875 316.730469 111.429688 233.4375 226.542969 C 234.589844 229.613281 235.164062 232.96875 235.164062 236.375 C 235.164062 252.253906 222.363281 265.058594 206.488281 265.058594 C 190.617188 265.058594 177.816406 252.253906 177.816406 236.375 C 177.816406 220.5 190.617188 207.691406 206.488281 207.691406 C 208.121094 207.691406 209.703125 207.742188 211.238281 208.027344 C 258.375 130.132812 170.476562 29.742188 106.367188 144.140625 C 102.480469 145.722656 98.644531 147.496094 94.953125 149.558594 Z M 94.953125 149.558594 " fill-opacity="1" fill-rule="nonzero"/><path fill="#0000e7" d="M 262.257812 163.710938 C 364.828125 285.011719 184.335938 374.945312 126.3125 245.25 C 123.101562 244.675781 119.984375 243.523438 117.011719 241.84375 C 103.296875 233.882812 98.597656 216.375 106.460938 202.65625 C 114.421875 188.9375 132.019531 184.238281 145.640625 192.105469 C 159.351562 200.019531 164.050781 217.574219 156.1875 231.292969 C 155.421875 232.730469 154.460938 233.976562 153.503906 235.226562 C 197.378906 315.039062 328.289062 289.089844 261.25 176.324219 C 261.828125 172.101562 262.164062 167.929688 262.257812 163.710938 Z M 262.257812 163.710938 " fill-opacity="1" fill-rule="nonzero"/><path fill="#0000e7" d="M 166.304688 301.609375 C 10.078125 329.761719 22.449219 128.503906 163.71875 143.085938 C 165.875 140.589844 168.320312 138.480469 171.339844 136.753906 C 185.054688 128.792969 202.652344 133.492188 210.519531 147.210938 C 218.476562 160.925781 213.777344 178.53125 200.066406 186.398438 C 186.351562 194.359375 168.75 189.609375 160.886719 175.941406 C 160.023438 174.5 159.402344 173.109375 158.824219 171.625 C 67.765625 169.703125 24.800781 296.140625 155.902344 294.414062 C 159.257812 297.003906 162.660156 299.402344 166.304688 301.609375 Z M 166.304688 301.609375 " fill-opacity="1" fill-rule="nonzero"/></svg>