<svg width="17" height="16" viewBox="0 0 17 16" fill="none" xmlns="http://www.w3.org/2000/svg">
<path d="M7.83333 13.3333C7.83333 13.5101 7.90357 13.6797 8.0286 13.8047C8.15362 13.9298 8.32319 14 8.5 14C8.67681 14 8.84638 13.9298 8.9714 13.8047C9.09643 13.6797 9.16667 13.5101 9.16667 13.3333V8.66667H13.8333C14.0101 8.66667 14.1797 8.59643 14.3047 8.4714C14.4298 8.34638 14.5 8.17681 14.5 8C14.5 7.82319 14.4298 7.65362 14.3047 7.5286C14.1797 7.40357 14.0101 7.33333 13.8333 7.33333H9.16667V2.66667C9.16667 2.48986 9.09643 2.32029 8.9714 2.19526C8.84638 2.07024 8.67681 2 8.5 2C8.32319 2 8.15362 2.07024 8.0286 2.19526C7.90357 2.32029 7.83333 2.48986 7.83333 2.66667V7.33333H3.16667C2.98986 7.33333 2.82029 7.40357 2.69526 7.5286C2.57024 7.65362 2.5 7.82319 2.5 8C2.5 8.17681 2.57024 8.34638 2.69526 8.4714C2.82029 8.59643 2.98986 8.66667 3.16667 8.66667H7.83333V13.3333Z" fill="#2059EE"/>
</svg>
