<svg width="262" height="60" viewBox="0 0 262 60" fill="none" xmlns="http://www.w3.org/2000/svg">
<rect width="60" height="60" rx="10" fill="#0066FF"/>
<path d="M16.9287 22.7353C25.8962 -2.20563 53.9267 16.3745 40.0313 35.5783C40.2236 36.0905 40.3194 36.6502 40.3194 37.2185C40.3194 39.8675 38.1839 42.0036 35.5355 42.0036C32.8879 42.0036 30.7524 39.8675 30.7524 37.2185C30.7524 34.5701 32.8879 32.4333 35.5355 32.4333C35.8079 32.4333 36.0719 32.4418 36.328 32.4894C44.1915 19.4946 29.5279 2.74698 18.8329 21.8315C18.1845 22.0954 17.5445 22.3913 16.9287 22.7353Z" fill="white"/>
<path d="M44.8395 25.0962C61.9507 45.3322 31.8401 60.3353 22.1604 38.6989C21.6247 38.6031 21.1047 38.4109 20.6088 38.1307C18.3208 36.8026 17.5369 33.8819 18.8487 31.5932C20.1767 29.3046 23.1125 28.5207 25.3848 29.8331C27.6721 31.1534 28.4561 34.0819 27.1443 36.3706C27.0166 36.6104 26.8563 36.8182 26.6966 37.0268C34.016 50.3415 55.8551 46.0125 44.6713 27.2004C44.7678 26.496 44.8238 25.8 44.8395 25.0962Z" fill="white"/>
<path d="M28.8319 48.1013C2.76941 52.7978 4.83321 19.223 28.4005 21.6556C28.7602 21.2392 29.1681 20.8873 29.6719 20.5993C31.9599 19.2712 34.8956 20.0551 36.208 22.3438C37.5355 24.6317 36.7515 27.5688 34.4642 28.8812C32.1762 30.2093 29.2398 29.4169 27.928 27.1367C27.784 26.8963 27.6804 26.6643 27.584 26.4166C12.3931 26.096 5.22551 47.1889 27.0965 46.9009C27.6563 47.333 28.2239 47.7331 28.8319 48.1013Z" fill="white"/>
<path d="M93.2159 26.0795H88.9659C88.8447 25.3826 88.6212 24.7652 88.2955 24.2273C87.9697 23.6818 87.5644 23.2197 87.0795 22.8409C86.5947 22.4621 86.0417 22.178 85.4205 21.9886C84.8068 21.7917 84.1439 21.6932 83.4318 21.6932C82.1667 21.6932 81.0455 22.0114 80.0682 22.6477C79.0909 23.2765 78.3258 24.2008 77.7727 25.4205C77.2197 26.6326 76.9432 28.1136 76.9432 29.8636C76.9432 31.6439 77.2197 33.1439 77.7727 34.3636C78.3333 35.5758 79.0985 36.4924 80.0682 37.1136C81.0455 37.7273 82.1629 38.0341 83.4205 38.0341C84.1174 38.0341 84.7689 37.9432 85.375 37.7614C85.9886 37.572 86.5379 37.2955 87.0227 36.9318C87.5152 36.5682 87.928 36.1212 88.2614 35.5909C88.6023 35.0606 88.8371 34.4545 88.9659 33.7727L93.2159 33.7955C93.0568 34.9015 92.7121 35.9394 92.1818 36.9091C91.6591 37.8788 90.9735 38.7348 90.125 39.4773C89.2765 40.2121 88.2841 40.7879 87.1477 41.2045C86.0114 41.6136 84.75 41.8182 83.3636 41.8182C81.3182 41.8182 79.4924 41.3447 77.8864 40.3977C76.2803 39.4508 75.0152 38.0833 74.0909 36.2955C73.1667 34.5076 72.7045 32.3636 72.7045 29.8636C72.7045 27.3561 73.1705 25.2121 74.1023 23.4318C75.0341 21.6439 76.303 20.2765 77.9091 19.3295C79.5152 18.3826 81.3333 17.9091 83.3636 17.9091C84.6591 17.9091 85.8636 18.0909 86.9773 18.4545C88.0909 18.8182 89.0833 19.3523 89.9545 20.0568C90.8258 20.7538 91.5417 21.6098 92.1023 22.625C92.6705 23.6326 93.0417 24.7841 93.2159 26.0795ZM101.918 41.8523C100.812 41.8523 99.8153 41.6553 98.929 41.2614C98.0502 40.8598 97.3532 40.2689 96.8381 39.4886C96.3305 38.7083 96.0767 37.7462 96.0767 36.6023C96.0767 35.6174 96.2585 34.803 96.6222 34.1591C96.9858 33.5152 97.482 33 98.1108 32.6136C98.7396 32.2273 99.4479 31.9356 100.236 31.7386C101.031 31.5341 101.853 31.3864 102.702 31.2955C103.724 31.1894 104.554 31.0947 105.19 31.0114C105.827 30.9205 106.289 30.7841 106.577 30.6023C106.872 30.4129 107.02 30.1212 107.02 29.7273V29.6591C107.02 28.803 106.766 28.1402 106.259 27.6705C105.751 27.2008 105.02 26.9659 104.065 26.9659C103.058 26.9659 102.259 27.1856 101.668 27.625C101.084 28.0644 100.69 28.5833 100.486 29.1818L96.6449 28.6364C96.9479 27.5758 97.4479 26.6894 98.1449 25.9773C98.8419 25.2576 99.6941 24.7197 100.702 24.3636C101.709 24 102.823 23.8182 104.043 23.8182C104.884 23.8182 105.721 23.9167 106.554 24.1136C107.387 24.3106 108.149 24.6364 108.838 25.0909C109.527 25.5379 110.08 26.1477 110.497 26.9205C110.921 27.6932 111.134 28.6591 111.134 29.8182V41.5H107.179V39.1023H107.043C106.793 39.5871 106.44 40.0417 105.986 40.4659C105.539 40.8826 104.974 41.2197 104.293 41.4773C103.618 41.7273 102.827 41.8523 101.918 41.8523ZM102.986 38.8295C103.812 38.8295 104.527 38.6667 105.134 38.3409C105.74 38.0076 106.205 37.5682 106.531 37.0227C106.865 36.4773 107.031 35.8826 107.031 35.2386V33.1818C106.902 33.2879 106.683 33.3864 106.372 33.4773C106.069 33.5682 105.728 33.6477 105.349 33.7159C104.971 33.7841 104.596 33.8447 104.224 33.8977C103.853 33.9508 103.531 33.9962 103.259 34.0341C102.645 34.1174 102.096 34.2538 101.611 34.4432C101.126 34.6326 100.743 34.8977 100.463 35.2386C100.183 35.572 100.043 36.0038 100.043 36.5341C100.043 37.2917 100.319 37.8636 100.872 38.25C101.425 38.6364 102.13 38.8295 102.986 38.8295ZM115.27 41.5V24.0455H119.259V26.9545H119.44C119.759 25.947 120.304 25.1705 121.077 24.625C121.857 24.072 122.747 23.7955 123.747 23.7955C123.974 23.7955 124.228 23.8068 124.509 23.8295C124.796 23.8447 125.035 23.8712 125.224 23.9091V27.6932C125.05 27.6326 124.774 27.5795 124.395 27.5341C124.024 27.4811 123.664 27.4545 123.315 27.4545C122.565 27.4545 121.891 27.6174 121.293 27.9432C120.702 28.2614 120.236 28.7045 119.895 29.2727C119.554 29.8409 119.384 30.4962 119.384 31.2386V41.5H115.27ZM134.966 41.8409C133.216 41.8409 131.705 41.4773 130.432 40.75C129.167 40.0152 128.193 38.9773 127.511 37.6364C126.83 36.2879 126.489 34.7008 126.489 32.875C126.489 31.0795 126.83 29.5038 127.511 28.1477C128.201 26.7841 129.163 25.7235 130.398 24.9659C131.633 24.2008 133.083 23.8182 134.75 23.8182C135.826 23.8182 136.841 23.9924 137.795 24.3409C138.758 24.6818 139.606 25.2121 140.341 25.9318C141.083 26.6515 141.667 27.5682 142.091 28.6818C142.515 29.7879 142.727 31.1061 142.727 32.6364V33.8977H128.42V31.125H138.784C138.777 30.3371 138.606 29.6364 138.273 29.0227C137.939 28.4015 137.473 27.9129 136.875 27.5568C136.284 27.2008 135.595 27.0227 134.807 27.0227C133.966 27.0227 133.227 27.2273 132.591 27.6364C131.955 28.0379 131.458 28.5682 131.102 29.2273C130.754 29.8788 130.576 30.5947 130.568 31.375V33.7955C130.568 34.8106 130.754 35.6818 131.125 36.4091C131.496 37.1288 132.015 37.6818 132.682 38.0682C133.348 38.447 134.129 38.6364 135.023 38.6364C135.621 38.6364 136.163 38.553 136.648 38.3864C137.133 38.2121 137.553 37.9583 137.909 37.625C138.265 37.2917 138.534 36.8788 138.716 36.3864L142.557 36.8182C142.314 37.8333 141.852 38.7197 141.17 39.4773C140.496 40.2273 139.633 40.8106 138.58 41.2273C137.527 41.6364 136.322 41.8409 134.966 41.8409ZM153.935 41.8409C152.185 41.8409 150.673 41.4773 149.401 40.75C148.135 40.0152 147.162 38.9773 146.48 37.6364C145.798 36.2879 145.457 34.7008 145.457 32.875C145.457 31.0795 145.798 29.5038 146.48 28.1477C147.17 26.7841 148.132 25.7235 149.366 24.9659C150.601 24.2008 152.052 23.8182 153.719 23.8182C154.795 23.8182 155.81 23.9924 156.764 24.3409C157.726 24.6818 158.575 25.2121 159.31 25.9318C160.052 26.6515 160.635 27.5682 161.06 28.6818C161.484 29.7879 161.696 31.1061 161.696 32.6364V33.8977H147.389V31.125H157.753C157.745 30.3371 157.575 29.6364 157.241 29.0227C156.908 28.4015 156.442 27.9129 155.844 27.5568C155.253 27.2008 154.563 27.0227 153.776 27.0227C152.935 27.0227 152.196 27.2273 151.56 27.6364C150.923 28.0379 150.427 28.5682 150.071 29.2273C149.723 29.8788 149.545 30.5947 149.537 31.375V33.7955C149.537 34.8106 149.723 35.6818 150.094 36.4091C150.465 37.1288 150.984 37.6818 151.651 38.0682C152.317 38.447 153.098 38.6364 153.991 38.6364C154.59 38.6364 155.132 38.553 155.616 38.3864C156.101 38.2121 156.522 37.9583 156.878 37.625C157.234 37.2917 157.503 36.8788 157.685 36.3864L161.526 36.8182C161.283 37.8333 160.821 38.7197 160.139 39.4773C159.465 40.2273 158.601 40.8106 157.548 41.2273C156.495 41.6364 155.291 41.8409 153.935 41.8409ZM165.176 41.5V24.0455H169.165V26.9545H169.347C169.665 25.947 170.21 25.1705 170.983 24.625C171.763 24.072 172.653 23.7955 173.653 23.7955C173.881 23.7955 174.134 23.8068 174.415 23.8295C174.703 23.8447 174.941 23.8712 175.131 23.9091V27.6932C174.956 27.6326 174.68 27.5795 174.301 27.5341C173.93 27.4811 173.57 27.4545 173.222 27.4545C172.472 27.4545 171.797 27.6174 171.199 27.9432C170.608 28.2614 170.142 28.7045 169.801 29.2727C169.46 29.8409 169.29 30.4962 169.29 31.2386V41.5H165.176ZM185.983 18.2273H191.142L198.051 35.0909H198.324L205.233 18.2273H210.392V41.5H206.347V25.5114H206.131L199.699 41.4318H196.676L190.244 25.4773H190.028V41.5H185.983V18.2273ZM219.824 41.8523C218.718 41.8523 217.722 41.6553 216.835 41.2614C215.956 40.8598 215.259 40.2689 214.744 39.4886C214.237 38.7083 213.983 37.7462 213.983 36.6023C213.983 35.6174 214.165 34.803 214.528 34.1591C214.892 33.5152 215.388 33 216.017 32.6136C216.646 32.2273 217.354 31.9356 218.142 31.7386C218.938 31.5341 219.759 31.3864 220.608 31.2955C221.631 31.1894 222.46 31.0947 223.097 31.0114C223.733 30.9205 224.195 30.7841 224.483 30.6023C224.778 30.4129 224.926 30.1212 224.926 29.7273V29.6591C224.926 28.803 224.672 28.1402 224.165 27.6705C223.657 27.2008 222.926 26.9659 221.972 26.9659C220.964 26.9659 220.165 27.1856 219.574 27.625C218.991 28.0644 218.597 28.5833 218.392 29.1818L214.551 28.6364C214.854 27.5758 215.354 26.6894 216.051 25.9773C216.748 25.2576 217.6 24.7197 218.608 24.3636C219.616 24 220.729 23.8182 221.949 23.8182C222.79 23.8182 223.627 23.9167 224.46 24.1136C225.294 24.3106 226.055 24.6364 226.744 25.0909C227.434 25.5379 227.987 26.1477 228.403 26.9205C228.828 27.6932 229.04 28.6591 229.04 29.8182V41.5H225.085V39.1023H224.949C224.699 39.5871 224.347 40.0417 223.892 40.4659C223.445 40.8826 222.881 41.2197 222.199 41.4773C221.525 41.7273 220.733 41.8523 219.824 41.8523ZM220.892 38.8295C221.718 38.8295 222.434 38.6667 223.04 38.3409C223.646 38.0076 224.112 37.5682 224.438 37.0227C224.771 36.4773 224.938 35.8826 224.938 35.2386V33.1818C224.809 33.2879 224.589 33.3864 224.278 33.4773C223.975 33.5682 223.634 33.6477 223.256 33.7159C222.877 33.7841 222.502 33.8447 222.131 33.8977C221.759 33.9508 221.438 33.9962 221.165 34.0341C220.551 34.1174 220.002 34.2538 219.517 34.4432C219.032 34.6326 218.65 34.8977 218.369 35.2386C218.089 35.572 217.949 36.0038 217.949 36.5341C217.949 37.2917 218.225 37.8636 218.778 38.25C219.331 38.6364 220.036 38.8295 220.892 38.8295ZM241.892 24.0455V27.2273H231.858V24.0455H241.892ZM234.335 19.8636H238.449V36.25C238.449 36.803 238.532 37.2273 238.699 37.5227C238.873 37.8106 239.1 38.0076 239.381 38.1136C239.661 38.2197 239.972 38.2727 240.312 38.2727C240.57 38.2727 240.805 38.2538 241.017 38.2159C241.237 38.178 241.403 38.1439 241.517 38.1136L242.21 41.3295C241.991 41.4053 241.676 41.4886 241.267 41.5795C240.866 41.6705 240.373 41.7235 239.79 41.7386C238.759 41.7689 237.831 41.6136 237.006 41.2727C236.18 40.9242 235.525 40.3864 235.04 39.6591C234.563 38.9318 234.328 38.0227 234.335 36.9318V19.8636ZM252.872 41.8409C251.122 41.8409 249.611 41.4773 248.338 40.75C247.073 40.0152 246.099 38.9773 245.418 37.6364C244.736 36.2879 244.395 34.7008 244.395 32.875C244.395 31.0795 244.736 29.5038 245.418 28.1477C246.107 26.7841 247.069 25.7235 248.304 24.9659C249.539 24.2008 250.99 23.8182 252.656 23.8182C253.732 23.8182 254.747 23.9924 255.702 24.3409C256.664 24.6818 257.512 25.2121 258.247 25.9318C258.99 26.6515 259.573 27.5682 259.997 28.6818C260.421 29.7879 260.634 31.1061 260.634 32.6364V33.8977H246.327V31.125H256.69C256.683 30.3371 256.512 29.6364 256.179 29.0227C255.846 28.4015 255.38 27.9129 254.781 27.5568C254.19 27.2008 253.501 27.0227 252.713 27.0227C251.872 27.0227 251.134 27.2273 250.497 27.6364C249.861 28.0379 249.365 28.5682 249.009 29.2273C248.66 29.8788 248.482 30.5947 248.474 31.375V33.7955C248.474 34.8106 248.66 35.6818 249.031 36.4091C249.402 37.1288 249.921 37.6818 250.588 38.0682C251.255 38.447 252.035 38.6364 252.929 38.6364C253.527 38.6364 254.069 38.553 254.554 38.3864C255.039 38.2121 255.459 37.9583 255.815 37.625C256.171 37.2917 256.44 36.8788 256.622 36.3864L260.463 36.8182C260.221 37.8333 259.759 38.7197 259.077 39.4773C258.402 40.2273 257.539 40.8106 256.486 41.2273C255.433 41.6364 254.228 41.8409 252.872 41.8409Z" fill="black"/>
</svg>
