<svg width="18" height="18" viewBox="0 0 18 18" fill="none" xmlns="http://www.w3.org/2000/svg">
<path d="M2.60858 1.80309C2.51111 1.77478 2.40779 1.77336 2.30958 1.799C2.21137 1.82464 2.12192 1.87637 2.05073 1.94872C1.97954 2.02107 1.92924 2.11133 1.90519 2.20994C1.88113 2.30856 1.8842 2.41184 1.91408 2.50884L3.73808 8.43759H10.1251C10.2743 8.43759 10.4173 8.49686 10.5228 8.60235C10.6283 8.70784 10.6876 8.85091 10.6876 9.00009C10.6876 9.14928 10.6283 9.29235 10.5228 9.39784C10.4173 9.50333 10.2743 9.56259 10.1251 9.56259H3.73808L1.91408 15.4913C1.88438 15.5883 1.88144 15.6915 1.90558 15.79C1.92971 15.8885 1.98003 15.9786 2.05119 16.0509C2.12236 16.1231 2.21173 16.1748 2.30985 16.2004C2.40797 16.226 2.51119 16.2246 2.60858 16.1963C7.56981 14.7536 12.2483 12.4743 16.4423 9.45684C16.5148 9.40475 16.5738 9.33616 16.6146 9.25674C16.6553 9.17732 16.6765 9.08935 16.6765 9.00009C16.6765 8.91084 16.6553 8.82287 16.6146 8.74345C16.5738 8.66403 16.5148 8.59544 16.4423 8.54334C12.2483 5.52557 7.56987 3.24606 2.60858 1.80309Z" fill="white"/>
</svg>
