<svg width="60" height="56" viewBox="0 0 60 56" fill="none" xmlns="http://www.w3.org/2000/svg">
<g filter="url(#filter0_dd_219_288)">
<rect x="16" y="8" width="36" height="36" rx="8" fill="#2059EE"/>
<path d="M27.6086 18.8031C27.5111 18.7748 27.4078 18.7734 27.3096 18.799C27.2114 18.8246 27.1219 18.8764 27.0507 18.9487C26.9795 19.0211 26.9292 19.1113 26.9052 19.2099C26.8811 19.3086 26.8842 19.4118 26.9141 19.5088L28.7381 25.4376H35.1251C35.2743 25.4376 35.4173 25.4969 35.5228 25.6023C35.6283 25.7078 35.6876 25.8509 35.6876 26.0001C35.6876 26.1493 35.6283 26.2924 35.5228 26.3978C35.4173 26.5033 35.2743 26.5626 35.1251 26.5626H28.7381L26.9141 32.4913C26.8844 32.5883 26.8814 32.6915 26.9056 32.79C26.9297 32.8885 26.98 32.9786 27.0512 33.0509C27.1224 33.1231 27.2117 33.1748 27.3099 33.2004C27.408 33.226 27.5112 33.2246 27.6086 33.1963C32.5698 31.7536 37.2483 29.4743 41.4423 26.4568C41.5148 26.4048 41.5738 26.3362 41.6146 26.2567C41.6553 26.1773 41.6765 26.0893 41.6765 26.0001C41.6765 25.9108 41.6553 25.8229 41.6146 25.7434C41.5738 25.664 41.5148 25.5954 41.4423 25.5433C37.2483 22.5256 32.5699 20.2461 27.6086 18.8031Z" fill="white"/>
</g>
<defs>
<filter id="filter0_dd_219_288" x="0" y="0" width="68" height="68" filterUnits="userSpaceOnUse" color-interpolation-filters="sRGB">
<feFlood flood-opacity="0" result="BackgroundImageFix"/>
<feColorMatrix in="SourceAlpha" type="matrix" values="0 0 0 0 0 0 0 0 0 0 0 0 0 0 0 0 0 0 127 0" result="hardAlpha"/>
<feOffset/>
<feGaussianBlur stdDeviation="1"/>
<feComposite in2="hardAlpha" operator="out"/>
<feColorMatrix type="matrix" values="0 0 0 0 0 0 0 0 0 0 0 0 0 0 0 0 0 0 0.12 0"/>
<feBlend mode="normal" in2="BackgroundImageFix" result="effect1_dropShadow_219_288"/>
<feColorMatrix in="SourceAlpha" type="matrix" values="0 0 0 0 0 0 0 0 0 0 0 0 0 0 0 0 0 0 127 0" result="hardAlpha"/>
<feOffset dy="8"/>
<feGaussianBlur stdDeviation="8"/>
<feComposite in2="hardAlpha" operator="out"/>
<feColorMatrix type="matrix" values="0 0 0 0 0 0 0 0 0 0 0 0 0 0 0 0 0 0 0.14 0"/>
<feBlend mode="normal" in2="effect1_dropShadow_219_288" result="effect2_dropShadow_219_288"/>
<feBlend mode="normal" in="SourceGraphic" in2="effect2_dropShadow_219_288" result="shape"/>
</filter>
</defs>
</svg>
