<svg width="99" height="24" viewBox="0 0 99 24" fill="none" xmlns="http://www.w3.org/2000/svg">
<path d="M3 16.5V18.75C3 19.3467 3.23705 19.919 3.65901 20.341C4.08097 20.7629 4.65326 21 5.25 21H18.75C19.3467 21 19.919 20.7629 20.341 20.341C20.7629 19.919 21 19.3467 21 18.75V16.5M16.5 12L12 16.5M12 16.5L7.5 12M12 16.5V3" stroke="#4B5563" stroke-width="1.5" stroke-linecap="round" stroke-linejoin="round"/>
<path d="M3 16.5V18.75C3 19.3467 3.23705 19.919 3.65901 20.341C4.08097 20.7629 4.65326 21 5.25 21H18.75C19.3467 21 19.919 20.7629 20.341 20.341C20.7629 19.919 21 19.3467 21 18.75V16.5M16.5 12L12 16.5M12 16.5L7.5 12M12 16.5V3" stroke="black" stroke-opacity="0.2" stroke-width="1.5" stroke-linecap="round" stroke-linejoin="round"/>
<path d="M3 16.5V18.75C3 19.3467 3.23705 19.919 3.65901 20.341C4.08097 20.7629 4.65326 21 5.25 21H18.75C19.3467 21 19.919 20.7629 20.341 20.341C20.7629 19.919 21 19.3467 21 18.75V16.5M16.5 12L12 16.5M12 16.5L7.5 12M12 16.5V3" stroke="black" stroke-opacity="0.2" stroke-width="1.5" stroke-linecap="round" stroke-linejoin="round"/>
<path d="M3 16.5V18.75C3 19.3467 3.23705 19.919 3.65901 20.341C4.08097 20.7629 4.65326 21 5.25 21H18.75C19.3467 21 19.919 20.7629 20.341 20.341C20.7629 19.919 21 19.3467 21 18.75V16.5M16.5 12L12 16.5M12 16.5L7.5 12M12 16.5V3" stroke="black" stroke-opacity="0.2" stroke-width="1.5" stroke-linecap="round" stroke-linejoin="round"/>
<path d="M36.4148 17H33.1186V6.81818H36.5192C37.5168 6.81818 38.3736 7.02202 39.0895 7.42969C39.8054 7.83404 40.3539 8.41572 40.7351 9.17472C41.1196 9.9304 41.3118 10.8369 41.3118 11.8942C41.3118 12.9548 41.1179 13.8662 40.7301 14.6286C40.3456 15.3909 39.7888 15.9775 39.0597 16.3885C38.3305 16.7962 37.4489 17 36.4148 17ZM34.6548 15.6577H36.3303C37.1058 15.6577 37.7505 15.5118 38.2642 15.2202C38.7779 14.9252 39.1624 14.4993 39.4176 13.9425C39.6728 13.3823 39.8004 12.6996 39.8004 11.8942C39.8004 11.0954 39.6728 10.4176 39.4176 9.8608C39.1657 9.30398 38.7895 8.88139 38.2891 8.59304C37.7886 8.30469 37.1671 8.16051 36.4247 8.16051H34.6548V15.6577ZM46.3194 17.1541C45.6035 17.1541 44.9788 16.9901 44.4451 16.6619C43.9115 16.3338 43.4972 15.8748 43.2022 15.2848C42.9073 14.6948 42.7598 14.0054 42.7598 13.2166C42.7598 12.4245 42.9073 11.7318 43.2022 11.1385C43.4972 10.5452 43.9115 10.0845 44.4451 9.75639C44.9788 9.42827 45.6035 9.2642 46.3194 9.2642C47.0353 9.2642 47.6601 9.42827 48.1937 9.75639C48.7273 10.0845 49.1416 10.5452 49.4366 11.1385C49.7316 11.7318 49.8791 12.4245 49.8791 13.2166C49.8791 14.0054 49.7316 14.6948 49.4366 15.2848C49.1416 15.8748 48.7273 16.3338 48.1937 16.6619C47.6601 16.9901 47.0353 17.1541 46.3194 17.1541ZM46.3244 15.9062C46.7884 15.9062 47.1729 15.7836 47.4778 15.5384C47.7827 15.2931 48.0081 14.9666 48.1539 14.5589C48.3031 14.1513 48.3777 13.7022 48.3777 13.2116C48.3777 12.7244 48.3031 12.277 48.1539 11.8693C48.0081 11.4583 47.7827 11.1286 47.4778 10.88C47.1729 10.6314 46.7884 10.5071 46.3244 10.5071C45.8571 10.5071 45.4693 10.6314 45.161 10.88C44.8561 11.1286 44.6291 11.4583 44.4799 11.8693C44.3341 12.277 44.2612 12.7244 44.2612 13.2116C44.2612 13.7022 44.3341 14.1513 44.4799 14.5589C44.6291 14.9666 44.8561 15.2931 45.161 15.5384C45.4693 15.7836 45.8571 15.9062 46.3244 15.9062ZM52.9615 17L50.7143 9.36364H52.2505L53.747 14.9716H53.8216L55.323 9.36364H56.8592L58.3507 14.9467H58.4252L59.9118 9.36364H61.448L59.2058 17H57.6895L56.1383 11.4865H56.024L54.4728 17H52.9615ZM64.3452 12.4659V17H62.8587V9.36364H64.2855V10.6065H64.38C64.5556 10.2022 64.8307 9.87737 65.2053 9.6321C65.5831 9.38684 66.0587 9.2642 66.6321 9.2642C67.1525 9.2642 67.6082 9.37358 67.9993 9.59233C68.3904 9.80777 68.6937 10.1293 68.9091 10.5568C69.1245 10.9844 69.2322 11.513 69.2322 12.1428V17H67.7457V12.3217C67.7457 11.7682 67.6016 11.3357 67.3132 11.0241C67.0249 10.7093 66.6288 10.5518 66.125 10.5518C65.7803 10.5518 65.4737 10.6264 65.2053 10.7756C64.9401 10.9247 64.7296 11.1435 64.5739 11.4318C64.4214 11.7169 64.3452 12.0616 64.3452 12.4659ZM72.7124 6.81818V17H71.2259V6.81818H72.7124ZM77.9288 17.1541C77.2129 17.1541 76.5881 16.9901 76.0545 16.6619C75.5209 16.3338 75.1066 15.8748 74.8116 15.2848C74.5166 14.6948 74.3691 14.0054 74.3691 13.2166C74.3691 12.4245 74.5166 11.7318 74.8116 11.1385C75.1066 10.5452 75.5209 10.0845 76.0545 9.75639C76.5881 9.42827 77.2129 9.2642 77.9288 9.2642C78.6447 9.2642 79.2695 9.42827 79.8031 9.75639C80.3367 10.0845 80.751 10.5452 81.046 11.1385C81.341 11.7318 81.4885 12.4245 81.4885 13.2166C81.4885 14.0054 81.341 14.6948 81.046 15.2848C80.751 15.8748 80.3367 16.3338 79.8031 16.6619C79.2695 16.9901 78.6447 17.1541 77.9288 17.1541ZM77.9338 15.9062C78.3978 15.9062 78.7823 15.7836 79.0872 15.5384C79.3921 15.2931 79.6175 14.9666 79.7633 14.5589C79.9125 14.1513 79.987 13.7022 79.987 13.2116C79.987 12.7244 79.9125 12.277 79.7633 11.8693C79.6175 11.4583 79.3921 11.1286 79.0872 10.88C78.7823 10.6314 78.3978 10.5071 77.9338 10.5071C77.4664 10.5071 77.0787 10.6314 76.7704 10.88C76.4655 11.1286 76.2385 11.4583 76.0893 11.8693C75.9435 12.277 75.8706 12.7244 75.8706 13.2116C75.8706 13.7022 75.9435 14.1513 76.0893 14.5589C76.2385 14.9666 76.4655 15.2931 76.7704 15.5384C77.0787 15.7836 77.4664 15.9062 77.9338 15.9062ZM85.37 17.169C84.8861 17.169 84.4486 17.0795 84.0575 16.9006C83.6664 16.7183 83.3565 16.4548 83.1278 16.1101C82.9025 15.7654 82.7898 15.3428 82.7898 14.8423C82.7898 14.4115 82.8726 14.0568 83.0384 13.7784C83.2041 13.5 83.4278 13.2796 83.7095 13.1172C83.9912 12.9548 84.3061 12.8321 84.6541 12.7493C85.0021 12.6664 85.3568 12.6035 85.718 12.5604C86.1754 12.5073 86.5466 12.4643 86.8317 12.4311C87.1167 12.3946 87.3239 12.3366 87.4531 12.2571C87.5824 12.1776 87.647 12.0483 87.647 11.8693V11.8345C87.647 11.4003 87.5244 11.0639 87.2791 10.8253C87.0372 10.5866 86.6759 10.4673 86.1953 10.4673C85.6948 10.4673 85.3004 10.5784 85.0121 10.8004C84.727 11.0192 84.5298 11.2628 84.4205 11.5312L83.0234 11.2131C83.1892 10.7491 83.4311 10.3745 83.7493 10.0895C84.0708 9.80114 84.4403 9.59233 84.858 9.46307C85.2756 9.33049 85.7147 9.2642 86.1754 9.2642C86.4804 9.2642 86.8035 9.30066 87.1449 9.37358C87.4896 9.44318 87.8111 9.57244 88.1094 9.76136C88.411 9.95028 88.6579 10.2204 88.8501 10.5717C89.0424 10.9197 89.1385 11.3722 89.1385 11.929V17H87.6868V15.956H87.6271C87.531 16.1482 87.3868 16.3371 87.1946 16.5227C87.0024 16.7083 86.7554 16.8625 86.4538 16.9851C86.1522 17.1077 85.791 17.169 85.37 17.169ZM85.6932 15.9759C86.1042 15.9759 86.4555 15.8946 86.7472 15.7322C87.0421 15.5698 87.2659 15.3577 87.4183 15.0959C87.5741 14.8307 87.652 14.5473 87.652 14.2457V13.2614C87.599 13.3144 87.4962 13.3641 87.3438 13.4105C87.1946 13.4536 87.0239 13.4917 86.8317 13.5249C86.6394 13.5547 86.4522 13.5829 86.2699 13.6094C86.0876 13.6326 85.9351 13.6525 85.8125 13.669C85.5241 13.7055 85.2607 13.7668 85.022 13.853C84.7867 13.9392 84.5978 14.0634 84.4553 14.2259C84.3161 14.3849 84.2464 14.5971 84.2464 14.8622C84.2464 15.2301 84.3823 15.5085 84.6541 15.6974C84.9259 15.883 85.2723 15.9759 85.6932 15.9759ZM93.9771 17.1491C93.3606 17.1491 92.8104 16.9917 92.3265 16.6768C91.8459 16.3587 91.4681 15.9062 91.193 15.3196C90.9212 14.7296 90.7853 14.022 90.7853 13.1967C90.7853 12.3714 90.9229 11.6655 91.198 11.0788C91.4764 10.4922 91.8575 10.0431 92.3414 9.73153C92.8253 9.41998 93.3739 9.2642 93.987 9.2642C94.461 9.2642 94.8422 9.34375 95.1305 9.50284C95.4222 9.65862 95.6475 9.84091 95.8066 10.0497C95.969 10.2585 96.095 10.4425 96.1845 10.6016H96.274V6.81818H97.7605V17H96.3088V15.8118H96.1845C96.095 15.9742 95.9657 16.1598 95.7967 16.3686C95.631 16.5774 95.4023 16.7597 95.1106 16.9155C94.819 17.0713 94.4411 17.1491 93.9771 17.1491ZM94.3052 15.8814C94.7328 15.8814 95.094 15.7687 95.389 15.5433C95.6873 15.3146 95.9127 14.9981 96.0652 14.5938C96.2209 14.1894 96.2988 13.7187 96.2988 13.1818C96.2988 12.6515 96.2226 12.1875 96.0701 11.7898C95.9177 11.392 95.694 11.0821 95.399 10.8601C95.104 10.638 94.7394 10.527 94.3052 10.527C93.8578 10.527 93.4849 10.643 93.1866 10.875C92.8883 11.107 92.6629 11.4235 92.5105 11.8246C92.3613 12.2256 92.2868 12.678 92.2868 13.1818C92.2868 13.6922 92.363 14.1513 92.5154 14.5589C92.6679 14.9666 92.8933 15.2898 93.1916 15.5284C93.4932 15.7637 93.8644 15.8814 94.3052 15.8814Z" fill="#4B5563"/>
<path d="M36.4148 17H33.1186V6.81818H36.5192C37.5168 6.81818 38.3736 7.02202 39.0895 7.42969C39.8054 7.83404 40.3539 8.41572 40.7351 9.17472C41.1196 9.9304 41.3118 10.8369 41.3118 11.8942C41.3118 12.9548 41.1179 13.8662 40.7301 14.6286C40.3456 15.3909 39.7888 15.9775 39.0597 16.3885C38.3305 16.7962 37.4489 17 36.4148 17ZM34.6548 15.6577H36.3303C37.1058 15.6577 37.7505 15.5118 38.2642 15.2202C38.7779 14.9252 39.1624 14.4993 39.4176 13.9425C39.6728 13.3823 39.8004 12.6996 39.8004 11.8942C39.8004 11.0954 39.6728 10.4176 39.4176 9.8608C39.1657 9.30398 38.7895 8.88139 38.2891 8.59304C37.7886 8.30469 37.1671 8.16051 36.4247 8.16051H34.6548V15.6577ZM46.3194 17.1541C45.6035 17.1541 44.9788 16.9901 44.4451 16.6619C43.9115 16.3338 43.4972 15.8748 43.2022 15.2848C42.9073 14.6948 42.7598 14.0054 42.7598 13.2166C42.7598 12.4245 42.9073 11.7318 43.2022 11.1385C43.4972 10.5452 43.9115 10.0845 44.4451 9.75639C44.9788 9.42827 45.6035 9.2642 46.3194 9.2642C47.0353 9.2642 47.6601 9.42827 48.1937 9.75639C48.7273 10.0845 49.1416 10.5452 49.4366 11.1385C49.7316 11.7318 49.8791 12.4245 49.8791 13.2166C49.8791 14.0054 49.7316 14.6948 49.4366 15.2848C49.1416 15.8748 48.7273 16.3338 48.1937 16.6619C47.6601 16.9901 47.0353 17.1541 46.3194 17.1541ZM46.3244 15.9062C46.7884 15.9062 47.1729 15.7836 47.4778 15.5384C47.7827 15.2931 48.0081 14.9666 48.1539 14.5589C48.3031 14.1513 48.3777 13.7022 48.3777 13.2116C48.3777 12.7244 48.3031 12.277 48.1539 11.8693C48.0081 11.4583 47.7827 11.1286 47.4778 10.88C47.1729 10.6314 46.7884 10.5071 46.3244 10.5071C45.8571 10.5071 45.4693 10.6314 45.161 10.88C44.8561 11.1286 44.6291 11.4583 44.4799 11.8693C44.3341 12.277 44.2612 12.7244 44.2612 13.2116C44.2612 13.7022 44.3341 14.1513 44.4799 14.5589C44.6291 14.9666 44.8561 15.2931 45.161 15.5384C45.4693 15.7836 45.8571 15.9062 46.3244 15.9062ZM52.9615 17L50.7143 9.36364H52.2505L53.747 14.9716H53.8216L55.323 9.36364H56.8592L58.3507 14.9467H58.4252L59.9118 9.36364H61.448L59.2058 17H57.6895L56.1383 11.4865H56.024L54.4728 17H52.9615ZM64.3452 12.4659V17H62.8587V9.36364H64.2855V10.6065H64.38C64.5556 10.2022 64.8307 9.87737 65.2053 9.6321C65.5831 9.38684 66.0587 9.2642 66.6321 9.2642C67.1525 9.2642 67.6082 9.37358 67.9993 9.59233C68.3904 9.80777 68.6937 10.1293 68.9091 10.5568C69.1245 10.9844 69.2322 11.513 69.2322 12.1428V17H67.7457V12.3217C67.7457 11.7682 67.6016 11.3357 67.3132 11.0241C67.0249 10.7093 66.6288 10.5518 66.125 10.5518C65.7803 10.5518 65.4737 10.6264 65.2053 10.7756C64.9401 10.9247 64.7296 11.1435 64.5739 11.4318C64.4214 11.7169 64.3452 12.0616 64.3452 12.4659ZM72.7124 6.81818V17H71.2259V6.81818H72.7124ZM77.9288 17.1541C77.2129 17.1541 76.5881 16.9901 76.0545 16.6619C75.5209 16.3338 75.1066 15.8748 74.8116 15.2848C74.5166 14.6948 74.3691 14.0054 74.3691 13.2166C74.3691 12.4245 74.5166 11.7318 74.8116 11.1385C75.1066 10.5452 75.5209 10.0845 76.0545 9.75639C76.5881 9.42827 77.2129 9.2642 77.9288 9.2642C78.6447 9.2642 79.2695 9.42827 79.8031 9.75639C80.3367 10.0845 80.751 10.5452 81.046 11.1385C81.341 11.7318 81.4885 12.4245 81.4885 13.2166C81.4885 14.0054 81.341 14.6948 81.046 15.2848C80.751 15.8748 80.3367 16.3338 79.8031 16.6619C79.2695 16.9901 78.6447 17.1541 77.9288 17.1541ZM77.9338 15.9062C78.3978 15.9062 78.7823 15.7836 79.0872 15.5384C79.3921 15.2931 79.6175 14.9666 79.7633 14.5589C79.9125 14.1513 79.987 13.7022 79.987 13.2116C79.987 12.7244 79.9125 12.277 79.7633 11.8693C79.6175 11.4583 79.3921 11.1286 79.0872 10.88C78.7823 10.6314 78.3978 10.5071 77.9338 10.5071C77.4664 10.5071 77.0787 10.6314 76.7704 10.88C76.4655 11.1286 76.2385 11.4583 76.0893 11.8693C75.9435 12.277 75.8706 12.7244 75.8706 13.2116C75.8706 13.7022 75.9435 14.1513 76.0893 14.5589C76.2385 14.9666 76.4655 15.2931 76.7704 15.5384C77.0787 15.7836 77.4664 15.9062 77.9338 15.9062ZM85.37 17.169C84.8861 17.169 84.4486 17.0795 84.0575 16.9006C83.6664 16.7183 83.3565 16.4548 83.1278 16.1101C82.9025 15.7654 82.7898 15.3428 82.7898 14.8423C82.7898 14.4115 82.8726 14.0568 83.0384 13.7784C83.2041 13.5 83.4278 13.2796 83.7095 13.1172C83.9912 12.9548 84.3061 12.8321 84.6541 12.7493C85.0021 12.6664 85.3568 12.6035 85.718 12.5604C86.1754 12.5073 86.5466 12.4643 86.8317 12.4311C87.1167 12.3946 87.3239 12.3366 87.4531 12.2571C87.5824 12.1776 87.647 12.0483 87.647 11.8693V11.8345C87.647 11.4003 87.5244 11.0639 87.2791 10.8253C87.0372 10.5866 86.6759 10.4673 86.1953 10.4673C85.6948 10.4673 85.3004 10.5784 85.0121 10.8004C84.727 11.0192 84.5298 11.2628 84.4205 11.5312L83.0234 11.2131C83.1892 10.7491 83.4311 10.3745 83.7493 10.0895C84.0708 9.80114 84.4403 9.59233 84.858 9.46307C85.2756 9.33049 85.7147 9.2642 86.1754 9.2642C86.4804 9.2642 86.8035 9.30066 87.1449 9.37358C87.4896 9.44318 87.8111 9.57244 88.1094 9.76136C88.411 9.95028 88.6579 10.2204 88.8501 10.5717C89.0424 10.9197 89.1385 11.3722 89.1385 11.929V17H87.6868V15.956H87.6271C87.531 16.1482 87.3868 16.3371 87.1946 16.5227C87.0024 16.7083 86.7554 16.8625 86.4538 16.9851C86.1522 17.1077 85.791 17.169 85.37 17.169ZM85.6932 15.9759C86.1042 15.9759 86.4555 15.8946 86.7472 15.7322C87.0421 15.5698 87.2659 15.3577 87.4183 15.0959C87.5741 14.8307 87.652 14.5473 87.652 14.2457V13.2614C87.599 13.3144 87.4962 13.3641 87.3438 13.4105C87.1946 13.4536 87.0239 13.4917 86.8317 13.5249C86.6394 13.5547 86.4522 13.5829 86.2699 13.6094C86.0876 13.6326 85.9351 13.6525 85.8125 13.669C85.5241 13.7055 85.2607 13.7668 85.022 13.853C84.7867 13.9392 84.5978 14.0634 84.4553 14.2259C84.3161 14.3849 84.2464 14.5971 84.2464 14.8622C84.2464 15.2301 84.3823 15.5085 84.6541 15.6974C84.9259 15.883 85.2723 15.9759 85.6932 15.9759ZM93.9771 17.1491C93.3606 17.1491 92.8104 16.9917 92.3265 16.6768C91.8459 16.3587 91.4681 15.9062 91.193 15.3196C90.9212 14.7296 90.7853 14.022 90.7853 13.1967C90.7853 12.3714 90.9229 11.6655 91.198 11.0788C91.4764 10.4922 91.8575 10.0431 92.3414 9.73153C92.8253 9.41998 93.3739 9.2642 93.987 9.2642C94.461 9.2642 94.8422 9.34375 95.1305 9.50284C95.4222 9.65862 95.6475 9.84091 95.8066 10.0497C95.969 10.2585 96.095 10.4425 96.1845 10.6016H96.274V6.81818H97.7605V17H96.3088V15.8118H96.1845C96.095 15.9742 95.9657 16.1598 95.7967 16.3686C95.631 16.5774 95.4023 16.7597 95.1106 16.9155C94.819 17.0713 94.4411 17.1491 93.9771 17.1491ZM94.3052 15.8814C94.7328 15.8814 95.094 15.7687 95.389 15.5433C95.6873 15.3146 95.9127 14.9981 96.0652 14.5938C96.2209 14.1894 96.2988 13.7187 96.2988 13.1818C96.2988 12.6515 96.2226 12.1875 96.0701 11.7898C95.9177 11.392 95.694 11.0821 95.399 10.8601C95.104 10.638 94.7394 10.527 94.3052 10.527C93.8578 10.527 93.4849 10.643 93.1866 10.875C92.8883 11.107 92.6629 11.4235 92.5105 11.8246C92.3613 12.2256 92.2868 12.678 92.2868 13.1818C92.2868 13.6922 92.363 14.1513 92.5154 14.5589C92.6679 14.9666 92.8933 15.2898 93.1916 15.5284C93.4932 15.7637 93.8644 15.8814 94.3052 15.8814Z" fill="black" fill-opacity="0.2"/>
<path d="M36.4148 17H33.1186V6.81818H36.5192C37.5168 6.81818 38.3736 7.02202 39.0895 7.42969C39.8054 7.83404 40.3539 8.41572 40.7351 9.17472C41.1196 9.9304 41.3118 10.8369 41.3118 11.8942C41.3118 12.9548 41.1179 13.8662 40.7301 14.6286C40.3456 15.3909 39.7888 15.9775 39.0597 16.3885C38.3305 16.7962 37.4489 17 36.4148 17ZM34.6548 15.6577H36.3303C37.1058 15.6577 37.7505 15.5118 38.2642 15.2202C38.7779 14.9252 39.1624 14.4993 39.4176 13.9425C39.6728 13.3823 39.8004 12.6996 39.8004 11.8942C39.8004 11.0954 39.6728 10.4176 39.4176 9.8608C39.1657 9.30398 38.7895 8.88139 38.2891 8.59304C37.7886 8.30469 37.1671 8.16051 36.4247 8.16051H34.6548V15.6577ZM46.3194 17.1541C45.6035 17.1541 44.9788 16.9901 44.4451 16.6619C43.9115 16.3338 43.4972 15.8748 43.2022 15.2848C42.9073 14.6948 42.7598 14.0054 42.7598 13.2166C42.7598 12.4245 42.9073 11.7318 43.2022 11.1385C43.4972 10.5452 43.9115 10.0845 44.4451 9.75639C44.9788 9.42827 45.6035 9.2642 46.3194 9.2642C47.0353 9.2642 47.6601 9.42827 48.1937 9.75639C48.7273 10.0845 49.1416 10.5452 49.4366 11.1385C49.7316 11.7318 49.8791 12.4245 49.8791 13.2166C49.8791 14.0054 49.7316 14.6948 49.4366 15.2848C49.1416 15.8748 48.7273 16.3338 48.1937 16.6619C47.6601 16.9901 47.0353 17.1541 46.3194 17.1541ZM46.3244 15.9062C46.7884 15.9062 47.1729 15.7836 47.4778 15.5384C47.7827 15.2931 48.0081 14.9666 48.1539 14.5589C48.3031 14.1513 48.3777 13.7022 48.3777 13.2116C48.3777 12.7244 48.3031 12.277 48.1539 11.8693C48.0081 11.4583 47.7827 11.1286 47.4778 10.88C47.1729 10.6314 46.7884 10.5071 46.3244 10.5071C45.8571 10.5071 45.4693 10.6314 45.161 10.88C44.8561 11.1286 44.6291 11.4583 44.4799 11.8693C44.3341 12.277 44.2612 12.7244 44.2612 13.2116C44.2612 13.7022 44.3341 14.1513 44.4799 14.5589C44.6291 14.9666 44.8561 15.2931 45.161 15.5384C45.4693 15.7836 45.8571 15.9062 46.3244 15.9062ZM52.9615 17L50.7143 9.36364H52.2505L53.747 14.9716H53.8216L55.323 9.36364H56.8592L58.3507 14.9467H58.4252L59.9118 9.36364H61.448L59.2058 17H57.6895L56.1383 11.4865H56.024L54.4728 17H52.9615ZM64.3452 12.4659V17H62.8587V9.36364H64.2855V10.6065H64.38C64.5556 10.2022 64.8307 9.87737 65.2053 9.6321C65.5831 9.38684 66.0587 9.2642 66.6321 9.2642C67.1525 9.2642 67.6082 9.37358 67.9993 9.59233C68.3904 9.80777 68.6937 10.1293 68.9091 10.5568C69.1245 10.9844 69.2322 11.513 69.2322 12.1428V17H67.7457V12.3217C67.7457 11.7682 67.6016 11.3357 67.3132 11.0241C67.0249 10.7093 66.6288 10.5518 66.125 10.5518C65.7803 10.5518 65.4737 10.6264 65.2053 10.7756C64.9401 10.9247 64.7296 11.1435 64.5739 11.4318C64.4214 11.7169 64.3452 12.0616 64.3452 12.4659ZM72.7124 6.81818V17H71.2259V6.81818H72.7124ZM77.9288 17.1541C77.2129 17.1541 76.5881 16.9901 76.0545 16.6619C75.5209 16.3338 75.1066 15.8748 74.8116 15.2848C74.5166 14.6948 74.3691 14.0054 74.3691 13.2166C74.3691 12.4245 74.5166 11.7318 74.8116 11.1385C75.1066 10.5452 75.5209 10.0845 76.0545 9.75639C76.5881 9.42827 77.2129 9.2642 77.9288 9.2642C78.6447 9.2642 79.2695 9.42827 79.8031 9.75639C80.3367 10.0845 80.751 10.5452 81.046 11.1385C81.341 11.7318 81.4885 12.4245 81.4885 13.2166C81.4885 14.0054 81.341 14.6948 81.046 15.2848C80.751 15.8748 80.3367 16.3338 79.8031 16.6619C79.2695 16.9901 78.6447 17.1541 77.9288 17.1541ZM77.9338 15.9062C78.3978 15.9062 78.7823 15.7836 79.0872 15.5384C79.3921 15.2931 79.6175 14.9666 79.7633 14.5589C79.9125 14.1513 79.987 13.7022 79.987 13.2116C79.987 12.7244 79.9125 12.277 79.7633 11.8693C79.6175 11.4583 79.3921 11.1286 79.0872 10.88C78.7823 10.6314 78.3978 10.5071 77.9338 10.5071C77.4664 10.5071 77.0787 10.6314 76.7704 10.88C76.4655 11.1286 76.2385 11.4583 76.0893 11.8693C75.9435 12.277 75.8706 12.7244 75.8706 13.2116C75.8706 13.7022 75.9435 14.1513 76.0893 14.5589C76.2385 14.9666 76.4655 15.2931 76.7704 15.5384C77.0787 15.7836 77.4664 15.9062 77.9338 15.9062ZM85.37 17.169C84.8861 17.169 84.4486 17.0795 84.0575 16.9006C83.6664 16.7183 83.3565 16.4548 83.1278 16.1101C82.9025 15.7654 82.7898 15.3428 82.7898 14.8423C82.7898 14.4115 82.8726 14.0568 83.0384 13.7784C83.2041 13.5 83.4278 13.2796 83.7095 13.1172C83.9912 12.9548 84.3061 12.8321 84.6541 12.7493C85.0021 12.6664 85.3568 12.6035 85.718 12.5604C86.1754 12.5073 86.5466 12.4643 86.8317 12.4311C87.1167 12.3946 87.3239 12.3366 87.4531 12.2571C87.5824 12.1776 87.647 12.0483 87.647 11.8693V11.8345C87.647 11.4003 87.5244 11.0639 87.2791 10.8253C87.0372 10.5866 86.6759 10.4673 86.1953 10.4673C85.6948 10.4673 85.3004 10.5784 85.0121 10.8004C84.727 11.0192 84.5298 11.2628 84.4205 11.5312L83.0234 11.2131C83.1892 10.7491 83.4311 10.3745 83.7493 10.0895C84.0708 9.80114 84.4403 9.59233 84.858 9.46307C85.2756 9.33049 85.7147 9.2642 86.1754 9.2642C86.4804 9.2642 86.8035 9.30066 87.1449 9.37358C87.4896 9.44318 87.8111 9.57244 88.1094 9.76136C88.411 9.95028 88.6579 10.2204 88.8501 10.5717C89.0424 10.9197 89.1385 11.3722 89.1385 11.929V17H87.6868V15.956H87.6271C87.531 16.1482 87.3868 16.3371 87.1946 16.5227C87.0024 16.7083 86.7554 16.8625 86.4538 16.9851C86.1522 17.1077 85.791 17.169 85.37 17.169ZM85.6932 15.9759C86.1042 15.9759 86.4555 15.8946 86.7472 15.7322C87.0421 15.5698 87.2659 15.3577 87.4183 15.0959C87.5741 14.8307 87.652 14.5473 87.652 14.2457V13.2614C87.599 13.3144 87.4962 13.3641 87.3438 13.4105C87.1946 13.4536 87.0239 13.4917 86.8317 13.5249C86.6394 13.5547 86.4522 13.5829 86.2699 13.6094C86.0876 13.6326 85.9351 13.6525 85.8125 13.669C85.5241 13.7055 85.2607 13.7668 85.022 13.853C84.7867 13.9392 84.5978 14.0634 84.4553 14.2259C84.3161 14.3849 84.2464 14.5971 84.2464 14.8622C84.2464 15.2301 84.3823 15.5085 84.6541 15.6974C84.9259 15.883 85.2723 15.9759 85.6932 15.9759ZM93.9771 17.1491C93.3606 17.1491 92.8104 16.9917 92.3265 16.6768C91.8459 16.3587 91.4681 15.9062 91.193 15.3196C90.9212 14.7296 90.7853 14.022 90.7853 13.1967C90.7853 12.3714 90.9229 11.6655 91.198 11.0788C91.4764 10.4922 91.8575 10.0431 92.3414 9.73153C92.8253 9.41998 93.3739 9.2642 93.987 9.2642C94.461 9.2642 94.8422 9.34375 95.1305 9.50284C95.4222 9.65862 95.6475 9.84091 95.8066 10.0497C95.969 10.2585 96.095 10.4425 96.1845 10.6016H96.274V6.81818H97.7605V17H96.3088V15.8118H96.1845C96.095 15.9742 95.9657 16.1598 95.7967 16.3686C95.631 16.5774 95.4023 16.7597 95.1106 16.9155C94.819 17.0713 94.4411 17.1491 93.9771 17.1491ZM94.3052 15.8814C94.7328 15.8814 95.094 15.7687 95.389 15.5433C95.6873 15.3146 95.9127 14.9981 96.0652 14.5938C96.2209 14.1894 96.2988 13.7187 96.2988 13.1818C96.2988 12.6515 96.2226 12.1875 96.0701 11.7898C95.9177 11.392 95.694 11.0821 95.399 10.8601C95.104 10.638 94.7394 10.527 94.3052 10.527C93.8578 10.527 93.4849 10.643 93.1866 10.875C92.8883 11.107 92.6629 11.4235 92.5105 11.8246C92.3613 12.2256 92.2868 12.678 92.2868 13.1818C92.2868 13.6922 92.363 14.1513 92.5154 14.5589C92.6679 14.9666 92.8933 15.2898 93.1916 15.5284C93.4932 15.7637 93.8644 15.8814 94.3052 15.8814Z" fill="black" fill-opacity="0.2"/>
<path d="M36.4148 17H33.1186V6.81818H36.5192C37.5168 6.81818 38.3736 7.02202 39.0895 7.42969C39.8054 7.83404 40.3539 8.41572 40.7351 9.17472C41.1196 9.9304 41.3118 10.8369 41.3118 11.8942C41.3118 12.9548 41.1179 13.8662 40.7301 14.6286C40.3456 15.3909 39.7888 15.9775 39.0597 16.3885C38.3305 16.7962 37.4489 17 36.4148 17ZM34.6548 15.6577H36.3303C37.1058 15.6577 37.7505 15.5118 38.2642 15.2202C38.7779 14.9252 39.1624 14.4993 39.4176 13.9425C39.6728 13.3823 39.8004 12.6996 39.8004 11.8942C39.8004 11.0954 39.6728 10.4176 39.4176 9.8608C39.1657 9.30398 38.7895 8.88139 38.2891 8.59304C37.7886 8.30469 37.1671 8.16051 36.4247 8.16051H34.6548V15.6577ZM46.3194 17.1541C45.6035 17.1541 44.9788 16.9901 44.4451 16.6619C43.9115 16.3338 43.4972 15.8748 43.2022 15.2848C42.9073 14.6948 42.7598 14.0054 42.7598 13.2166C42.7598 12.4245 42.9073 11.7318 43.2022 11.1385C43.4972 10.5452 43.9115 10.0845 44.4451 9.75639C44.9788 9.42827 45.6035 9.2642 46.3194 9.2642C47.0353 9.2642 47.6601 9.42827 48.1937 9.75639C48.7273 10.0845 49.1416 10.5452 49.4366 11.1385C49.7316 11.7318 49.8791 12.4245 49.8791 13.2166C49.8791 14.0054 49.7316 14.6948 49.4366 15.2848C49.1416 15.8748 48.7273 16.3338 48.1937 16.6619C47.6601 16.9901 47.0353 17.1541 46.3194 17.1541ZM46.3244 15.9062C46.7884 15.9062 47.1729 15.7836 47.4778 15.5384C47.7827 15.2931 48.0081 14.9666 48.1539 14.5589C48.3031 14.1513 48.3777 13.7022 48.3777 13.2116C48.3777 12.7244 48.3031 12.277 48.1539 11.8693C48.0081 11.4583 47.7827 11.1286 47.4778 10.88C47.1729 10.6314 46.7884 10.5071 46.3244 10.5071C45.8571 10.5071 45.4693 10.6314 45.161 10.88C44.8561 11.1286 44.6291 11.4583 44.4799 11.8693C44.3341 12.277 44.2612 12.7244 44.2612 13.2116C44.2612 13.7022 44.3341 14.1513 44.4799 14.5589C44.6291 14.9666 44.8561 15.2931 45.161 15.5384C45.4693 15.7836 45.8571 15.9062 46.3244 15.9062ZM52.9615 17L50.7143 9.36364H52.2505L53.747 14.9716H53.8216L55.323 9.36364H56.8592L58.3507 14.9467H58.4252L59.9118 9.36364H61.448L59.2058 17H57.6895L56.1383 11.4865H56.024L54.4728 17H52.9615ZM64.3452 12.4659V17H62.8587V9.36364H64.2855V10.6065H64.38C64.5556 10.2022 64.8307 9.87737 65.2053 9.6321C65.5831 9.38684 66.0587 9.2642 66.6321 9.2642C67.1525 9.2642 67.6082 9.37358 67.9993 9.59233C68.3904 9.80777 68.6937 10.1293 68.9091 10.5568C69.1245 10.9844 69.2322 11.513 69.2322 12.1428V17H67.7457V12.3217C67.7457 11.7682 67.6016 11.3357 67.3132 11.0241C67.0249 10.7093 66.6288 10.5518 66.125 10.5518C65.7803 10.5518 65.4737 10.6264 65.2053 10.7756C64.9401 10.9247 64.7296 11.1435 64.5739 11.4318C64.4214 11.7169 64.3452 12.0616 64.3452 12.4659ZM72.7124 6.81818V17H71.2259V6.81818H72.7124ZM77.9288 17.1541C77.2129 17.1541 76.5881 16.9901 76.0545 16.6619C75.5209 16.3338 75.1066 15.8748 74.8116 15.2848C74.5166 14.6948 74.3691 14.0054 74.3691 13.2166C74.3691 12.4245 74.5166 11.7318 74.8116 11.1385C75.1066 10.5452 75.5209 10.0845 76.0545 9.75639C76.5881 9.42827 77.2129 9.2642 77.9288 9.2642C78.6447 9.2642 79.2695 9.42827 79.8031 9.75639C80.3367 10.0845 80.751 10.5452 81.046 11.1385C81.341 11.7318 81.4885 12.4245 81.4885 13.2166C81.4885 14.0054 81.341 14.6948 81.046 15.2848C80.751 15.8748 80.3367 16.3338 79.8031 16.6619C79.2695 16.9901 78.6447 17.1541 77.9288 17.1541ZM77.9338 15.9062C78.3978 15.9062 78.7823 15.7836 79.0872 15.5384C79.3921 15.2931 79.6175 14.9666 79.7633 14.5589C79.9125 14.1513 79.987 13.7022 79.987 13.2116C79.987 12.7244 79.9125 12.277 79.7633 11.8693C79.6175 11.4583 79.3921 11.1286 79.0872 10.88C78.7823 10.6314 78.3978 10.5071 77.9338 10.5071C77.4664 10.5071 77.0787 10.6314 76.7704 10.88C76.4655 11.1286 76.2385 11.4583 76.0893 11.8693C75.9435 12.277 75.8706 12.7244 75.8706 13.2116C75.8706 13.7022 75.9435 14.1513 76.0893 14.5589C76.2385 14.9666 76.4655 15.2931 76.7704 15.5384C77.0787 15.7836 77.4664 15.9062 77.9338 15.9062ZM85.37 17.169C84.8861 17.169 84.4486 17.0795 84.0575 16.9006C83.6664 16.7183 83.3565 16.4548 83.1278 16.1101C82.9025 15.7654 82.7898 15.3428 82.7898 14.8423C82.7898 14.4115 82.8726 14.0568 83.0384 13.7784C83.2041 13.5 83.4278 13.2796 83.7095 13.1172C83.9912 12.9548 84.3061 12.8321 84.6541 12.7493C85.0021 12.6664 85.3568 12.6035 85.718 12.5604C86.1754 12.5073 86.5466 12.4643 86.8317 12.4311C87.1167 12.3946 87.3239 12.3366 87.4531 12.2571C87.5824 12.1776 87.647 12.0483 87.647 11.8693V11.8345C87.647 11.4003 87.5244 11.0639 87.2791 10.8253C87.0372 10.5866 86.6759 10.4673 86.1953 10.4673C85.6948 10.4673 85.3004 10.5784 85.0121 10.8004C84.727 11.0192 84.5298 11.2628 84.4205 11.5312L83.0234 11.2131C83.1892 10.7491 83.4311 10.3745 83.7493 10.0895C84.0708 9.80114 84.4403 9.59233 84.858 9.46307C85.2756 9.33049 85.7147 9.2642 86.1754 9.2642C86.4804 9.2642 86.8035 9.30066 87.1449 9.37358C87.4896 9.44318 87.8111 9.57244 88.1094 9.76136C88.411 9.95028 88.6579 10.2204 88.8501 10.5717C89.0424 10.9197 89.1385 11.3722 89.1385 11.929V17H87.6868V15.956H87.6271C87.531 16.1482 87.3868 16.3371 87.1946 16.5227C87.0024 16.7083 86.7554 16.8625 86.4538 16.9851C86.1522 17.1077 85.791 17.169 85.37 17.169ZM85.6932 15.9759C86.1042 15.9759 86.4555 15.8946 86.7472 15.7322C87.0421 15.5698 87.2659 15.3577 87.4183 15.0959C87.5741 14.8307 87.652 14.5473 87.652 14.2457V13.2614C87.599 13.3144 87.4962 13.3641 87.3438 13.4105C87.1946 13.4536 87.0239 13.4917 86.8317 13.5249C86.6394 13.5547 86.4522 13.5829 86.2699 13.6094C86.0876 13.6326 85.9351 13.6525 85.8125 13.669C85.5241 13.7055 85.2607 13.7668 85.022 13.853C84.7867 13.9392 84.5978 14.0634 84.4553 14.2259C84.3161 14.3849 84.2464 14.5971 84.2464 14.8622C84.2464 15.2301 84.3823 15.5085 84.6541 15.6974C84.9259 15.883 85.2723 15.9759 85.6932 15.9759ZM93.9771 17.1491C93.3606 17.1491 92.8104 16.9917 92.3265 16.6768C91.8459 16.3587 91.4681 15.9062 91.193 15.3196C90.9212 14.7296 90.7853 14.022 90.7853 13.1967C90.7853 12.3714 90.9229 11.6655 91.198 11.0788C91.4764 10.4922 91.8575 10.0431 92.3414 9.73153C92.8253 9.41998 93.3739 9.2642 93.987 9.2642C94.461 9.2642 94.8422 9.34375 95.1305 9.50284C95.4222 9.65862 95.6475 9.84091 95.8066 10.0497C95.969 10.2585 96.095 10.4425 96.1845 10.6016H96.274V6.81818H97.7605V17H96.3088V15.8118H96.1845C96.095 15.9742 95.9657 16.1598 95.7967 16.3686C95.631 16.5774 95.4023 16.7597 95.1106 16.9155C94.819 17.0713 94.4411 17.1491 93.9771 17.1491ZM94.3052 15.8814C94.7328 15.8814 95.094 15.7687 95.389 15.5433C95.6873 15.3146 95.9127 14.9981 96.0652 14.5938C96.2209 14.1894 96.2988 13.7187 96.2988 13.1818C96.2988 12.6515 96.2226 12.1875 96.0701 11.7898C95.9177 11.392 95.694 11.0821 95.399 10.8601C95.104 10.638 94.7394 10.527 94.3052 10.527C93.8578 10.527 93.4849 10.643 93.1866 10.875C92.8883 11.107 92.6629 11.4235 92.5105 11.8246C92.3613 12.2256 92.2868 12.678 92.2868 13.1818C92.2868 13.6922 92.363 14.1513 92.5154 14.5589C92.6679 14.9666 92.8933 15.2898 93.1916 15.5284C93.4932 15.7637 93.8644 15.8814 94.3052 15.8814Z" fill="black" fill-opacity="0.2"/>
</svg>
