<svg width="98" height="24" viewBox="0 0 98 24" fill="none" xmlns="http://www.w3.org/2000/svg">
<path d="M15.182 15.182C14.7641 15.5999 14.2681 15.9313 13.7221 16.1575C13.1761 16.3836 12.591 16.5 12 16.5C11.409 16.5 10.8239 16.3836 10.2779 16.1575C9.73194 15.9313 9.23586 15.5999 8.818 15.182M21 12C21 13.1819 20.7672 14.3522 20.3149 15.4442C19.8626 16.5361 19.1997 17.5282 18.364 18.364C17.5282 19.1997 16.5361 19.8626 15.4442 20.3149C14.3522 20.7672 13.1819 21 12 21C10.8181 21 9.64778 20.7672 8.55585 20.3149C7.46392 19.8626 6.47177 19.1997 5.63604 18.364C4.80031 17.5282 4.13738 16.5361 3.68508 15.4442C3.23279 14.3522 3 13.1819 3 12C3 9.61305 3.94821 7.32387 5.63604 5.63604C7.32387 3.94821 9.61305 3 12 3C14.3869 3 16.6761 3.94821 18.364 5.63604C20.0518 7.32387 21 9.61305 21 12ZM9.75 9.75C9.75 10.164 9.582 10.5 9.375 10.5C9.168 10.5 9 10.164 9 9.75C9 9.336 9.168 9 9.375 9C9.582 9 9.75 9.336 9.75 9.75ZM9.375 9.75H9.383V9.765H9.375V9.75ZM15 9.75C15 10.164 14.832 10.5 14.625 10.5C14.418 10.5 14.25 10.164 14.25 9.75C14.25 9.336 14.418 9 14.625 9C14.832 9 15 9.336 15 9.75ZM14.625 9.75H14.633V9.765H14.625V9.75Z" stroke="#4B5563" stroke-width="1.5" stroke-linecap="round" stroke-linejoin="round"/>
<path d="M15.182 15.182C14.7641 15.5999 14.2681 15.9313 13.7221 16.1575C13.1761 16.3836 12.591 16.5 12 16.5C11.409 16.5 10.8239 16.3836 10.2779 16.1575C9.73194 15.9313 9.23586 15.5999 8.818 15.182M21 12C21 13.1819 20.7672 14.3522 20.3149 15.4442C19.8626 16.5361 19.1997 17.5282 18.364 18.364C17.5282 19.1997 16.5361 19.8626 15.4442 20.3149C14.3522 20.7672 13.1819 21 12 21C10.8181 21 9.64778 20.7672 8.55585 20.3149C7.46392 19.8626 6.47177 19.1997 5.63604 18.364C4.80031 17.5282 4.13738 16.5361 3.68508 15.4442C3.23279 14.3522 3 13.1819 3 12C3 9.61305 3.94821 7.32387 5.63604 5.63604C7.32387 3.94821 9.61305 3 12 3C14.3869 3 16.6761 3.94821 18.364 5.63604C20.0518 7.32387 21 9.61305 21 12ZM9.75 9.75C9.75 10.164 9.582 10.5 9.375 10.5C9.168 10.5 9 10.164 9 9.75C9 9.336 9.168 9 9.375 9C9.582 9 9.75 9.336 9.75 9.75ZM9.375 9.75H9.383V9.765H9.375V9.75ZM15 9.75C15 10.164 14.832 10.5 14.625 10.5C14.418 10.5 14.25 10.164 14.25 9.75C14.25 9.336 14.418 9 14.625 9C14.832 9 15 9.336 15 9.75ZM14.625 9.75H14.633V9.765H14.625V9.75Z" stroke="black" stroke-opacity="0.2" stroke-width="1.5" stroke-linecap="round" stroke-linejoin="round"/>
<path d="M15.182 15.182C14.7641 15.5999 14.2681 15.9313 13.7221 16.1575C13.1761 16.3836 12.591 16.5 12 16.5C11.409 16.5 10.8239 16.3836 10.2779 16.1575C9.73194 15.9313 9.23586 15.5999 8.818 15.182M21 12C21 13.1819 20.7672 14.3522 20.3149 15.4442C19.8626 16.5361 19.1997 17.5282 18.364 18.364C17.5282 19.1997 16.5361 19.8626 15.4442 20.3149C14.3522 20.7672 13.1819 21 12 21C10.8181 21 9.64778 20.7672 8.55585 20.3149C7.46392 19.8626 6.47177 19.1997 5.63604 18.364C4.80031 17.5282 4.13738 16.5361 3.68508 15.4442C3.23279 14.3522 3 13.1819 3 12C3 9.61305 3.94821 7.32387 5.63604 5.63604C7.32387 3.94821 9.61305 3 12 3C14.3869 3 16.6761 3.94821 18.364 5.63604C20.0518 7.32387 21 9.61305 21 12ZM9.75 9.75C9.75 10.164 9.582 10.5 9.375 10.5C9.168 10.5 9 10.164 9 9.75C9 9.336 9.168 9 9.375 9C9.582 9 9.75 9.336 9.75 9.75ZM9.375 9.75H9.383V9.765H9.375V9.75ZM15 9.75C15 10.164 14.832 10.5 14.625 10.5C14.418 10.5 14.25 10.164 14.25 9.75C14.25 9.336 14.418 9 14.625 9C14.832 9 15 9.336 15 9.75ZM14.625 9.75H14.633V9.765H14.625V9.75Z" stroke="black" stroke-opacity="0.2" stroke-width="1.5" stroke-linecap="round" stroke-linejoin="round"/>
<path d="M15.182 15.182C14.7641 15.5999 14.2681 15.9313 13.7221 16.1575C13.1761 16.3836 12.591 16.5 12 16.5C11.409 16.5 10.8239 16.3836 10.2779 16.1575C9.73194 15.9313 9.23586 15.5999 8.818 15.182M21 12C21 13.1819 20.7672 14.3522 20.3149 15.4442C19.8626 16.5361 19.1997 17.5282 18.364 18.364C17.5282 19.1997 16.5361 19.8626 15.4442 20.3149C14.3522 20.7672 13.1819 21 12 21C10.8181 21 9.64778 20.7672 8.55585 20.3149C7.46392 19.8626 6.47177 19.1997 5.63604 18.364C4.80031 17.5282 4.13738 16.5361 3.68508 15.4442C3.23279 14.3522 3 13.1819 3 12C3 9.61305 3.94821 7.32387 5.63604 5.63604C7.32387 3.94821 9.61305 3 12 3C14.3869 3 16.6761 3.94821 18.364 5.63604C20.0518 7.32387 21 9.61305 21 12ZM9.75 9.75C9.75 10.164 9.582 10.5 9.375 10.5C9.168 10.5 9 10.164 9 9.75C9 9.336 9.168 9 9.375 9C9.582 9 9.75 9.336 9.75 9.75ZM9.375 9.75H9.383V9.765H9.375V9.75ZM15 9.75C15 10.164 14.832 10.5 14.625 10.5C14.418 10.5 14.25 10.164 14.25 9.75C14.25 9.336 14.418 9 14.625 9C14.832 9 15 9.336 15 9.75ZM14.625 9.75H14.633V9.765H14.625V9.75Z" stroke="black" stroke-opacity="0.2" stroke-width="1.5" stroke-linecap="round" stroke-linejoin="round"/>
<path d="M33.1186 17V6.81818H39.4325V8.14062H34.6548V11.2429H38.9801V12.5604H34.6548V17H33.1186ZM43.9331 17.1541C43.1807 17.1541 42.5327 16.9934 41.9892 16.6719C41.4489 16.3471 41.0313 15.8913 40.7363 15.3047C40.4447 14.7147 40.2988 14.0237 40.2988 13.2315C40.2988 12.4493 40.4447 11.7599 40.7363 11.1634C41.0313 10.5668 41.4423 10.1011 41.9693 9.76633C42.4996 9.43158 43.1194 9.2642 43.8287 9.2642C44.2595 9.2642 44.6771 9.33546 45.0815 9.47798C45.4859 9.6205 45.8488 9.84422 46.1703 10.1491C46.4918 10.4541 46.7453 10.8501 46.9309 11.3374C47.1165 11.8213 47.2093 12.4096 47.2093 13.1023V13.6293H41.139V12.5156H45.7527C45.7527 12.1245 45.6731 11.7782 45.514 11.4766C45.3549 11.1716 45.1312 10.9313 44.8429 10.7557C44.5578 10.58 44.2231 10.4922 43.8386 10.4922C43.421 10.4922 43.0564 10.5949 42.7449 10.8004C42.4366 11.0026 42.198 11.2678 42.0289 11.5959C41.8632 11.9207 41.7804 12.2737 41.7804 12.6548V13.5249C41.7804 14.0353 41.8699 14.4695 42.0488 14.8274C42.2311 15.1854 42.4847 15.4588 42.8095 15.6477C43.1343 15.8333 43.5138 15.9261 43.948 15.9261C44.2297 15.9261 44.4866 15.8864 44.7186 15.8068C44.9506 15.724 45.1511 15.6013 45.3201 15.4389C45.4892 15.2765 45.6184 15.076 45.7079 14.8374L47.1149 15.0909C47.0022 15.5052 46.8 15.8681 46.5083 16.1797C46.22 16.4879 45.8571 16.7282 45.4196 16.9006C44.9854 17.0696 44.4899 17.1541 43.9331 17.1541ZM52.1499 17.1541C51.3975 17.1541 50.7495 16.9934 50.206 16.6719C49.6657 16.3471 49.2481 15.8913 48.9531 15.3047C48.6615 14.7147 48.5156 14.0237 48.5156 13.2315C48.5156 12.4493 48.6615 11.7599 48.9531 11.1634C49.2481 10.5668 49.6591 10.1011 50.1861 9.76633C50.7164 9.43158 51.3362 9.2642 52.0455 9.2642C52.4763 9.2642 52.8939 9.33546 53.2983 9.47798C53.7027 9.6205 54.0656 9.84422 54.3871 10.1491C54.7086 10.4541 54.9621 10.8501 55.1477 11.3374C55.3333 11.8213 55.4261 12.4096 55.4261 13.1023V13.6293H49.3558V12.5156H53.9695C53.9695 12.1245 53.8899 11.7782 53.7308 11.4766C53.5717 11.1716 53.348 10.9313 53.0597 10.7557C52.7746 10.58 52.4399 10.4922 52.0554 10.4922C51.6378 10.4922 51.2732 10.5949 50.9616 10.8004C50.6534 11.0026 50.4148 11.2678 50.2457 11.5959C50.08 11.9207 49.9972 12.2737 49.9972 12.6548V13.5249C49.9972 14.0353 50.0866 14.4695 50.2656 14.8274C50.4479 15.1854 50.7015 15.4588 51.0263 15.6477C51.3511 15.8333 51.7306 15.9261 52.1648 15.9261C52.4465 15.9261 52.7034 15.8864 52.9354 15.8068C53.1674 15.724 53.3679 15.6013 53.5369 15.4389C53.706 15.2765 53.8352 15.076 53.9247 14.8374L55.3317 15.0909C55.219 15.5052 55.0168 15.8681 54.7251 16.1797C54.4368 16.4879 54.0739 16.7282 53.6364 16.9006C53.2022 17.0696 52.7067 17.1541 52.1499 17.1541ZM59.9341 17.1491C59.3176 17.1491 58.7675 16.9917 58.2836 16.6768C57.803 16.3587 57.4251 15.9062 57.15 15.3196C56.8783 14.7296 56.7424 14.022 56.7424 13.1967C56.7424 12.3714 56.8799 11.6655 57.155 11.0788C57.4334 10.4922 57.8146 10.0431 58.2985 9.73153C58.7824 9.41998 59.3309 9.2642 59.9441 9.2642C60.418 9.2642 60.7992 9.34375 61.0875 9.50284C61.3792 9.65862 61.6046 9.84091 61.7637 10.0497C61.9261 10.2585 62.052 10.4425 62.1415 10.6016H62.231V6.81818H63.7175V17H62.2658V15.8118H62.1415C62.052 15.9742 61.9228 16.1598 61.7537 16.3686C61.588 16.5774 61.3593 16.7597 61.0676 16.9155C60.776 17.0713 60.3981 17.1491 59.9341 17.1491ZM60.2623 15.8814C60.6898 15.8814 61.0511 15.7687 61.3461 15.5433C61.6444 15.3146 61.8697 14.9981 62.0222 14.5938C62.178 14.1894 62.2559 13.7187 62.2559 13.1818C62.2559 12.6515 62.1796 12.1875 62.0272 11.7898C61.8747 11.392 61.651 11.0821 61.356 10.8601C61.061 10.638 60.6964 10.527 60.2623 10.527C59.8148 10.527 59.4419 10.643 59.1436 10.875C58.8453 11.107 58.62 11.4235 58.4675 11.8246C58.3184 12.2256 58.2438 12.678 58.2438 13.1818C58.2438 13.6922 58.32 14.1513 58.4725 14.5589C58.6249 14.9666 58.8503 15.2898 59.1486 15.5284C59.4502 15.7637 59.8214 15.8814 60.2623 15.8814ZM65.9585 17V6.81818H67.445V10.6016H67.5344C67.6206 10.4425 67.7449 10.2585 67.9073 10.0497C68.0697 9.84091 68.2951 9.65862 68.5835 9.50284C68.8718 9.34375 69.253 9.2642 69.7269 9.2642C70.3434 9.2642 70.8936 9.41998 71.3775 9.73153C71.8614 10.0431 72.2409 10.4922 72.516 11.0788C72.7944 11.6655 72.9336 12.3714 72.9336 13.1967C72.9336 14.022 72.796 14.7296 72.521 15.3196C72.2459 15.9062 71.868 16.3587 71.3874 16.6768C70.9068 16.9917 70.3583 17.1491 69.7418 17.1491C69.2778 17.1491 68.8983 17.0713 68.6033 16.9155C68.3117 16.7597 68.083 16.5774 67.9173 16.3686C67.7515 16.1598 67.6239 15.9742 67.5344 15.8118H67.4102V17H65.9585ZM67.4151 13.1818C67.4151 13.7187 67.493 14.1894 67.6488 14.5938C67.8046 14.9981 68.0299 15.3146 68.3249 15.5433C68.6199 15.7687 68.9812 15.8814 69.4087 15.8814C69.8529 15.8814 70.2241 15.7637 70.5224 15.5284C70.8207 15.2898 71.046 14.9666 71.1985 14.5589C71.3543 14.1513 71.4322 13.6922 71.4322 13.1818C71.4322 12.678 71.3559 12.2256 71.2035 11.8246C71.0543 11.4235 70.829 11.107 70.5273 10.875C70.229 10.643 69.8562 10.527 69.4087 10.527C68.9779 10.527 68.6133 10.638 68.315 10.8601C68.02 11.0821 67.7963 11.392 67.6438 11.7898C67.4914 12.1875 67.4151 12.6515 67.4151 13.1818ZM76.8251 17.169C76.3412 17.169 75.9037 17.0795 75.5126 16.9006C75.1215 16.7183 74.8116 16.4548 74.5829 16.1101C74.3575 15.7654 74.2449 15.3428 74.2449 14.8423C74.2449 14.4115 74.3277 14.0568 74.4934 13.7784C74.6592 13.5 74.8829 13.2796 75.1646 13.1172C75.4463 12.9548 75.7612 12.8321 76.1092 12.7493C76.4572 12.6664 76.8118 12.6035 77.1731 12.5604C77.6305 12.5073 78.0017 12.4643 78.2868 12.4311C78.5718 12.3946 78.7789 12.3366 78.9082 12.2571C79.0375 12.1776 79.1021 12.0483 79.1021 11.8693V11.8345C79.1021 11.4003 78.9795 11.0639 78.7342 10.8253C78.4922 10.5866 78.131 10.4673 77.6504 10.4673C77.1499 10.4673 76.7555 10.5784 76.4672 10.8004C76.1821 11.0192 75.9849 11.2628 75.8755 11.5312L74.4785 11.2131C74.6442 10.7491 74.8862 10.3745 75.2044 10.0895C75.5259 9.80114 75.8954 9.59233 76.313 9.46307C76.7306 9.33049 77.1698 9.2642 77.6305 9.2642C77.9354 9.2642 78.2586 9.30066 78.6 9.37358C78.9447 9.44318 79.2662 9.57244 79.5645 9.76136C79.8661 9.95028 80.113 10.2204 80.3052 10.5717C80.4975 10.9197 80.5936 11.3722 80.5936 11.929V17H79.1419V15.956H79.0822C78.9861 16.1482 78.8419 16.3371 78.6497 16.5227C78.4574 16.7083 78.2105 16.8625 77.9089 16.9851C77.6073 17.1077 77.246 17.169 76.8251 17.169ZM77.1483 15.9759C77.5592 15.9759 77.9106 15.8946 78.2022 15.7322C78.4972 15.5698 78.7209 15.3577 78.8734 15.0959C79.0292 14.8307 79.1071 14.5473 79.1071 14.2457V13.2614C79.054 13.3144 78.9513 13.3641 78.7988 13.4105C78.6497 13.4536 78.479 13.4917 78.2868 13.5249C78.0945 13.5547 77.9073 13.5829 77.725 13.6094C77.5427 13.6326 77.3902 13.6525 77.2676 13.669C76.9792 13.7055 76.7157 13.7668 76.4771 13.853C76.2418 13.9392 76.0529 14.0634 75.9103 14.2259C75.7711 14.3849 75.7015 14.5971 75.7015 14.8622C75.7015 15.2301 75.8374 15.5085 76.1092 15.6974C76.381 15.883 76.7273 15.9759 77.1483 15.9759ZM85.7901 17.1541C85.051 17.1541 84.4147 16.9867 83.881 16.652C83.3507 16.3139 82.9431 15.8482 82.658 15.255C82.373 14.6617 82.2305 13.9822 82.2305 13.2166C82.2305 12.4411 82.3763 11.7566 82.668 11.1634C82.9596 10.5668 83.3706 10.1011 83.9009 9.76633C84.4312 9.43158 85.056 9.2642 85.7752 9.2642C86.3552 9.2642 86.8723 9.37192 87.3263 9.58736C87.7804 9.79948 88.1467 10.0978 88.4251 10.4822C88.7068 10.8667 88.8742 11.3158 88.9272 11.8295H87.4805C87.4009 11.4716 87.2186 11.1634 86.9336 10.9048C86.6519 10.6463 86.274 10.517 85.8001 10.517C85.3858 10.517 85.0228 10.6264 84.7113 10.8452C84.4031 11.0606 84.1628 11.3688 83.9904 11.7699C83.8181 12.1676 83.7319 12.6383 83.7319 13.1818C83.7319 13.7386 83.8164 14.2192 83.9854 14.6236C84.1545 15.0279 84.3931 15.3411 84.7013 15.5632C85.0129 15.7853 85.3791 15.8963 85.8001 15.8963C86.0818 15.8963 86.337 15.8449 86.5657 15.7422C86.7977 15.6361 86.9916 15.4853 87.1474 15.2898C87.3065 15.0942 87.4175 14.8589 87.4805 14.5838H88.9272C88.8742 15.0777 88.7134 15.5185 88.445 15.9062C88.1765 16.294 87.8169 16.599 87.3661 16.821C86.9187 17.0431 86.3933 17.1541 85.7901 17.1541ZM91.8841 14.4098L91.8741 12.5952H92.1326L95.1752 9.36364H96.9551L93.4849 13.0426H93.2512L91.8841 14.4098ZM90.5169 17V6.81818H92.0034V17H90.5169ZM95.3393 17L92.6049 13.3707L93.6291 12.3317L97.1639 17H95.3393Z" fill="#4B5563"/>
<path d="M33.1186 17V6.81818H39.4325V8.14062H34.6548V11.2429H38.9801V12.5604H34.6548V17H33.1186ZM43.9331 17.1541C43.1807 17.1541 42.5327 16.9934 41.9892 16.6719C41.4489 16.3471 41.0313 15.8913 40.7363 15.3047C40.4447 14.7147 40.2988 14.0237 40.2988 13.2315C40.2988 12.4493 40.4447 11.7599 40.7363 11.1634C41.0313 10.5668 41.4423 10.1011 41.9693 9.76633C42.4996 9.43158 43.1194 9.2642 43.8287 9.2642C44.2595 9.2642 44.6771 9.33546 45.0815 9.47798C45.4859 9.6205 45.8488 9.84422 46.1703 10.1491C46.4918 10.4541 46.7453 10.8501 46.9309 11.3374C47.1165 11.8213 47.2093 12.4096 47.2093 13.1023V13.6293H41.139V12.5156H45.7527C45.7527 12.1245 45.6731 11.7782 45.514 11.4766C45.3549 11.1716 45.1312 10.9313 44.8429 10.7557C44.5578 10.58 44.2231 10.4922 43.8386 10.4922C43.421 10.4922 43.0564 10.5949 42.7449 10.8004C42.4366 11.0026 42.198 11.2678 42.0289 11.5959C41.8632 11.9207 41.7804 12.2737 41.7804 12.6548V13.5249C41.7804 14.0353 41.8699 14.4695 42.0488 14.8274C42.2311 15.1854 42.4847 15.4588 42.8095 15.6477C43.1343 15.8333 43.5138 15.9261 43.948 15.9261C44.2297 15.9261 44.4866 15.8864 44.7186 15.8068C44.9506 15.724 45.1511 15.6013 45.3201 15.4389C45.4892 15.2765 45.6184 15.076 45.7079 14.8374L47.1149 15.0909C47.0022 15.5052 46.8 15.8681 46.5083 16.1797C46.22 16.4879 45.8571 16.7282 45.4196 16.9006C44.9854 17.0696 44.4899 17.1541 43.9331 17.1541ZM52.1499 17.1541C51.3975 17.1541 50.7495 16.9934 50.206 16.6719C49.6657 16.3471 49.2481 15.8913 48.9531 15.3047C48.6615 14.7147 48.5156 14.0237 48.5156 13.2315C48.5156 12.4493 48.6615 11.7599 48.9531 11.1634C49.2481 10.5668 49.6591 10.1011 50.1861 9.76633C50.7164 9.43158 51.3362 9.2642 52.0455 9.2642C52.4763 9.2642 52.8939 9.33546 53.2983 9.47798C53.7027 9.6205 54.0656 9.84422 54.3871 10.1491C54.7086 10.4541 54.9621 10.8501 55.1477 11.3374C55.3333 11.8213 55.4261 12.4096 55.4261 13.1023V13.6293H49.3558V12.5156H53.9695C53.9695 12.1245 53.8899 11.7782 53.7308 11.4766C53.5717 11.1716 53.348 10.9313 53.0597 10.7557C52.7746 10.58 52.4399 10.4922 52.0554 10.4922C51.6378 10.4922 51.2732 10.5949 50.9616 10.8004C50.6534 11.0026 50.4148 11.2678 50.2457 11.5959C50.08 11.9207 49.9972 12.2737 49.9972 12.6548V13.5249C49.9972 14.0353 50.0866 14.4695 50.2656 14.8274C50.4479 15.1854 50.7015 15.4588 51.0263 15.6477C51.3511 15.8333 51.7306 15.9261 52.1648 15.9261C52.4465 15.9261 52.7034 15.8864 52.9354 15.8068C53.1674 15.724 53.3679 15.6013 53.5369 15.4389C53.706 15.2765 53.8352 15.076 53.9247 14.8374L55.3317 15.0909C55.219 15.5052 55.0168 15.8681 54.7251 16.1797C54.4368 16.4879 54.0739 16.7282 53.6364 16.9006C53.2022 17.0696 52.7067 17.1541 52.1499 17.1541ZM59.9341 17.1491C59.3176 17.1491 58.7675 16.9917 58.2836 16.6768C57.803 16.3587 57.4251 15.9062 57.15 15.3196C56.8783 14.7296 56.7424 14.022 56.7424 13.1967C56.7424 12.3714 56.8799 11.6655 57.155 11.0788C57.4334 10.4922 57.8146 10.0431 58.2985 9.73153C58.7824 9.41998 59.3309 9.2642 59.9441 9.2642C60.418 9.2642 60.7992 9.34375 61.0875 9.50284C61.3792 9.65862 61.6046 9.84091 61.7637 10.0497C61.9261 10.2585 62.052 10.4425 62.1415 10.6016H62.231V6.81818H63.7175V17H62.2658V15.8118H62.1415C62.052 15.9742 61.9228 16.1598 61.7537 16.3686C61.588 16.5774 61.3593 16.7597 61.0676 16.9155C60.776 17.0713 60.3981 17.1491 59.9341 17.1491ZM60.2623 15.8814C60.6898 15.8814 61.0511 15.7687 61.3461 15.5433C61.6444 15.3146 61.8697 14.9981 62.0222 14.5938C62.178 14.1894 62.2559 13.7187 62.2559 13.1818C62.2559 12.6515 62.1796 12.1875 62.0272 11.7898C61.8747 11.392 61.651 11.0821 61.356 10.8601C61.061 10.638 60.6964 10.527 60.2623 10.527C59.8148 10.527 59.4419 10.643 59.1436 10.875C58.8453 11.107 58.62 11.4235 58.4675 11.8246C58.3184 12.2256 58.2438 12.678 58.2438 13.1818C58.2438 13.6922 58.32 14.1513 58.4725 14.5589C58.6249 14.9666 58.8503 15.2898 59.1486 15.5284C59.4502 15.7637 59.8214 15.8814 60.2623 15.8814ZM65.9585 17V6.81818H67.445V10.6016H67.5344C67.6206 10.4425 67.7449 10.2585 67.9073 10.0497C68.0697 9.84091 68.2951 9.65862 68.5835 9.50284C68.8718 9.34375 69.253 9.2642 69.7269 9.2642C70.3434 9.2642 70.8936 9.41998 71.3775 9.73153C71.8614 10.0431 72.2409 10.4922 72.516 11.0788C72.7944 11.6655 72.9336 12.3714 72.9336 13.1967C72.9336 14.022 72.796 14.7296 72.521 15.3196C72.2459 15.9062 71.868 16.3587 71.3874 16.6768C70.9068 16.9917 70.3583 17.1491 69.7418 17.1491C69.2778 17.1491 68.8983 17.0713 68.6033 16.9155C68.3117 16.7597 68.083 16.5774 67.9173 16.3686C67.7515 16.1598 67.6239 15.9742 67.5344 15.8118H67.4102V17H65.9585ZM67.4151 13.1818C67.4151 13.7187 67.493 14.1894 67.6488 14.5938C67.8046 14.9981 68.0299 15.3146 68.3249 15.5433C68.6199 15.7687 68.9812 15.8814 69.4087 15.8814C69.8529 15.8814 70.2241 15.7637 70.5224 15.5284C70.8207 15.2898 71.046 14.9666 71.1985 14.5589C71.3543 14.1513 71.4322 13.6922 71.4322 13.1818C71.4322 12.678 71.3559 12.2256 71.2035 11.8246C71.0543 11.4235 70.829 11.107 70.5273 10.875C70.229 10.643 69.8562 10.527 69.4087 10.527C68.9779 10.527 68.6133 10.638 68.315 10.8601C68.02 11.0821 67.7963 11.392 67.6438 11.7898C67.4914 12.1875 67.4151 12.6515 67.4151 13.1818ZM76.8251 17.169C76.3412 17.169 75.9037 17.0795 75.5126 16.9006C75.1215 16.7183 74.8116 16.4548 74.5829 16.1101C74.3575 15.7654 74.2449 15.3428 74.2449 14.8423C74.2449 14.4115 74.3277 14.0568 74.4934 13.7784C74.6592 13.5 74.8829 13.2796 75.1646 13.1172C75.4463 12.9548 75.7612 12.8321 76.1092 12.7493C76.4572 12.6664 76.8118 12.6035 77.1731 12.5604C77.6305 12.5073 78.0017 12.4643 78.2868 12.4311C78.5718 12.3946 78.7789 12.3366 78.9082 12.2571C79.0375 12.1776 79.1021 12.0483 79.1021 11.8693V11.8345C79.1021 11.4003 78.9795 11.0639 78.7342 10.8253C78.4922 10.5866 78.131 10.4673 77.6504 10.4673C77.1499 10.4673 76.7555 10.5784 76.4672 10.8004C76.1821 11.0192 75.9849 11.2628 75.8755 11.5312L74.4785 11.2131C74.6442 10.7491 74.8862 10.3745 75.2044 10.0895C75.5259 9.80114 75.8954 9.59233 76.313 9.46307C76.7306 9.33049 77.1698 9.2642 77.6305 9.2642C77.9354 9.2642 78.2586 9.30066 78.6 9.37358C78.9447 9.44318 79.2662 9.57244 79.5645 9.76136C79.8661 9.95028 80.113 10.2204 80.3052 10.5717C80.4975 10.9197 80.5936 11.3722 80.5936 11.929V17H79.1419V15.956H79.0822C78.9861 16.1482 78.8419 16.3371 78.6497 16.5227C78.4574 16.7083 78.2105 16.8625 77.9089 16.9851C77.6073 17.1077 77.246 17.169 76.8251 17.169ZM77.1483 15.9759C77.5592 15.9759 77.9106 15.8946 78.2022 15.7322C78.4972 15.5698 78.7209 15.3577 78.8734 15.0959C79.0292 14.8307 79.1071 14.5473 79.1071 14.2457V13.2614C79.054 13.3144 78.9513 13.3641 78.7988 13.4105C78.6497 13.4536 78.479 13.4917 78.2868 13.5249C78.0945 13.5547 77.9073 13.5829 77.725 13.6094C77.5427 13.6326 77.3902 13.6525 77.2676 13.669C76.9792 13.7055 76.7157 13.7668 76.4771 13.853C76.2418 13.9392 76.0529 14.0634 75.9103 14.2259C75.7711 14.3849 75.7015 14.5971 75.7015 14.8622C75.7015 15.2301 75.8374 15.5085 76.1092 15.6974C76.381 15.883 76.7273 15.9759 77.1483 15.9759ZM85.7901 17.1541C85.051 17.1541 84.4147 16.9867 83.881 16.652C83.3507 16.3139 82.9431 15.8482 82.658 15.255C82.373 14.6617 82.2305 13.9822 82.2305 13.2166C82.2305 12.4411 82.3763 11.7566 82.668 11.1634C82.9596 10.5668 83.3706 10.1011 83.9009 9.76633C84.4312 9.43158 85.056 9.2642 85.7752 9.2642C86.3552 9.2642 86.8723 9.37192 87.3263 9.58736C87.7804 9.79948 88.1467 10.0978 88.4251 10.4822C88.7068 10.8667 88.8742 11.3158 88.9272 11.8295H87.4805C87.4009 11.4716 87.2186 11.1634 86.9336 10.9048C86.6519 10.6463 86.274 10.517 85.8001 10.517C85.3858 10.517 85.0228 10.6264 84.7113 10.8452C84.4031 11.0606 84.1628 11.3688 83.9904 11.7699C83.8181 12.1676 83.7319 12.6383 83.7319 13.1818C83.7319 13.7386 83.8164 14.2192 83.9854 14.6236C84.1545 15.0279 84.3931 15.3411 84.7013 15.5632C85.0129 15.7853 85.3791 15.8963 85.8001 15.8963C86.0818 15.8963 86.337 15.8449 86.5657 15.7422C86.7977 15.6361 86.9916 15.4853 87.1474 15.2898C87.3065 15.0942 87.4175 14.8589 87.4805 14.5838H88.9272C88.8742 15.0777 88.7134 15.5185 88.445 15.9062C88.1765 16.294 87.8169 16.599 87.3661 16.821C86.9187 17.0431 86.3933 17.1541 85.7901 17.1541ZM91.8841 14.4098L91.8741 12.5952H92.1326L95.1752 9.36364H96.9551L93.4849 13.0426H93.2512L91.8841 14.4098ZM90.5169 17V6.81818H92.0034V17H90.5169ZM95.3393 17L92.6049 13.3707L93.6291 12.3317L97.1639 17H95.3393Z" fill="black" fill-opacity="0.2"/>
<path d="M33.1186 17V6.81818H39.4325V8.14062H34.6548V11.2429H38.9801V12.5604H34.6548V17H33.1186ZM43.9331 17.1541C43.1807 17.1541 42.5327 16.9934 41.9892 16.6719C41.4489 16.3471 41.0313 15.8913 40.7363 15.3047C40.4447 14.7147 40.2988 14.0237 40.2988 13.2315C40.2988 12.4493 40.4447 11.7599 40.7363 11.1634C41.0313 10.5668 41.4423 10.1011 41.9693 9.76633C42.4996 9.43158 43.1194 9.2642 43.8287 9.2642C44.2595 9.2642 44.6771 9.33546 45.0815 9.47798C45.4859 9.6205 45.8488 9.84422 46.1703 10.1491C46.4918 10.4541 46.7453 10.8501 46.9309 11.3374C47.1165 11.8213 47.2093 12.4096 47.2093 13.1023V13.6293H41.139V12.5156H45.7527C45.7527 12.1245 45.6731 11.7782 45.514 11.4766C45.3549 11.1716 45.1312 10.9313 44.8429 10.7557C44.5578 10.58 44.2231 10.4922 43.8386 10.4922C43.421 10.4922 43.0564 10.5949 42.7449 10.8004C42.4366 11.0026 42.198 11.2678 42.0289 11.5959C41.8632 11.9207 41.7804 12.2737 41.7804 12.6548V13.5249C41.7804 14.0353 41.8699 14.4695 42.0488 14.8274C42.2311 15.1854 42.4847 15.4588 42.8095 15.6477C43.1343 15.8333 43.5138 15.9261 43.948 15.9261C44.2297 15.9261 44.4866 15.8864 44.7186 15.8068C44.9506 15.724 45.1511 15.6013 45.3201 15.4389C45.4892 15.2765 45.6184 15.076 45.7079 14.8374L47.1149 15.0909C47.0022 15.5052 46.8 15.8681 46.5083 16.1797C46.22 16.4879 45.8571 16.7282 45.4196 16.9006C44.9854 17.0696 44.4899 17.1541 43.9331 17.1541ZM52.1499 17.1541C51.3975 17.1541 50.7495 16.9934 50.206 16.6719C49.6657 16.3471 49.2481 15.8913 48.9531 15.3047C48.6615 14.7147 48.5156 14.0237 48.5156 13.2315C48.5156 12.4493 48.6615 11.7599 48.9531 11.1634C49.2481 10.5668 49.6591 10.1011 50.1861 9.76633C50.7164 9.43158 51.3362 9.2642 52.0455 9.2642C52.4763 9.2642 52.8939 9.33546 53.2983 9.47798C53.7027 9.6205 54.0656 9.84422 54.3871 10.1491C54.7086 10.4541 54.9621 10.8501 55.1477 11.3374C55.3333 11.8213 55.4261 12.4096 55.4261 13.1023V13.6293H49.3558V12.5156H53.9695C53.9695 12.1245 53.8899 11.7782 53.7308 11.4766C53.5717 11.1716 53.348 10.9313 53.0597 10.7557C52.7746 10.58 52.4399 10.4922 52.0554 10.4922C51.6378 10.4922 51.2732 10.5949 50.9616 10.8004C50.6534 11.0026 50.4148 11.2678 50.2457 11.5959C50.08 11.9207 49.9972 12.2737 49.9972 12.6548V13.5249C49.9972 14.0353 50.0866 14.4695 50.2656 14.8274C50.4479 15.1854 50.7015 15.4588 51.0263 15.6477C51.3511 15.8333 51.7306 15.9261 52.1648 15.9261C52.4465 15.9261 52.7034 15.8864 52.9354 15.8068C53.1674 15.724 53.3679 15.6013 53.5369 15.4389C53.706 15.2765 53.8352 15.076 53.9247 14.8374L55.3317 15.0909C55.219 15.5052 55.0168 15.8681 54.7251 16.1797C54.4368 16.4879 54.0739 16.7282 53.6364 16.9006C53.2022 17.0696 52.7067 17.1541 52.1499 17.1541ZM59.9341 17.1491C59.3176 17.1491 58.7675 16.9917 58.2836 16.6768C57.803 16.3587 57.4251 15.9062 57.15 15.3196C56.8783 14.7296 56.7424 14.022 56.7424 13.1967C56.7424 12.3714 56.8799 11.6655 57.155 11.0788C57.4334 10.4922 57.8146 10.0431 58.2985 9.73153C58.7824 9.41998 59.3309 9.2642 59.9441 9.2642C60.418 9.2642 60.7992 9.34375 61.0875 9.50284C61.3792 9.65862 61.6046 9.84091 61.7637 10.0497C61.9261 10.2585 62.052 10.4425 62.1415 10.6016H62.231V6.81818H63.7175V17H62.2658V15.8118H62.1415C62.052 15.9742 61.9228 16.1598 61.7537 16.3686C61.588 16.5774 61.3593 16.7597 61.0676 16.9155C60.776 17.0713 60.3981 17.1491 59.9341 17.1491ZM60.2623 15.8814C60.6898 15.8814 61.0511 15.7687 61.3461 15.5433C61.6444 15.3146 61.8697 14.9981 62.0222 14.5938C62.178 14.1894 62.2559 13.7187 62.2559 13.1818C62.2559 12.6515 62.1796 12.1875 62.0272 11.7898C61.8747 11.392 61.651 11.0821 61.356 10.8601C61.061 10.638 60.6964 10.527 60.2623 10.527C59.8148 10.527 59.4419 10.643 59.1436 10.875C58.8453 11.107 58.62 11.4235 58.4675 11.8246C58.3184 12.2256 58.2438 12.678 58.2438 13.1818C58.2438 13.6922 58.32 14.1513 58.4725 14.5589C58.6249 14.9666 58.8503 15.2898 59.1486 15.5284C59.4502 15.7637 59.8214 15.8814 60.2623 15.8814ZM65.9585 17V6.81818H67.445V10.6016H67.5344C67.6206 10.4425 67.7449 10.2585 67.9073 10.0497C68.0697 9.84091 68.2951 9.65862 68.5835 9.50284C68.8718 9.34375 69.253 9.2642 69.7269 9.2642C70.3434 9.2642 70.8936 9.41998 71.3775 9.73153C71.8614 10.0431 72.2409 10.4922 72.516 11.0788C72.7944 11.6655 72.9336 12.3714 72.9336 13.1967C72.9336 14.022 72.796 14.7296 72.521 15.3196C72.2459 15.9062 71.868 16.3587 71.3874 16.6768C70.9068 16.9917 70.3583 17.1491 69.7418 17.1491C69.2778 17.1491 68.8983 17.0713 68.6033 16.9155C68.3117 16.7597 68.083 16.5774 67.9173 16.3686C67.7515 16.1598 67.6239 15.9742 67.5344 15.8118H67.4102V17H65.9585ZM67.4151 13.1818C67.4151 13.7187 67.493 14.1894 67.6488 14.5938C67.8046 14.9981 68.0299 15.3146 68.3249 15.5433C68.6199 15.7687 68.9812 15.8814 69.4087 15.8814C69.8529 15.8814 70.2241 15.7637 70.5224 15.5284C70.8207 15.2898 71.046 14.9666 71.1985 14.5589C71.3543 14.1513 71.4322 13.6922 71.4322 13.1818C71.4322 12.678 71.3559 12.2256 71.2035 11.8246C71.0543 11.4235 70.829 11.107 70.5273 10.875C70.229 10.643 69.8562 10.527 69.4087 10.527C68.9779 10.527 68.6133 10.638 68.315 10.8601C68.02 11.0821 67.7963 11.392 67.6438 11.7898C67.4914 12.1875 67.4151 12.6515 67.4151 13.1818ZM76.8251 17.169C76.3412 17.169 75.9037 17.0795 75.5126 16.9006C75.1215 16.7183 74.8116 16.4548 74.5829 16.1101C74.3575 15.7654 74.2449 15.3428 74.2449 14.8423C74.2449 14.4115 74.3277 14.0568 74.4934 13.7784C74.6592 13.5 74.8829 13.2796 75.1646 13.1172C75.4463 12.9548 75.7612 12.8321 76.1092 12.7493C76.4572 12.6664 76.8118 12.6035 77.1731 12.5604C77.6305 12.5073 78.0017 12.4643 78.2868 12.4311C78.5718 12.3946 78.7789 12.3366 78.9082 12.2571C79.0375 12.1776 79.1021 12.0483 79.1021 11.8693V11.8345C79.1021 11.4003 78.9795 11.0639 78.7342 10.8253C78.4922 10.5866 78.131 10.4673 77.6504 10.4673C77.1499 10.4673 76.7555 10.5784 76.4672 10.8004C76.1821 11.0192 75.9849 11.2628 75.8755 11.5312L74.4785 11.2131C74.6442 10.7491 74.8862 10.3745 75.2044 10.0895C75.5259 9.80114 75.8954 9.59233 76.313 9.46307C76.7306 9.33049 77.1698 9.2642 77.6305 9.2642C77.9354 9.2642 78.2586 9.30066 78.6 9.37358C78.9447 9.44318 79.2662 9.57244 79.5645 9.76136C79.8661 9.95028 80.113 10.2204 80.3052 10.5717C80.4975 10.9197 80.5936 11.3722 80.5936 11.929V17H79.1419V15.956H79.0822C78.9861 16.1482 78.8419 16.3371 78.6497 16.5227C78.4574 16.7083 78.2105 16.8625 77.9089 16.9851C77.6073 17.1077 77.246 17.169 76.8251 17.169ZM77.1483 15.9759C77.5592 15.9759 77.9106 15.8946 78.2022 15.7322C78.4972 15.5698 78.7209 15.3577 78.8734 15.0959C79.0292 14.8307 79.1071 14.5473 79.1071 14.2457V13.2614C79.054 13.3144 78.9513 13.3641 78.7988 13.4105C78.6497 13.4536 78.479 13.4917 78.2868 13.5249C78.0945 13.5547 77.9073 13.5829 77.725 13.6094C77.5427 13.6326 77.3902 13.6525 77.2676 13.669C76.9792 13.7055 76.7157 13.7668 76.4771 13.853C76.2418 13.9392 76.0529 14.0634 75.9103 14.2259C75.7711 14.3849 75.7015 14.5971 75.7015 14.8622C75.7015 15.2301 75.8374 15.5085 76.1092 15.6974C76.381 15.883 76.7273 15.9759 77.1483 15.9759ZM85.7901 17.1541C85.051 17.1541 84.4147 16.9867 83.881 16.652C83.3507 16.3139 82.9431 15.8482 82.658 15.255C82.373 14.6617 82.2305 13.9822 82.2305 13.2166C82.2305 12.4411 82.3763 11.7566 82.668 11.1634C82.9596 10.5668 83.3706 10.1011 83.9009 9.76633C84.4312 9.43158 85.056 9.2642 85.7752 9.2642C86.3552 9.2642 86.8723 9.37192 87.3263 9.58736C87.7804 9.79948 88.1467 10.0978 88.4251 10.4822C88.7068 10.8667 88.8742 11.3158 88.9272 11.8295H87.4805C87.4009 11.4716 87.2186 11.1634 86.9336 10.9048C86.6519 10.6463 86.274 10.517 85.8001 10.517C85.3858 10.517 85.0228 10.6264 84.7113 10.8452C84.4031 11.0606 84.1628 11.3688 83.9904 11.7699C83.8181 12.1676 83.7319 12.6383 83.7319 13.1818C83.7319 13.7386 83.8164 14.2192 83.9854 14.6236C84.1545 15.0279 84.3931 15.3411 84.7013 15.5632C85.0129 15.7853 85.3791 15.8963 85.8001 15.8963C86.0818 15.8963 86.337 15.8449 86.5657 15.7422C86.7977 15.6361 86.9916 15.4853 87.1474 15.2898C87.3065 15.0942 87.4175 14.8589 87.4805 14.5838H88.9272C88.8742 15.0777 88.7134 15.5185 88.445 15.9062C88.1765 16.294 87.8169 16.599 87.3661 16.821C86.9187 17.0431 86.3933 17.1541 85.7901 17.1541ZM91.8841 14.4098L91.8741 12.5952H92.1326L95.1752 9.36364H96.9551L93.4849 13.0426H93.2512L91.8841 14.4098ZM90.5169 17V6.81818H92.0034V17H90.5169ZM95.3393 17L92.6049 13.3707L93.6291 12.3317L97.1639 17H95.3393Z" fill="black" fill-opacity="0.2"/>
<path d="M33.1186 17V6.81818H39.4325V8.14062H34.6548V11.2429H38.9801V12.5604H34.6548V17H33.1186ZM43.9331 17.1541C43.1807 17.1541 42.5327 16.9934 41.9892 16.6719C41.4489 16.3471 41.0313 15.8913 40.7363 15.3047C40.4447 14.7147 40.2988 14.0237 40.2988 13.2315C40.2988 12.4493 40.4447 11.7599 40.7363 11.1634C41.0313 10.5668 41.4423 10.1011 41.9693 9.76633C42.4996 9.43158 43.1194 9.2642 43.8287 9.2642C44.2595 9.2642 44.6771 9.33546 45.0815 9.47798C45.4859 9.6205 45.8488 9.84422 46.1703 10.1491C46.4918 10.4541 46.7453 10.8501 46.9309 11.3374C47.1165 11.8213 47.2093 12.4096 47.2093 13.1023V13.6293H41.139V12.5156H45.7527C45.7527 12.1245 45.6731 11.7782 45.514 11.4766C45.3549 11.1716 45.1312 10.9313 44.8429 10.7557C44.5578 10.58 44.2231 10.4922 43.8386 10.4922C43.421 10.4922 43.0564 10.5949 42.7449 10.8004C42.4366 11.0026 42.198 11.2678 42.0289 11.5959C41.8632 11.9207 41.7804 12.2737 41.7804 12.6548V13.5249C41.7804 14.0353 41.8699 14.4695 42.0488 14.8274C42.2311 15.1854 42.4847 15.4588 42.8095 15.6477C43.1343 15.8333 43.5138 15.9261 43.948 15.9261C44.2297 15.9261 44.4866 15.8864 44.7186 15.8068C44.9506 15.724 45.1511 15.6013 45.3201 15.4389C45.4892 15.2765 45.6184 15.076 45.7079 14.8374L47.1149 15.0909C47.0022 15.5052 46.8 15.8681 46.5083 16.1797C46.22 16.4879 45.8571 16.7282 45.4196 16.9006C44.9854 17.0696 44.4899 17.1541 43.9331 17.1541ZM52.1499 17.1541C51.3975 17.1541 50.7495 16.9934 50.206 16.6719C49.6657 16.3471 49.2481 15.8913 48.9531 15.3047C48.6615 14.7147 48.5156 14.0237 48.5156 13.2315C48.5156 12.4493 48.6615 11.7599 48.9531 11.1634C49.2481 10.5668 49.6591 10.1011 50.1861 9.76633C50.7164 9.43158 51.3362 9.2642 52.0455 9.2642C52.4763 9.2642 52.8939 9.33546 53.2983 9.47798C53.7027 9.6205 54.0656 9.84422 54.3871 10.1491C54.7086 10.4541 54.9621 10.8501 55.1477 11.3374C55.3333 11.8213 55.4261 12.4096 55.4261 13.1023V13.6293H49.3558V12.5156H53.9695C53.9695 12.1245 53.8899 11.7782 53.7308 11.4766C53.5717 11.1716 53.348 10.9313 53.0597 10.7557C52.7746 10.58 52.4399 10.4922 52.0554 10.4922C51.6378 10.4922 51.2732 10.5949 50.9616 10.8004C50.6534 11.0026 50.4148 11.2678 50.2457 11.5959C50.08 11.9207 49.9972 12.2737 49.9972 12.6548V13.5249C49.9972 14.0353 50.0866 14.4695 50.2656 14.8274C50.4479 15.1854 50.7015 15.4588 51.0263 15.6477C51.3511 15.8333 51.7306 15.9261 52.1648 15.9261C52.4465 15.9261 52.7034 15.8864 52.9354 15.8068C53.1674 15.724 53.3679 15.6013 53.5369 15.4389C53.706 15.2765 53.8352 15.076 53.9247 14.8374L55.3317 15.0909C55.219 15.5052 55.0168 15.8681 54.7251 16.1797C54.4368 16.4879 54.0739 16.7282 53.6364 16.9006C53.2022 17.0696 52.7067 17.1541 52.1499 17.1541ZM59.9341 17.1491C59.3176 17.1491 58.7675 16.9917 58.2836 16.6768C57.803 16.3587 57.4251 15.9062 57.15 15.3196C56.8783 14.7296 56.7424 14.022 56.7424 13.1967C56.7424 12.3714 56.8799 11.6655 57.155 11.0788C57.4334 10.4922 57.8146 10.0431 58.2985 9.73153C58.7824 9.41998 59.3309 9.2642 59.9441 9.2642C60.418 9.2642 60.7992 9.34375 61.0875 9.50284C61.3792 9.65862 61.6046 9.84091 61.7637 10.0497C61.9261 10.2585 62.052 10.4425 62.1415 10.6016H62.231V6.81818H63.7175V17H62.2658V15.8118H62.1415C62.052 15.9742 61.9228 16.1598 61.7537 16.3686C61.588 16.5774 61.3593 16.7597 61.0676 16.9155C60.776 17.0713 60.3981 17.1491 59.9341 17.1491ZM60.2623 15.8814C60.6898 15.8814 61.0511 15.7687 61.3461 15.5433C61.6444 15.3146 61.8697 14.9981 62.0222 14.5938C62.178 14.1894 62.2559 13.7187 62.2559 13.1818C62.2559 12.6515 62.1796 12.1875 62.0272 11.7898C61.8747 11.392 61.651 11.0821 61.356 10.8601C61.061 10.638 60.6964 10.527 60.2623 10.527C59.8148 10.527 59.4419 10.643 59.1436 10.875C58.8453 11.107 58.62 11.4235 58.4675 11.8246C58.3184 12.2256 58.2438 12.678 58.2438 13.1818C58.2438 13.6922 58.32 14.1513 58.4725 14.5589C58.6249 14.9666 58.8503 15.2898 59.1486 15.5284C59.4502 15.7637 59.8214 15.8814 60.2623 15.8814ZM65.9585 17V6.81818H67.445V10.6016H67.5344C67.6206 10.4425 67.7449 10.2585 67.9073 10.0497C68.0697 9.84091 68.2951 9.65862 68.5835 9.50284C68.8718 9.34375 69.253 9.2642 69.7269 9.2642C70.3434 9.2642 70.8936 9.41998 71.3775 9.73153C71.8614 10.0431 72.2409 10.4922 72.516 11.0788C72.7944 11.6655 72.9336 12.3714 72.9336 13.1967C72.9336 14.022 72.796 14.7296 72.521 15.3196C72.2459 15.9062 71.868 16.3587 71.3874 16.6768C70.9068 16.9917 70.3583 17.1491 69.7418 17.1491C69.2778 17.1491 68.8983 17.0713 68.6033 16.9155C68.3117 16.7597 68.083 16.5774 67.9173 16.3686C67.7515 16.1598 67.6239 15.9742 67.5344 15.8118H67.4102V17H65.9585ZM67.4151 13.1818C67.4151 13.7187 67.493 14.1894 67.6488 14.5938C67.8046 14.9981 68.0299 15.3146 68.3249 15.5433C68.6199 15.7687 68.9812 15.8814 69.4087 15.8814C69.8529 15.8814 70.2241 15.7637 70.5224 15.5284C70.8207 15.2898 71.046 14.9666 71.1985 14.5589C71.3543 14.1513 71.4322 13.6922 71.4322 13.1818C71.4322 12.678 71.3559 12.2256 71.2035 11.8246C71.0543 11.4235 70.829 11.107 70.5273 10.875C70.229 10.643 69.8562 10.527 69.4087 10.527C68.9779 10.527 68.6133 10.638 68.315 10.8601C68.02 11.0821 67.7963 11.392 67.6438 11.7898C67.4914 12.1875 67.4151 12.6515 67.4151 13.1818ZM76.8251 17.169C76.3412 17.169 75.9037 17.0795 75.5126 16.9006C75.1215 16.7183 74.8116 16.4548 74.5829 16.1101C74.3575 15.7654 74.2449 15.3428 74.2449 14.8423C74.2449 14.4115 74.3277 14.0568 74.4934 13.7784C74.6592 13.5 74.8829 13.2796 75.1646 13.1172C75.4463 12.9548 75.7612 12.8321 76.1092 12.7493C76.4572 12.6664 76.8118 12.6035 77.1731 12.5604C77.6305 12.5073 78.0017 12.4643 78.2868 12.4311C78.5718 12.3946 78.7789 12.3366 78.9082 12.2571C79.0375 12.1776 79.1021 12.0483 79.1021 11.8693V11.8345C79.1021 11.4003 78.9795 11.0639 78.7342 10.8253C78.4922 10.5866 78.131 10.4673 77.6504 10.4673C77.1499 10.4673 76.7555 10.5784 76.4672 10.8004C76.1821 11.0192 75.9849 11.2628 75.8755 11.5312L74.4785 11.2131C74.6442 10.7491 74.8862 10.3745 75.2044 10.0895C75.5259 9.80114 75.8954 9.59233 76.313 9.46307C76.7306 9.33049 77.1698 9.2642 77.6305 9.2642C77.9354 9.2642 78.2586 9.30066 78.6 9.37358C78.9447 9.44318 79.2662 9.57244 79.5645 9.76136C79.8661 9.95028 80.113 10.2204 80.3052 10.5717C80.4975 10.9197 80.5936 11.3722 80.5936 11.929V17H79.1419V15.956H79.0822C78.9861 16.1482 78.8419 16.3371 78.6497 16.5227C78.4574 16.7083 78.2105 16.8625 77.9089 16.9851C77.6073 17.1077 77.246 17.169 76.8251 17.169ZM77.1483 15.9759C77.5592 15.9759 77.9106 15.8946 78.2022 15.7322C78.4972 15.5698 78.7209 15.3577 78.8734 15.0959C79.0292 14.8307 79.1071 14.5473 79.1071 14.2457V13.2614C79.054 13.3144 78.9513 13.3641 78.7988 13.4105C78.6497 13.4536 78.479 13.4917 78.2868 13.5249C78.0945 13.5547 77.9073 13.5829 77.725 13.6094C77.5427 13.6326 77.3902 13.6525 77.2676 13.669C76.9792 13.7055 76.7157 13.7668 76.4771 13.853C76.2418 13.9392 76.0529 14.0634 75.9103 14.2259C75.7711 14.3849 75.7015 14.5971 75.7015 14.8622C75.7015 15.2301 75.8374 15.5085 76.1092 15.6974C76.381 15.883 76.7273 15.9759 77.1483 15.9759ZM85.7901 17.1541C85.051 17.1541 84.4147 16.9867 83.881 16.652C83.3507 16.3139 82.9431 15.8482 82.658 15.255C82.373 14.6617 82.2305 13.9822 82.2305 13.2166C82.2305 12.4411 82.3763 11.7566 82.668 11.1634C82.9596 10.5668 83.3706 10.1011 83.9009 9.76633C84.4312 9.43158 85.056 9.2642 85.7752 9.2642C86.3552 9.2642 86.8723 9.37192 87.3263 9.58736C87.7804 9.79948 88.1467 10.0978 88.4251 10.4822C88.7068 10.8667 88.8742 11.3158 88.9272 11.8295H87.4805C87.4009 11.4716 87.2186 11.1634 86.9336 10.9048C86.6519 10.6463 86.274 10.517 85.8001 10.517C85.3858 10.517 85.0228 10.6264 84.7113 10.8452C84.4031 11.0606 84.1628 11.3688 83.9904 11.7699C83.8181 12.1676 83.7319 12.6383 83.7319 13.1818C83.7319 13.7386 83.8164 14.2192 83.9854 14.6236C84.1545 15.0279 84.3931 15.3411 84.7013 15.5632C85.0129 15.7853 85.3791 15.8963 85.8001 15.8963C86.0818 15.8963 86.337 15.8449 86.5657 15.7422C86.7977 15.6361 86.9916 15.4853 87.1474 15.2898C87.3065 15.0942 87.4175 14.8589 87.4805 14.5838H88.9272C88.8742 15.0777 88.7134 15.5185 88.445 15.9062C88.1765 16.294 87.8169 16.599 87.3661 16.821C86.9187 17.0431 86.3933 17.1541 85.7901 17.1541ZM91.8841 14.4098L91.8741 12.5952H92.1326L95.1752 9.36364H96.9551L93.4849 13.0426H93.2512L91.8841 14.4098ZM90.5169 17V6.81818H92.0034V17H90.5169ZM95.3393 17L92.6049 13.3707L93.6291 12.3317L97.1639 17H95.3393Z" fill="black" fill-opacity="0.2"/>
</svg>
