<svg width="63" height="24" viewBox="0 0 63 24" fill="none" xmlns="http://www.w3.org/2000/svg">
<path d="M11.9989 16.7999V16.8421M9.5999 9.04523C9.5999 7.69471 10.6744 6.5999 11.9999 6.5999C13.3254 6.5999 14.3999 7.69471 14.3999 9.04523C14.3999 10.3957 13.3254 11.4906 11.9999 11.4906C11.9999 11.4906 11.9989 12.2204 11.9989 13.1208M21.5999 11.9999C21.5999 17.3018 17.3018 21.5999 11.9999 21.5999C6.69797 21.5999 2.3999 17.3018 2.3999 11.9999C2.3999 6.69797 6.69797 2.3999 11.9999 2.3999C17.3018 2.3999 21.5999 6.69797 21.5999 11.9999Z" stroke="#4B5563" stroke-width="1.5" stroke-linecap="round" stroke-linejoin="round"/>
<path d="M11.9989 16.7999V16.8421M9.5999 9.04523C9.5999 7.69471 10.6744 6.5999 11.9999 6.5999C13.3254 6.5999 14.3999 7.69471 14.3999 9.04523C14.3999 10.3957 13.3254 11.4906 11.9999 11.4906C11.9999 11.4906 11.9989 12.2204 11.9989 13.1208M21.5999 11.9999C21.5999 17.3018 17.3018 21.5999 11.9999 21.5999C6.69797 21.5999 2.3999 17.3018 2.3999 11.9999C2.3999 6.69797 6.69797 2.3999 11.9999 2.3999C17.3018 2.3999 21.5999 6.69797 21.5999 11.9999Z" stroke="black" stroke-opacity="0.2" stroke-width="1.5" stroke-linecap="round" stroke-linejoin="round"/>
<path d="M11.9989 16.7999V16.8421M9.5999 9.04523C9.5999 7.69471 10.6744 6.5999 11.9999 6.5999C13.3254 6.5999 14.3999 7.69471 14.3999 9.04523C14.3999 10.3957 13.3254 11.4906 11.9999 11.4906C11.9999 11.4906 11.9989 12.2204 11.9989 13.1208M21.5999 11.9999C21.5999 17.3018 17.3018 21.5999 11.9999 21.5999C6.69797 21.5999 2.3999 17.3018 2.3999 11.9999C2.3999 6.69797 6.69797 2.3999 11.9999 2.3999C17.3018 2.3999 21.5999 6.69797 21.5999 11.9999Z" stroke="black" stroke-opacity="0.2" stroke-width="1.5" stroke-linecap="round" stroke-linejoin="round"/>
<path d="M11.9989 16.7999V16.8421M9.5999 9.04523C9.5999 7.69471 10.6744 6.5999 11.9999 6.5999C13.3254 6.5999 14.3999 7.69471 14.3999 9.04523C14.3999 10.3957 13.3254 11.4906 11.9999 11.4906C11.9999 11.4906 11.9989 12.2204 11.9989 13.1208M21.5999 11.9999C21.5999 17.3018 17.3018 21.5999 11.9999 21.5999C6.69797 21.5999 2.3999 17.3018 2.3999 11.9999C2.3999 6.69797 6.69797 2.3999 11.9999 2.3999C17.3018 2.3999 21.5999 6.69797 21.5999 11.9999Z" stroke="black" stroke-opacity="0.2" stroke-width="1.5" stroke-linecap="round" stroke-linejoin="round"/>
<path d="M33.1186 17V6.81818H34.6548V11.2429H39.7308V6.81818H41.272V17H39.7308V12.5604H34.6548V17H33.1186ZM46.6811 17.1541C45.9287 17.1541 45.2808 16.9934 44.7372 16.6719C44.197 16.3471 43.7794 15.8913 43.4844 15.3047C43.1927 14.7147 43.0469 14.0237 43.0469 13.2315C43.0469 12.4493 43.1927 11.7599 43.4844 11.1634C43.7794 10.5668 44.1903 10.1011 44.7173 9.76633C45.2476 9.43158 45.8674 9.2642 46.5767 9.2642C47.0076 9.2642 47.4252 9.33546 47.8295 9.47798C48.2339 9.6205 48.5968 9.84422 48.9183 10.1491C49.2398 10.4541 49.4934 10.8501 49.679 11.3374C49.8646 11.8213 49.9574 12.4096 49.9574 13.1023V13.6293H43.8871V12.5156H48.5007C48.5007 12.1245 48.4212 11.7782 48.2621 11.4766C48.103 11.1716 47.8793 10.9313 47.5909 10.7557C47.3059 10.58 46.9711 10.4922 46.5866 10.4922C46.169 10.4922 45.8045 10.5949 45.4929 10.8004C45.1847 11.0026 44.946 11.2678 44.777 11.5959C44.6113 11.9207 44.5284 12.2737 44.5284 12.6548V13.5249C44.5284 14.0353 44.6179 14.4695 44.7969 14.8274C44.9792 15.1854 45.2327 15.4588 45.5575 15.6477C45.8823 15.8333 46.2618 15.9261 46.696 15.9261C46.9777 15.9261 47.2346 15.8864 47.4666 15.8068C47.6986 15.724 47.8991 15.6013 48.0682 15.4389C48.2372 15.2765 48.3665 15.076 48.456 14.8374L49.8629 15.0909C49.7502 15.5052 49.5481 15.8681 49.2564 16.1797C48.968 16.4879 48.6051 16.7282 48.1676 16.9006C47.7334 17.0696 47.2379 17.1541 46.6811 17.1541ZM53.0932 6.81818V17H51.6067V6.81818H53.0932ZM55.093 19.8636V9.36364H56.5447V10.6016H56.669C56.7552 10.4425 56.8795 10.2585 57.0419 10.0497C57.2043 9.84091 57.4297 9.65862 57.718 9.50284C58.0064 9.34375 58.3875 9.2642 58.8615 9.2642C59.478 9.2642 60.0282 9.41998 60.5121 9.73153C60.996 10.0431 61.3755 10.4922 61.6506 11.0788C61.929 11.6655 62.0682 12.3714 62.0682 13.1967C62.0682 14.022 61.9306 14.7296 61.6555 15.3196C61.3804 15.9062 61.0026 16.3587 60.522 16.6768C60.0414 16.9917 59.4929 17.1491 58.8764 17.1491C58.4124 17.1491 58.0329 17.0713 57.7379 16.9155C57.4463 16.7597 57.2176 16.5774 57.0518 16.3686C56.8861 16.1598 56.7585 15.9742 56.669 15.8118H56.5795V19.8636H55.093ZM56.5497 13.1818C56.5497 13.7187 56.6276 14.1894 56.7834 14.5938C56.9392 14.9981 57.1645 15.3146 57.4595 15.5433C57.7545 15.7687 58.1158 15.8814 58.5433 15.8814C58.9875 15.8814 59.3587 15.7637 59.657 15.5284C59.9553 15.2898 60.1806 14.9666 60.3331 14.5589C60.4889 14.1513 60.5668 13.6922 60.5668 13.1818C60.5668 12.678 60.4905 12.2256 60.3381 11.8246C60.1889 11.4235 59.9635 11.107 59.6619 10.875C59.3636 10.643 58.9908 10.527 58.5433 10.527C58.1125 10.527 57.7479 10.638 57.4496 10.8601C57.1546 11.0821 56.9309 11.392 56.7784 11.7898C56.6259 12.1875 56.5497 12.6515 56.5497 13.1818Z" fill="#4B5563"/>
<path d="M33.1186 17V6.81818H34.6548V11.2429H39.7308V6.81818H41.272V17H39.7308V12.5604H34.6548V17H33.1186ZM46.6811 17.1541C45.9287 17.1541 45.2808 16.9934 44.7372 16.6719C44.197 16.3471 43.7794 15.8913 43.4844 15.3047C43.1927 14.7147 43.0469 14.0237 43.0469 13.2315C43.0469 12.4493 43.1927 11.7599 43.4844 11.1634C43.7794 10.5668 44.1903 10.1011 44.7173 9.76633C45.2476 9.43158 45.8674 9.2642 46.5767 9.2642C47.0076 9.2642 47.4252 9.33546 47.8295 9.47798C48.2339 9.6205 48.5968 9.84422 48.9183 10.1491C49.2398 10.4541 49.4934 10.8501 49.679 11.3374C49.8646 11.8213 49.9574 12.4096 49.9574 13.1023V13.6293H43.8871V12.5156H48.5007C48.5007 12.1245 48.4212 11.7782 48.2621 11.4766C48.103 11.1716 47.8793 10.9313 47.5909 10.7557C47.3059 10.58 46.9711 10.4922 46.5866 10.4922C46.169 10.4922 45.8045 10.5949 45.4929 10.8004C45.1847 11.0026 44.946 11.2678 44.777 11.5959C44.6113 11.9207 44.5284 12.2737 44.5284 12.6548V13.5249C44.5284 14.0353 44.6179 14.4695 44.7969 14.8274C44.9792 15.1854 45.2327 15.4588 45.5575 15.6477C45.8823 15.8333 46.2618 15.9261 46.696 15.9261C46.9777 15.9261 47.2346 15.8864 47.4666 15.8068C47.6986 15.724 47.8991 15.6013 48.0682 15.4389C48.2372 15.2765 48.3665 15.076 48.456 14.8374L49.8629 15.0909C49.7502 15.5052 49.5481 15.8681 49.2564 16.1797C48.968 16.4879 48.6051 16.7282 48.1676 16.9006C47.7334 17.0696 47.2379 17.1541 46.6811 17.1541ZM53.0932 6.81818V17H51.6067V6.81818H53.0932ZM55.093 19.8636V9.36364H56.5447V10.6016H56.669C56.7552 10.4425 56.8795 10.2585 57.0419 10.0497C57.2043 9.84091 57.4297 9.65862 57.718 9.50284C58.0064 9.34375 58.3875 9.2642 58.8615 9.2642C59.478 9.2642 60.0282 9.41998 60.5121 9.73153C60.996 10.0431 61.3755 10.4922 61.6506 11.0788C61.929 11.6655 62.0682 12.3714 62.0682 13.1967C62.0682 14.022 61.9306 14.7296 61.6555 15.3196C61.3804 15.9062 61.0026 16.3587 60.522 16.6768C60.0414 16.9917 59.4929 17.1491 58.8764 17.1491C58.4124 17.1491 58.0329 17.0713 57.7379 16.9155C57.4463 16.7597 57.2176 16.5774 57.0518 16.3686C56.8861 16.1598 56.7585 15.9742 56.669 15.8118H56.5795V19.8636H55.093ZM56.5497 13.1818C56.5497 13.7187 56.6276 14.1894 56.7834 14.5938C56.9392 14.9981 57.1645 15.3146 57.4595 15.5433C57.7545 15.7687 58.1158 15.8814 58.5433 15.8814C58.9875 15.8814 59.3587 15.7637 59.657 15.5284C59.9553 15.2898 60.1806 14.9666 60.3331 14.5589C60.4889 14.1513 60.5668 13.6922 60.5668 13.1818C60.5668 12.678 60.4905 12.2256 60.3381 11.8246C60.1889 11.4235 59.9635 11.107 59.6619 10.875C59.3636 10.643 58.9908 10.527 58.5433 10.527C58.1125 10.527 57.7479 10.638 57.4496 10.8601C57.1546 11.0821 56.9309 11.392 56.7784 11.7898C56.6259 12.1875 56.5497 12.6515 56.5497 13.1818Z" fill="black" fill-opacity="0.2"/>
<path d="M33.1186 17V6.81818H34.6548V11.2429H39.7308V6.81818H41.272V17H39.7308V12.5604H34.6548V17H33.1186ZM46.6811 17.1541C45.9287 17.1541 45.2808 16.9934 44.7372 16.6719C44.197 16.3471 43.7794 15.8913 43.4844 15.3047C43.1927 14.7147 43.0469 14.0237 43.0469 13.2315C43.0469 12.4493 43.1927 11.7599 43.4844 11.1634C43.7794 10.5668 44.1903 10.1011 44.7173 9.76633C45.2476 9.43158 45.8674 9.2642 46.5767 9.2642C47.0076 9.2642 47.4252 9.33546 47.8295 9.47798C48.2339 9.6205 48.5968 9.84422 48.9183 10.1491C49.2398 10.4541 49.4934 10.8501 49.679 11.3374C49.8646 11.8213 49.9574 12.4096 49.9574 13.1023V13.6293H43.8871V12.5156H48.5007C48.5007 12.1245 48.4212 11.7782 48.2621 11.4766C48.103 11.1716 47.8793 10.9313 47.5909 10.7557C47.3059 10.58 46.9711 10.4922 46.5866 10.4922C46.169 10.4922 45.8045 10.5949 45.4929 10.8004C45.1847 11.0026 44.946 11.2678 44.777 11.5959C44.6113 11.9207 44.5284 12.2737 44.5284 12.6548V13.5249C44.5284 14.0353 44.6179 14.4695 44.7969 14.8274C44.9792 15.1854 45.2327 15.4588 45.5575 15.6477C45.8823 15.8333 46.2618 15.9261 46.696 15.9261C46.9777 15.9261 47.2346 15.8864 47.4666 15.8068C47.6986 15.724 47.8991 15.6013 48.0682 15.4389C48.2372 15.2765 48.3665 15.076 48.456 14.8374L49.8629 15.0909C49.7502 15.5052 49.5481 15.8681 49.2564 16.1797C48.968 16.4879 48.6051 16.7282 48.1676 16.9006C47.7334 17.0696 47.2379 17.1541 46.6811 17.1541ZM53.0932 6.81818V17H51.6067V6.81818H53.0932ZM55.093 19.8636V9.36364H56.5447V10.6016H56.669C56.7552 10.4425 56.8795 10.2585 57.0419 10.0497C57.2043 9.84091 57.4297 9.65862 57.718 9.50284C58.0064 9.34375 58.3875 9.2642 58.8615 9.2642C59.478 9.2642 60.0282 9.41998 60.5121 9.73153C60.996 10.0431 61.3755 10.4922 61.6506 11.0788C61.929 11.6655 62.0682 12.3714 62.0682 13.1967C62.0682 14.022 61.9306 14.7296 61.6555 15.3196C61.3804 15.9062 61.0026 16.3587 60.522 16.6768C60.0414 16.9917 59.4929 17.1491 58.8764 17.1491C58.4124 17.1491 58.0329 17.0713 57.7379 16.9155C57.4463 16.7597 57.2176 16.5774 57.0518 16.3686C56.8861 16.1598 56.7585 15.9742 56.669 15.8118H56.5795V19.8636H55.093ZM56.5497 13.1818C56.5497 13.7187 56.6276 14.1894 56.7834 14.5938C56.9392 14.9981 57.1645 15.3146 57.4595 15.5433C57.7545 15.7687 58.1158 15.8814 58.5433 15.8814C58.9875 15.8814 59.3587 15.7637 59.657 15.5284C59.9553 15.2898 60.1806 14.9666 60.3331 14.5589C60.4889 14.1513 60.5668 13.6922 60.5668 13.1818C60.5668 12.678 60.4905 12.2256 60.3381 11.8246C60.1889 11.4235 59.9635 11.107 59.6619 10.875C59.3636 10.643 58.9908 10.527 58.5433 10.527C58.1125 10.527 57.7479 10.638 57.4496 10.8601C57.1546 11.0821 56.9309 11.392 56.7784 11.7898C56.6259 12.1875 56.5497 12.6515 56.5497 13.1818Z" fill="black" fill-opacity="0.2"/>
<path d="M33.1186 17V6.81818H34.6548V11.2429H39.7308V6.81818H41.272V17H39.7308V12.5604H34.6548V17H33.1186ZM46.6811 17.1541C45.9287 17.1541 45.2808 16.9934 44.7372 16.6719C44.197 16.3471 43.7794 15.8913 43.4844 15.3047C43.1927 14.7147 43.0469 14.0237 43.0469 13.2315C43.0469 12.4493 43.1927 11.7599 43.4844 11.1634C43.7794 10.5668 44.1903 10.1011 44.7173 9.76633C45.2476 9.43158 45.8674 9.2642 46.5767 9.2642C47.0076 9.2642 47.4252 9.33546 47.8295 9.47798C48.2339 9.6205 48.5968 9.84422 48.9183 10.1491C49.2398 10.4541 49.4934 10.8501 49.679 11.3374C49.8646 11.8213 49.9574 12.4096 49.9574 13.1023V13.6293H43.8871V12.5156H48.5007C48.5007 12.1245 48.4212 11.7782 48.2621 11.4766C48.103 11.1716 47.8793 10.9313 47.5909 10.7557C47.3059 10.58 46.9711 10.4922 46.5866 10.4922C46.169 10.4922 45.8045 10.5949 45.4929 10.8004C45.1847 11.0026 44.946 11.2678 44.777 11.5959C44.6113 11.9207 44.5284 12.2737 44.5284 12.6548V13.5249C44.5284 14.0353 44.6179 14.4695 44.7969 14.8274C44.9792 15.1854 45.2327 15.4588 45.5575 15.6477C45.8823 15.8333 46.2618 15.9261 46.696 15.9261C46.9777 15.9261 47.2346 15.8864 47.4666 15.8068C47.6986 15.724 47.8991 15.6013 48.0682 15.4389C48.2372 15.2765 48.3665 15.076 48.456 14.8374L49.8629 15.0909C49.7502 15.5052 49.5481 15.8681 49.2564 16.1797C48.968 16.4879 48.6051 16.7282 48.1676 16.9006C47.7334 17.0696 47.2379 17.1541 46.6811 17.1541ZM53.0932 6.81818V17H51.6067V6.81818H53.0932ZM55.093 19.8636V9.36364H56.5447V10.6016H56.669C56.7552 10.4425 56.8795 10.2585 57.0419 10.0497C57.2043 9.84091 57.4297 9.65862 57.718 9.50284C58.0064 9.34375 58.3875 9.2642 58.8615 9.2642C59.478 9.2642 60.0282 9.41998 60.5121 9.73153C60.996 10.0431 61.3755 10.4922 61.6506 11.0788C61.929 11.6655 62.0682 12.3714 62.0682 13.1967C62.0682 14.022 61.9306 14.7296 61.6555 15.3196C61.3804 15.9062 61.0026 16.3587 60.522 16.6768C60.0414 16.9917 59.4929 17.1491 58.8764 17.1491C58.4124 17.1491 58.0329 17.0713 57.7379 16.9155C57.4463 16.7597 57.2176 16.5774 57.0518 16.3686C56.8861 16.1598 56.7585 15.9742 56.669 15.8118H56.5795V19.8636H55.093ZM56.5497 13.1818C56.5497 13.7187 56.6276 14.1894 56.7834 14.5938C56.9392 14.9981 57.1645 15.3146 57.4595 15.5433C57.7545 15.7687 58.1158 15.8814 58.5433 15.8814C58.9875 15.8814 59.3587 15.7637 59.657 15.5284C59.9553 15.2898 60.1806 14.9666 60.3331 14.5589C60.4889 14.1513 60.5668 13.6922 60.5668 13.1818C60.5668 12.678 60.4905 12.2256 60.3381 11.8246C60.1889 11.4235 59.9635 11.107 59.6619 10.875C59.3636 10.643 58.9908 10.527 58.5433 10.527C58.1125 10.527 57.7479 10.638 57.4496 10.8601C57.1546 11.0821 56.9309 11.392 56.7784 11.7898C56.6259 12.1875 56.5497 12.6515 56.5497 13.1818Z" fill="black" fill-opacity="0.2"/>
</svg>
