<svg width="121" height="120" viewBox="0 0 121 120" fill="none" xmlns="http://www.w3.org/2000/svg">
<path d="M108.816 39.6564C106.187 33.3813 102.362 27.6776 97.5547 22.8634C92.7616 18.0408 87.0679 14.2065 80.7969 11.5782C74.3729 8.87274 67.4706 7.48591 60.5001 7.50011H60.2657C53.1758 7.53526 46.3204 8.94151 39.8633 11.7071C33.6462 14.3623 28.006 18.2034 23.2579 23.0157C18.4969 27.8192 14.7158 33.5029 12.1251 39.7501C9.43578 46.2465 8.07312 53.2153 8.11725 60.2462C8.15241 68.379 10.0977 76.4532 13.7305 83.672V101.484C13.7305 104.461 16.1446 106.875 19.1094 106.875H36.8985C44.1509 110.535 52.1541 112.46 60.2774 112.5H60.5235C67.5313 112.5 74.3165 111.141 80.7149 108.481C86.9541 105.884 92.6265 102.094 97.4141 97.3243C102.242 92.5314 106.039 86.9298 108.699 80.6837C111.453 74.215 112.859 67.336 112.895 60.2345C112.918 53.0978 111.535 46.172 108.816 39.6564ZM37.1094 65.6251C34.0157 65.6251 31.4962 63.1056 31.4962 60.0001C31.4962 56.8946 34.0157 54.3751 37.1094 54.3751C40.2032 54.3751 42.7227 56.8946 42.7227 60.0001C42.7227 63.1056 40.2149 65.6251 37.1094 65.6251ZM60.5001 65.6251C57.4063 65.6251 54.8868 63.1056 54.8868 60.0001C54.8868 56.8946 57.4063 54.3751 60.5001 54.3751C63.5938 54.3751 66.1133 56.8946 66.1133 60.0001C66.1133 63.1056 63.5938 65.6251 60.5001 65.6251ZM83.8907 65.6251C80.7969 65.6251 78.2774 63.1056 78.2774 60.0001C78.2774 56.8946 80.7969 54.3751 83.8907 54.3751C86.9844 54.3751 89.504 56.8946 89.504 60.0001C89.504 63.1056 86.9844 65.6251 83.8907 65.6251Z" fill="#0066FF"/>
</svg>
