<svg width="121" height="120" viewBox="0 0 121 120" fill="none" xmlns="http://www.w3.org/2000/svg">
<g clip-path="url(#clip0_130_930)">
<path d="M63.8329 62.8334C63.2083 63.4542 62.3635 63.8027 61.4829 63.8027C60.6023 63.8027 59.7574 63.4542 59.1329 62.8334L49.1329 52.8334C47.7057 54.9554 46.9188 57.4432 46.8662 60C46.8662 62.6965 47.6658 65.3323 49.1638 67.5743C50.6619 69.8163 52.7911 71.5637 55.2823 72.5956C57.7735 73.6275 60.5147 73.8974 63.1593 73.3714C65.8039 72.8454 68.2331 71.5469 70.1398 69.6403C72.0464 67.7336 73.3449 65.3044 73.8709 62.6598C74.397 60.0152 74.127 57.2739 73.0951 54.7828C72.0632 52.2916 70.3158 50.1624 68.0738 48.6643C65.8318 47.1663 63.196 46.3667 60.4995 46.3667C58.1548 46.381 55.8552 47.0134 53.8329 48.2L63.8329 58.2C64.4337 58.8216 64.7695 59.6522 64.7695 60.5167C64.7695 61.3812 64.4337 62.2118 63.8329 62.8334Z" fill="#0066FF"/>
<path d="M60.4995 6.66653C55.7102 6.6798 50.9447 7.34136 46.3329 8.6332L51.6662 21.5999C60.063 19.6376 68.8706 20.4674 76.7532 23.9633C84.6358 27.4592 91.1632 33.4305 95.3453 40.9715C99.5274 48.5125 101.136 57.2117 99.9271 65.7496C98.7182 74.2874 94.7579 82.1981 88.6467 88.2817C82.5355 94.3653 74.607 98.2898 66.0638 99.4601C57.5205 100.63 48.8287 98.9823 41.3067 94.7661C33.7847 90.55 27.843 83.9956 24.3828 76.0973C20.9225 68.199 20.1326 59.3877 22.1329 50.9999L9.19953 45.5999C6.18302 56.3572 6.62089 67.7903 10.4514 78.2854C14.2818 88.7805 21.3114 97.8077 30.5481 104.093C39.7847 110.378 50.762 113.604 61.9305 113.315C73.0991 113.027 83.895 109.238 92.7945 102.484C101.694 95.7295 108.248 86.3511 111.531 75.672C114.814 64.993 114.66 53.5526 111.092 42.9655C107.524 32.3784 100.721 23.1792 91.643 16.6663C82.5655 10.1533 71.6718 6.65552 60.4995 6.66653Z" fill="#0066FF"/>
<path d="M27.1666 53.1334C25.7078 60.2633 26.5822 67.6735 29.6606 74.2681C32.7389 80.8627 37.8578 86.2915 44.2603 89.7518C50.6627 93.2121 58.0088 94.5201 65.2121 93.4825C72.4155 92.4448 79.0936 89.1165 84.2591 83.9898C89.4245 78.8631 92.803 72.2102 93.8949 65.0149C94.9867 57.8195 93.734 50.4638 90.322 44.0355C86.91 37.6072 81.5199 32.4476 74.9487 29.3197C68.3774 26.1917 60.9741 25.2616 53.8333 26.6667L59.4666 40.3667H60.5C64.3751 40.3667 68.1632 41.5154 71.3857 43.6676C74.6081 45.8198 77.1203 48.8789 78.6048 52.4584C80.0892 56.0379 80.4793 59.9771 79.7258 63.7782C78.9722 67.5793 77.1088 71.0718 74.371 73.8142C71.6332 76.5566 68.144 78.426 64.3441 79.186C60.5443 79.9461 56.6044 79.5627 53.0224 78.0843C49.4404 76.6059 46.377 74.0989 44.2193 70.8801C42.0617 67.6613 40.9066 63.8751 40.9 60V58.8334L27.1666 53.1334Z" fill="#0066FF"/>
<path d="M27.833 44.4664C28.1408 44.7805 28.5601 44.9602 28.9997 44.9664H41.1664L48.9997 52.7998C50.2049 50.8898 51.8658 49.3091 53.833 48.1998L45.5997 39.9998V28.3664C45.5934 27.9268 45.4137 27.5075 45.0997 27.1998L26.4664 8.56643C26.2334 8.33803 25.9386 8.18302 25.6183 8.12062C25.2981 8.05822 24.9666 8.09116 24.665 8.21538C24.3633 8.3396 24.1047 8.54962 23.9213 8.81941C23.7378 9.0892 23.6376 9.40689 23.633 9.7331V23.0664H10.4997C10.1735 23.071 9.8558 23.1712 9.58601 23.3547C9.31622 23.5381 9.1062 23.7967 8.98198 24.0984C8.85777 24.4 8.82482 24.7315 8.88722 25.0517C8.94962 25.372 9.10463 25.6668 9.33304 25.8998L27.833 44.4664Z" fill="#0066FF"/>
</g>
<defs>
<clipPath id="clip0_130_930">
<rect width="120" height="120" fill="white" transform="translate(0.5)"/>
</clipPath>
</defs>
</svg>
