<svg width="126" height="30" viewBox="0 0 126 30" fill="none" xmlns="http://www.w3.org/2000/svg">
<path d="M4.30762 10.4831C9.88333 -5.02445 27.3118 6.5281 18.6721 18.4684C18.7917 18.7869 18.8512 19.1349 18.8512 19.4883C18.8512 21.1353 17.5234 22.4635 15.8768 22.4635C14.2305 22.4635 12.9027 21.1353 12.9027 19.4883C12.9027 17.8416 14.2305 16.513 15.8768 16.513C16.0461 16.513 16.2102 16.5183 16.3695 16.5478C21.2588 8.46811 12.1414 -1.94507 5.49156 9.9211C5.0884 10.0852 4.69051 10.2691 4.30762 10.4831Z" fill="#111827"/>
<path d="M21.6607 11.9512C32.3 24.5333 13.5782 33.8618 7.5596 20.4089C7.22654 20.3494 6.90321 20.2299 6.59486 20.0556C5.17227 19.2299 4.68483 17.4138 5.50047 15.9908C6.32623 14.5678 8.15157 14.0804 9.56444 14.8964C10.9866 15.7173 11.4741 17.5382 10.6584 18.9612C10.579 19.1103 10.4793 19.2396 10.3801 19.3692C14.9311 27.6479 28.5099 24.9563 21.5562 13.2595C21.6162 12.8215 21.651 12.3888 21.6607 11.9512Z" fill="#111827"/>
<path d="M11.7091 26.2549C-4.49576 29.175 -3.21255 8.29924 11.4409 9.81178C11.6645 9.55287 11.9182 9.33407 12.2314 9.15498C13.654 8.32922 15.4793 8.81666 16.2953 10.2397C17.1207 11.6623 16.6333 13.4884 15.2111 14.3044C13.7885 15.1302 11.9627 14.6375 11.1471 13.2198C11.0576 13.0703 10.9931 12.926 10.9332 12.772C1.48797 12.5727 -2.96863 25.6876 10.6301 25.5085C10.9781 25.7772 11.3311 26.026 11.7091 26.2549Z" fill="#111827"/>
<path d="M29.7643 10.6307V8.86364H39.0484V10.6307H35.4518V20.5H33.3609V10.6307H29.7643ZM42.8041 15.3864V20.5H40.7472V8.86364H42.7586V13.2557H42.8609C43.0654 12.7633 43.3817 12.375 43.8097 12.0909C44.2416 11.803 44.7908 11.6591 45.4575 11.6591C46.0635 11.6591 46.5919 11.786 47.0427 12.0398C47.4935 12.2936 47.8419 12.6648 48.0882 13.1534C48.3382 13.642 48.4632 14.2386 48.4632 14.9432V20.5H46.4063V15.2614C46.4063 14.6742 46.2548 14.2178 45.9518 13.892C45.6526 13.5625 45.2321 13.3977 44.6904 13.3977C44.3268 13.3977 44.001 13.4773 43.7132 13.6364C43.4291 13.7917 43.2056 14.017 43.0427 14.3125C42.8836 14.608 42.8041 14.9659 42.8041 15.3864ZM50.5597 20.5V11.7727H52.6166V20.5H50.5597ZM51.5938 10.5341C51.2681 10.5341 50.9878 10.4261 50.7529 10.2102C50.5181 9.99053 50.4007 9.72727 50.4007 9.42045C50.4007 9.10985 50.5181 8.84659 50.7529 8.63068C50.9878 8.41098 51.2681 8.30114 51.5938 8.30114C51.9234 8.30114 52.2037 8.41098 52.4347 8.63068C52.6696 8.84659 52.787 9.10985 52.787 9.42045C52.787 9.72727 52.6696 9.99053 52.4347 10.2102C52.2037 10.4261 51.9234 10.5341 51.5938 10.5341ZM56.7884 15.3864V20.5H54.7316V11.7727H56.6975V13.2557H56.7998C57.0006 12.767 57.3206 12.3788 57.76 12.0909C58.2032 11.803 58.7506 11.6591 59.4021 11.6591C60.0044 11.6591 60.529 11.7879 60.9759 12.0455C61.4267 12.303 61.7752 12.6761 62.0214 13.1648C62.2714 13.6534 62.3945 14.2462 62.3907 14.9432V20.5H60.3339V15.2614C60.3339 14.678 60.1824 14.2216 59.8794 13.892C59.5801 13.5625 59.1653 13.3977 58.635 13.3977C58.2752 13.3977 57.9551 13.4773 57.6748 13.6364C57.3983 13.7917 57.1805 14.017 57.0214 14.3125C56.8661 14.608 56.7884 14.9659 56.7884 15.3864ZM66.3566 17.7614L66.3509 15.2784H66.6805L69.8169 11.7727H72.2203L68.3623 16.0682H67.9362L66.3566 17.7614ZM64.4816 20.5V8.86364H66.5384V20.5H64.4816ZM69.9589 20.5L67.118 16.5284L68.5044 15.0795L72.4191 20.5H69.9589ZM73.6819 20.5V8.86364H75.7899V18.733H80.9149V20.5H73.6819ZM85.1649 20.6761C84.6118 20.6761 84.1137 20.5777 83.6705 20.3807C83.2311 20.1799 82.8827 19.8845 82.6251 19.4943C82.3713 19.1042 82.2444 18.6231 82.2444 18.0511C82.2444 17.5587 82.3353 17.1515 82.5171 16.8295C82.699 16.5076 82.9471 16.25 83.2615 16.0568C83.5758 15.8636 83.93 15.7178 84.324 15.6193C84.7217 15.517 85.1327 15.4432 85.5569 15.3977C86.0683 15.3447 86.483 15.2973 86.8012 15.2557C87.1194 15.2102 87.3505 15.142 87.4944 15.0511C87.6421 14.9564 87.716 14.8106 87.716 14.6136V14.5795C87.716 14.1515 87.5891 13.8201 87.3353 13.5852C87.0815 13.3504 86.716 13.233 86.2387 13.233C85.7349 13.233 85.3353 13.3428 85.0399 13.5625C84.7482 13.7822 84.5512 14.0417 84.449 14.3409L82.5285 14.0682C82.68 13.5379 82.93 13.0947 83.2785 12.7386C83.627 12.3788 84.0531 12.1098 84.5569 11.9318C85.0607 11.75 85.6175 11.6591 86.2274 11.6591C86.6478 11.6591 87.0664 11.7083 87.483 11.8068C87.8997 11.9053 88.2804 12.0682 88.6251 12.2955C88.9698 12.5189 89.2463 12.8239 89.4546 13.2102C89.6668 13.5966 89.7728 14.0795 89.7728 14.6591V20.5H87.7955V19.3011H87.7274C87.6024 19.5436 87.4262 19.7708 87.199 19.983C86.9755 20.1913 86.6933 20.3598 86.3524 20.4886C86.0152 20.6136 85.6194 20.6761 85.1649 20.6761ZM85.699 19.1648C86.1118 19.1648 86.4698 19.0833 86.7728 18.9205C87.0758 18.7538 87.3088 18.5341 87.4717 18.2614C87.6383 17.9886 87.7217 17.6913 87.7217 17.3693V16.3409C87.6573 16.3939 87.5474 16.4432 87.3921 16.4886C87.2406 16.5341 87.0702 16.5739 86.8808 16.608C86.6914 16.642 86.5039 16.6723 86.3183 16.6989C86.1327 16.7254 85.9717 16.7481 85.8353 16.767C85.5285 16.8087 85.2539 16.8769 85.0115 16.9716C84.769 17.0663 84.5777 17.1989 84.4376 17.3693C84.2974 17.536 84.2274 17.7519 84.2274 18.017C84.2274 18.3958 84.3656 18.6818 84.6421 18.875C84.9186 19.0682 85.2709 19.1648 85.699 19.1648ZM91.9319 20.5V8.86364H93.9887V13.2159H94.074C94.18 13.0038 94.3296 12.7784 94.5228 12.5398C94.716 12.2973 94.9774 12.0909 95.3069 11.9205C95.6365 11.7462 96.0569 11.6591 96.5683 11.6591C97.2425 11.6591 97.8505 11.8314 98.3921 12.1761C98.9376 12.517 99.3694 13.0227 99.6876 13.6932C100.01 14.3598 100.171 15.178 100.171 16.1477C100.171 17.1061 100.013 17.9205 99.699 18.5909C99.3846 19.2614 98.9565 19.7727 98.4149 20.125C97.8732 20.4773 97.2596 20.6534 96.574 20.6534C96.074 20.6534 95.6592 20.5701 95.3296 20.4034C95.0001 20.2367 94.7349 20.036 94.5342 19.8011C94.3372 19.5625 94.1838 19.3371 94.074 19.125H93.9546V20.5H91.9319ZM93.949 16.1364C93.949 16.7008 94.0285 17.1951 94.1876 17.6193C94.3505 18.0436 94.5834 18.375 94.8865 18.6136C95.1933 18.8485 95.5645 18.9659 96.0001 18.9659C96.4546 18.9659 96.8353 18.8447 97.1421 18.6023C97.449 18.3561 97.68 18.0208 97.8353 17.5966C97.9944 17.1686 98.074 16.6818 98.074 16.1364C98.074 15.5947 97.9963 15.1136 97.841 14.6932C97.6857 14.2727 97.4546 13.9432 97.1478 13.7045C96.841 13.4659 96.4584 13.3466 96.0001 13.3466C95.5607 13.3466 95.1876 13.4621 94.8808 13.6932C94.574 13.9242 94.341 14.2481 94.1819 14.6648C94.0266 15.0814 93.949 15.572 93.949 16.1364ZM108.817 14.0795L106.942 14.2841C106.889 14.0947 106.796 13.9167 106.663 13.75C106.535 13.5833 106.36 13.4489 106.141 13.3466C105.921 13.2443 105.652 13.1932 105.334 13.1932C104.906 13.1932 104.546 13.286 104.254 13.4716C103.966 13.6572 103.824 13.8977 103.828 14.1932C103.824 14.447 103.917 14.6534 104.107 14.8125C104.3 14.9716 104.618 15.1023 105.061 15.2045L106.55 15.5227C107.376 15.7008 107.989 15.983 108.391 16.3693C108.796 16.7557 109.001 17.2614 109.004 17.8864C109.001 18.4356 108.84 18.9205 108.521 19.3409C108.207 19.7576 107.77 20.0833 107.209 20.3182C106.648 20.553 106.004 20.6705 105.277 20.6705C104.209 20.6705 103.349 20.447 102.698 20C102.046 19.5492 101.658 18.9223 101.533 18.1193L103.538 17.9261C103.629 18.3201 103.823 18.6174 104.118 18.8182C104.413 19.0189 104.798 19.1193 105.271 19.1193C105.76 19.1193 106.152 19.0189 106.448 18.8182C106.747 18.6174 106.896 18.3693 106.896 18.0739C106.896 17.8239 106.8 17.6174 106.607 17.4545C106.417 17.2917 106.122 17.1667 105.72 17.0795L104.232 16.767C103.395 16.5928 102.775 16.2992 102.374 15.8864C101.972 15.4697 101.773 14.9432 101.777 14.3068C101.773 13.7689 101.919 13.303 102.215 12.9091C102.514 12.5114 102.929 12.2045 103.459 11.9886C103.993 11.7689 104.609 11.6591 105.305 11.6591C106.328 11.6591 107.133 11.8769 107.72 12.3125C108.311 12.7481 108.677 13.3371 108.817 14.0795ZM112.286 20.5H110.036L114.132 8.86364H116.734L120.837 20.5H118.587L115.479 11.25H115.388L112.286 20.5ZM112.359 15.9375H118.496V17.6307H112.359V15.9375ZM124.477 8.86364V20.5H122.369V8.86364H124.477Z" fill="#111827"/>
</svg>
