<svg width="121" height="120" viewBox="0 0 121 120" fill="none" xmlns="http://www.w3.org/2000/svg">
<path d="M60.5 10C63.1522 10 65.6957 11.0536 67.5711 12.9289C69.4464 14.8043 70.5 17.3478 70.5 20C70.5 23.7 68.5 26.95 65.5 28.65V35H70.5C79.7826 35 88.685 38.6875 95.2487 45.2513C101.813 51.815 105.5 60.7174 105.5 70H110.5C111.826 70 113.098 70.5268 114.036 71.4645C114.973 72.4021 115.5 73.6739 115.5 75V90C115.5 91.3261 114.973 92.5979 114.036 93.5355C113.098 94.4732 111.826 95 110.5 95H105.5V100C105.5 102.652 104.446 105.196 102.571 107.071C100.696 108.946 98.1522 110 95.5 110H25.5C22.8478 110 20.3043 108.946 18.4289 107.071C16.5536 105.196 15.5 102.652 15.5 100V95H10.5C9.17392 95 7.90215 94.4732 6.96447 93.5355C6.02678 92.5979 5.5 91.3261 5.5 90V75C5.5 73.6739 6.02678 72.4021 6.96447 71.4645C7.90215 70.5268 9.17392 70 10.5 70H15.5C15.5 60.7174 19.1875 51.815 25.7513 45.2513C32.315 38.6875 41.2174 35 50.5 35H55.5V28.65C52.5 26.95 50.5 23.7 50.5 20C50.5 17.3478 51.5536 14.8043 53.4289 12.9289C55.3043 11.0536 57.8478 10 60.5 10ZM38 65C34.6848 65 31.5054 66.317 29.1612 68.6612C26.817 71.0054 25.5 74.1848 25.5 77.5C25.5 80.8152 26.817 83.9946 29.1612 86.3388C31.5054 88.683 34.6848 90 38 90C41.3152 90 44.4946 88.683 46.8388 86.3388C49.183 83.9946 50.5 80.8152 50.5 77.5C50.5 74.1848 49.183 71.0054 46.8388 68.6612C44.4946 66.317 41.3152 65 38 65ZM83 65C79.6848 65 76.5054 66.317 74.1612 68.6612C71.817 71.0054 70.5 74.1848 70.5 77.5C70.5 80.8152 71.817 83.9946 74.1612 86.3388C76.5054 88.683 79.6848 90 83 90C86.3152 90 89.4946 88.683 91.8388 86.3388C94.183 83.9946 95.5 80.8152 95.5 77.5C95.5 74.1848 94.183 71.0054 91.8388 68.6612C89.4946 66.317 86.3152 65 83 65Z" fill="#0066FF"/>
</svg>
