<svg width="264" height="60" viewBox="0 0 264 60" fill="none" xmlns="http://www.w3.org/2000/svg">
<rect width="60" height="60" rx="10" fill="#0066FF"/>
<path d="M16.9287 22.7353C25.8962 -2.20563 53.9267 16.3745 40.0313 35.5783C40.2236 36.0905 40.3194 36.6502 40.3194 37.2185C40.3194 39.8675 38.1839 42.0036 35.5355 42.0036C32.8879 42.0036 30.7524 39.8675 30.7524 37.2185C30.7524 34.5701 32.8879 32.4333 35.5355 32.4333C35.8079 32.4333 36.0719 32.4418 36.328 32.4894C44.1915 19.4946 29.5279 2.74698 18.8329 21.8315C18.1845 22.0954 17.5445 22.3913 16.9287 22.7353Z" fill="white"/>
<path d="M44.8395 25.0962C61.9507 45.3322 31.8401 60.3353 22.1604 38.6989C21.6247 38.6031 21.1047 38.4109 20.6088 38.1307C18.3208 36.8026 17.5369 33.8819 18.8487 31.5932C20.1767 29.3046 23.1125 28.5207 25.3848 29.8331C27.6721 31.1534 28.4561 34.0819 27.1443 36.3706C27.0166 36.6104 26.8563 36.8182 26.6966 37.0268C34.016 50.3415 55.8551 46.0125 44.6713 27.2004C44.7678 26.496 44.8238 25.8 44.8395 25.0962Z" fill="white"/>
<path d="M28.8319 48.1013C2.76941 52.7978 4.83321 19.223 28.4005 21.6556C28.7602 21.2392 29.1681 20.8873 29.6719 20.5993C31.9599 19.2712 34.8956 20.0551 36.208 22.3438C37.5355 24.6317 36.7515 27.5688 34.4642 28.8812C32.1762 30.2093 29.2398 29.4169 27.928 27.1367C27.784 26.8963 27.6804 26.6643 27.584 26.4166C12.3931 26.096 5.22551 47.1889 27.0965 46.9009C27.6563 47.333 28.2239 47.7331 28.8319 48.1013Z" fill="white"/>
<path d="M72.2884 21.7614V18.2273H90.8565V21.7614H83.6634V41.5H79.4815V21.7614H72.2884ZM98.3679 31.2727V41.5H94.2543V18.2273H98.277V27.0114H98.4815C98.8906 26.0265 99.5232 25.25 100.379 24.6818C101.243 24.1061 102.341 23.8182 103.675 23.8182C104.887 23.8182 105.944 24.072 106.845 24.5795C107.747 25.0871 108.444 25.8295 108.936 26.8068C109.436 27.7841 109.686 28.9773 109.686 30.3864V41.5H105.572V31.0227C105.572 29.8485 105.269 28.9356 104.663 28.2841C104.065 27.625 103.224 27.2955 102.141 27.2955C101.413 27.2955 100.762 27.4545 100.186 27.7727C99.6179 28.0833 99.1709 28.5341 98.8452 29.125C98.527 29.7159 98.3679 30.4318 98.3679 31.2727ZM113.879 41.5V24.0455H117.993V41.5H113.879ZM115.947 21.5682C115.296 21.5682 114.735 21.3523 114.266 20.9205C113.796 20.4811 113.561 19.9545 113.561 19.3409C113.561 18.7197 113.796 18.1932 114.266 17.7614C114.735 17.322 115.296 17.1023 115.947 17.1023C116.607 17.1023 117.167 17.322 117.629 17.7614C118.099 18.1932 118.334 18.7197 118.334 19.3409C118.334 19.9545 118.099 20.4811 117.629 20.9205C117.167 21.3523 116.607 21.5682 115.947 21.5682ZM126.337 31.2727V41.5H122.223V24.0455H126.155V27.0114H126.359C126.761 26.0341 127.401 25.2576 128.28 24.6818C129.166 24.1061 130.261 23.8182 131.564 23.8182C132.768 23.8182 133.818 24.0758 134.712 24.5909C135.613 25.1061 136.31 25.8523 136.803 26.8295C137.303 27.8068 137.549 28.9924 137.541 30.3864V41.5H133.428V31.0227C133.428 29.8561 133.125 28.9432 132.518 28.2841C131.92 27.625 131.09 27.2955 130.03 27.2955C129.31 27.2955 128.67 27.4545 128.109 27.7727C127.556 28.0833 127.121 28.5341 126.803 29.125C126.492 29.7159 126.337 30.4318 126.337 31.2727ZM145.473 36.0227L145.462 31.0568H146.121L152.393 24.0455H157.2L149.484 32.6364H148.632L145.473 36.0227ZM141.723 41.5V18.2273H145.837V41.5H141.723ZM152.678 41.5L146.996 33.5568L149.768 30.6591L157.598 41.5H152.678ZM160.124 41.5V18.2273H164.339V37.9659H174.589V41.5H160.124ZM183.089 41.8523C181.983 41.8523 180.987 41.6553 180.101 41.2614C179.222 40.8598 178.525 40.2689 178.01 39.4886C177.502 38.7083 177.249 37.7462 177.249 36.6023C177.249 35.6174 177.43 34.803 177.794 34.1591C178.158 33.5152 178.654 33 179.283 32.6136C179.911 32.2273 180.62 31.9356 181.408 31.7386C182.203 31.5341 183.025 31.3864 183.874 31.2955C184.896 31.1894 185.726 31.0947 186.362 31.0114C186.999 30.9205 187.461 30.7841 187.749 30.6023C188.044 30.4129 188.192 30.1212 188.192 29.7273V29.6591C188.192 28.803 187.938 28.1402 187.43 27.6705C186.923 27.2008 186.192 26.9659 185.237 26.9659C184.23 26.9659 183.43 27.1856 182.839 27.625C182.256 28.0644 181.862 28.5833 181.658 29.1818L177.817 28.6364C178.12 27.5758 178.62 26.6894 179.317 25.9773C180.014 25.2576 180.866 24.7197 181.874 24.3636C182.881 24 183.995 23.8182 185.214 23.8182C186.055 23.8182 186.893 23.9167 187.726 24.1136C188.559 24.3106 189.321 24.6364 190.01 25.0909C190.699 25.5379 191.252 26.1477 191.669 26.9205C192.093 27.6932 192.305 28.6591 192.305 29.8182V41.5H188.351V39.1023H188.214C187.964 39.5871 187.612 40.0417 187.158 40.4659C186.711 40.8826 186.146 41.2197 185.464 41.4773C184.79 41.7273 183.999 41.8523 183.089 41.8523ZM184.158 38.8295C184.983 38.8295 185.699 38.6667 186.305 38.3409C186.911 38.0076 187.377 37.5682 187.703 37.0227C188.036 36.4773 188.203 35.8826 188.203 35.2386V33.1818C188.074 33.2879 187.855 33.3864 187.544 33.4773C187.241 33.5682 186.9 33.6477 186.521 33.7159C186.143 33.7841 185.768 33.8447 185.396 33.8977C185.025 33.9508 184.703 33.9962 184.43 34.0341C183.817 34.1174 183.268 34.2538 182.783 34.4432C182.298 34.6326 181.915 34.8977 181.635 35.2386C181.355 35.572 181.214 36.0038 181.214 36.5341C181.214 37.2917 181.491 37.8636 182.044 38.25C182.597 38.6364 183.302 38.8295 184.158 38.8295ZM196.624 41.5V18.2273H200.737V26.9318H200.908C201.12 26.5076 201.419 26.0568 201.805 25.5795C202.192 25.0947 202.714 24.6818 203.374 24.3409C204.033 23.9924 204.874 23.8182 205.896 23.8182C207.245 23.8182 208.461 24.1629 209.544 24.8523C210.635 25.5341 211.499 26.5455 212.135 27.8864C212.779 29.2197 213.101 30.8561 213.101 32.7955C213.101 34.7121 212.786 36.3409 212.158 37.6818C211.529 39.0227 210.673 40.0455 209.589 40.75C208.506 41.4545 207.279 41.8068 205.908 41.8068C204.908 41.8068 204.078 41.6402 203.419 41.3068C202.76 40.9735 202.23 40.572 201.828 40.1023C201.434 39.625 201.127 39.1742 200.908 38.75H200.669V41.5H196.624ZM200.658 32.7727C200.658 33.9015 200.817 34.8902 201.135 35.7386C201.461 36.5871 201.927 37.25 202.533 37.7273C203.146 38.197 203.889 38.4318 204.76 38.4318C205.669 38.4318 206.43 38.1894 207.044 37.7045C207.658 37.2121 208.12 36.5417 208.43 35.6932C208.749 34.8371 208.908 33.8636 208.908 32.7727C208.908 31.6894 208.752 30.7273 208.442 29.8864C208.131 29.0455 207.669 28.3864 207.055 27.9091C206.442 27.4318 205.677 27.1932 204.76 27.1932C203.881 27.1932 203.135 27.4242 202.521 27.8864C201.908 28.3485 201.442 28.9962 201.124 29.8295C200.813 30.6629 200.658 31.6439 200.658 32.7727ZM230.393 28.6591L226.643 29.0682C226.537 28.6894 226.352 28.3333 226.087 28C225.829 27.6667 225.481 27.3977 225.041 27.1932C224.602 26.9886 224.064 26.8864 223.428 26.8864C222.571 26.8864 221.852 27.072 221.268 27.4432C220.693 27.8144 220.409 28.2955 220.416 28.8864C220.409 29.3939 220.594 29.8068 220.973 30.125C221.359 30.4432 221.996 30.7045 222.882 30.9091L225.859 31.5455C227.511 31.9015 228.738 32.4659 229.541 33.2386C230.352 34.0114 230.761 35.0227 230.768 36.2727C230.761 37.3712 230.439 38.3409 229.803 39.1818C229.174 40.0152 228.299 40.6667 227.178 41.1364C226.056 41.6061 224.768 41.8409 223.314 41.8409C221.178 41.8409 219.458 41.3939 218.155 40.5C216.852 39.5985 216.075 38.3447 215.825 36.7386L219.837 36.3523C220.018 37.1402 220.405 37.7348 220.996 38.1364C221.587 38.5379 222.356 38.7386 223.303 38.7386C224.28 38.7386 225.064 38.5379 225.655 38.1364C226.253 37.7348 226.553 37.2386 226.553 36.6477C226.553 36.1477 226.359 35.7348 225.973 35.4091C225.594 35.0833 225.003 34.8333 224.2 34.6591L221.223 34.0341C219.549 33.6856 218.31 33.0985 217.507 32.2727C216.704 31.4394 216.306 30.3864 216.314 29.1136C216.306 28.0379 216.598 27.1061 217.189 26.3182C217.787 25.5227 218.617 24.9091 219.678 24.4773C220.746 24.0379 221.977 23.8182 223.371 23.8182C225.416 23.8182 227.026 24.2538 228.2 25.125C229.382 25.9962 230.113 27.1742 230.393 28.6591ZM237.331 41.5H232.831L241.024 18.2273H246.229L254.433 41.5H249.933L243.717 23H243.536L237.331 41.5ZM237.479 32.375H249.751V35.7614H237.479V32.375ZM261.714 18.2273V41.5H257.499V18.2273H261.714Z" fill="white"/>
</svg>
