<svg width="60" height="60" viewBox="0 0 60 60" fill="none" xmlns="http://www.w3.org/2000/svg">
<rect width="60" height="60" rx="10" fill="#0066FF"/>
<path d="M16.9287 22.7353C25.8962 -2.20563 53.9267 16.3745 40.0313 35.5783C40.2236 36.0905 40.3194 36.6502 40.3194 37.2185C40.3194 39.8675 38.1839 42.0036 35.5355 42.0036C32.8879 42.0036 30.7524 39.8675 30.7524 37.2185C30.7524 34.5701 32.8879 32.4333 35.5355 32.4333C35.8079 32.4333 36.0719 32.4418 36.328 32.4894C44.1915 19.4946 29.5279 2.74698 18.8329 21.8315C18.1845 22.0954 17.5445 22.3913 16.9287 22.7353Z" fill="white"/>
<path d="M44.839 25.0962C61.9502 45.3322 31.8397 60.3353 22.1599 38.6989C21.6242 38.6031 21.1042 38.4109 20.6083 38.1307C18.3203 36.8026 17.5364 33.8819 18.8482 31.5932C20.1763 29.3046 23.112 28.5207 25.3843 29.8331C27.6716 31.1534 28.4556 34.0819 27.1438 36.3706C27.0161 36.6104 26.8558 36.8182 26.6961 37.0268C34.0155 50.3415 55.8546 46.0125 44.6708 27.2004C44.7673 26.496 44.8233 25.8 44.839 25.0962Z" fill="white"/>
<path d="M28.8319 48.1013C2.76941 52.7978 4.83321 19.223 28.4005 21.6556C28.7602 21.2392 29.1681 20.8873 29.6719 20.5993C31.9599 19.2712 34.8956 20.0551 36.208 22.3438C37.5355 24.6317 36.7515 27.5688 34.4642 28.8812C32.1762 30.2093 29.2398 29.4169 27.928 27.1367C27.784 26.8963 27.6804 26.6643 27.584 26.4166C12.3931 26.096 5.22551 47.1889 27.0965 46.9009C27.6563 47.333 28.2239 47.7331 28.8319 48.1013Z" fill="white"/>
</svg>
