<svg width="250" height="44" viewBox="0 0 250 44" fill="none" xmlns="http://www.w3.org/2000/svg">
<g filter="url(#filter0_d_245_318)">
<rect x="33" y="1.5" width="184" height="39" rx="9.5" stroke="#D1D5DB"/>
<path d="M93.8333 26.3333C93.8333 26.5101 93.9036 26.6797 94.0286 26.8047C94.1536 26.9298 94.3232 27 94.5 27C94.6768 27 94.8464 26.9298 94.9714 26.8047C95.0964 26.6797 95.1667 26.5101 95.1667 26.3333V21.6667H99.8333C100.01 21.6667 100.18 21.5964 100.305 21.4714C100.43 21.3464 100.5 21.1768 100.5 21C100.5 20.8232 100.43 20.6536 100.305 20.5286C100.18 20.4036 100.01 20.3333 99.8333 20.3333H95.1667V15.6667C95.1667 15.4899 95.0964 15.3203 94.9714 15.1953C94.8464 15.0702 94.6768 15 94.5 15C94.3232 15 94.1536 15.0702 94.0286 15.1953C93.9036 15.3203 93.8333 15.4899 93.8333 15.6667V20.3333H89.1667C88.9899 20.3333 88.8203 20.4036 88.6953 20.5286C88.5702 20.6536 88.5 20.8232 88.5 21C88.5 21.1768 88.5702 21.3464 88.6953 21.4714C88.8203 21.5964 88.9899 21.6667 89.1667 21.6667H93.8333V26.3333Z" fill="#2059EE"/>
<path d="M114.503 16.2727V25H113.293L108.857 18.5994H108.776V25H107.459V16.2727H108.678L113.118 22.6818H113.199V16.2727H114.503ZM119.142 25.1321C118.498 25.1321 117.942 24.9943 117.476 24.7188C117.013 24.4403 116.655 24.0497 116.402 23.5469C116.152 23.0412 116.027 22.4489 116.027 21.7699C116.027 21.0994 116.152 20.5085 116.402 19.9972C116.655 19.4858 117.007 19.0866 117.459 18.7997C117.914 18.5128 118.445 18.3693 119.053 18.3693C119.422 18.3693 119.78 18.4304 120.127 18.5526C120.473 18.6747 120.784 18.8665 121.06 19.1278C121.336 19.3892 121.553 19.7287 121.712 20.1463C121.871 20.5611 121.951 21.0653 121.951 21.6591V22.1108H116.748V21.1562H120.702C120.702 20.821 120.634 20.5241 120.498 20.2656C120.361 20.0043 120.169 19.7983 119.922 19.6477C119.678 19.4972 119.391 19.4219 119.061 19.4219C118.703 19.4219 118.391 19.5099 118.124 19.6861C117.86 19.8594 117.655 20.0866 117.51 20.3679C117.368 20.6463 117.297 20.9489 117.297 21.2756V22.0213C117.297 22.4588 117.374 22.831 117.527 23.1378C117.684 23.4446 117.901 23.679 118.179 23.8409C118.458 24 118.783 24.0795 119.155 24.0795C119.397 24.0795 119.617 24.0455 119.816 23.9773C120.015 23.9062 120.186 23.8011 120.331 23.6619C120.476 23.5227 120.587 23.3509 120.664 23.1463L121.87 23.3636C121.773 23.7187 121.6 24.0298 121.35 24.2969C121.103 24.5611 120.792 24.767 120.417 24.9148C120.044 25.0597 119.62 25.1321 119.142 25.1321ZM124.772 25L122.846 18.4545H124.162L125.445 23.2614H125.509L126.796 18.4545H128.113L129.391 23.2401H129.455L130.729 18.4545H132.046L130.124 25H128.824L127.495 20.2741H127.397L126.067 25H124.772ZM143.782 19.1108H142.452C142.401 18.8267 142.306 18.5767 142.167 18.3608C142.027 18.1449 141.857 17.9616 141.655 17.8111C141.453 17.6605 141.228 17.5469 140.978 17.4702C140.73 17.3935 140.468 17.3551 140.189 17.3551C139.686 17.3551 139.236 17.4815 138.838 17.7344C138.444 17.9872 138.131 18.358 137.901 18.8466C137.674 19.3352 137.56 19.9318 137.56 20.6364C137.56 21.3466 137.674 21.946 137.901 22.4347C138.131 22.9233 138.445 23.2926 138.843 23.5426C139.24 23.7926 139.688 23.9176 140.185 23.9176C140.461 23.9176 140.722 23.8807 140.969 23.8068C141.219 23.7301 141.445 23.6179 141.647 23.4702C141.848 23.3224 142.019 23.142 142.158 22.929C142.3 22.7131 142.398 22.4659 142.452 22.1875L143.782 22.1918C143.711 22.6207 143.573 23.0156 143.368 23.3764C143.167 23.7344 142.907 24.044 142.588 24.3054C142.273 24.5639 141.912 24.7642 141.506 24.9062C141.1 25.0483 140.657 25.1193 140.176 25.1193C139.421 25.1193 138.748 24.9403 138.157 24.5824C137.566 24.2216 137.1 23.706 136.759 23.0355C136.421 22.3651 136.252 21.5653 136.252 20.6364C136.252 19.7045 136.422 18.9048 136.763 18.2372C137.104 17.5668 137.57 17.0526 138.161 16.6946C138.752 16.3338 139.424 16.1534 140.176 16.1534C140.64 16.1534 141.071 16.2202 141.472 16.3537C141.875 16.4844 142.238 16.6776 142.559 16.9332C142.88 17.1861 143.145 17.4957 143.355 17.8622C143.566 18.2259 143.708 18.642 143.782 19.1108ZM146.529 21.1136V25H145.255V16.2727H146.512V19.5199H146.593C146.746 19.1676 146.981 18.8878 147.296 18.6804C147.612 18.473 148.023 18.3693 148.532 18.3693C148.981 18.3693 149.373 18.4616 149.708 18.6463C150.046 18.831 150.308 19.1065 150.492 19.473C150.68 19.8366 150.773 20.2912 150.773 20.8366V25H149.499V20.9901C149.499 20.5099 149.376 20.1378 149.129 19.8736C148.881 19.6065 148.538 19.473 148.097 19.473C147.796 19.473 147.526 19.5369 147.288 19.6648C147.052 19.7926 146.866 19.9801 146.729 20.2273C146.596 20.4716 146.529 20.767 146.529 21.1136ZM154.379 25.1449C153.964 25.1449 153.589 25.0682 153.254 24.9148C152.918 24.7585 152.653 24.5327 152.457 24.2372C152.263 23.9418 152.167 23.5795 152.167 23.1506C152.167 22.7812 152.238 22.4773 152.38 22.2386C152.522 22 152.714 21.8111 152.955 21.6719C153.197 21.5327 153.467 21.4276 153.765 21.3565C154.063 21.2855 154.367 21.2315 154.677 21.1946C155.069 21.1491 155.387 21.1122 155.631 21.0838C155.876 21.0526 156.053 21.0028 156.164 20.9347C156.275 20.8665 156.33 20.7557 156.33 20.6023V20.5724C156.33 20.2003 156.225 19.9119 156.015 19.7074C155.808 19.5028 155.498 19.4006 155.086 19.4006C154.657 19.4006 154.319 19.4957 154.072 19.6861C153.827 19.8736 153.658 20.0824 153.565 20.3125L152.367 20.0398C152.509 19.642 152.717 19.321 152.989 19.0767C153.265 18.8295 153.582 18.6506 153.94 18.5398C154.298 18.4261 154.674 18.3693 155.069 18.3693C155.33 18.3693 155.607 18.4006 155.9 18.4631C156.195 18.5227 156.471 18.6335 156.727 18.7955C156.985 18.9574 157.197 19.1889 157.362 19.4901C157.526 19.7884 157.609 20.1761 157.609 20.6534V25H156.364V24.1051H156.313C156.231 24.2699 156.107 24.4318 155.942 24.5909C155.778 24.75 155.566 24.8821 155.308 24.9872C155.049 25.0923 154.739 25.1449 154.379 25.1449ZM154.656 24.1222C155.008 24.1222 155.309 24.0526 155.559 23.9134C155.812 23.7741 156.004 23.5923 156.134 23.3679C156.268 23.1406 156.335 22.8977 156.335 22.6392V21.7955C156.289 21.8409 156.201 21.8835 156.07 21.9233C155.942 21.9602 155.796 21.9929 155.631 22.0213C155.467 22.0469 155.306 22.071 155.15 22.0938C154.994 22.1136 154.863 22.1307 154.758 22.1449C154.511 22.1761 154.285 22.2287 154.08 22.3026C153.879 22.3764 153.717 22.483 153.594 22.6222C153.475 22.7585 153.415 22.9403 153.415 23.1676C153.415 23.483 153.532 23.7216 153.765 23.8835C153.998 24.0426 154.295 24.1222 154.656 24.1222ZM162.361 18.4545V19.4773H158.786V18.4545H162.361ZM159.745 16.8864H161.019V23.0781C161.019 23.3253 161.056 23.5114 161.13 23.6364C161.203 23.7585 161.299 23.8423 161.415 23.8878C161.534 23.9304 161.664 23.9517 161.803 23.9517C161.905 23.9517 161.995 23.9446 162.071 23.9304C162.148 23.9162 162.208 23.9048 162.25 23.8963L162.48 24.9489C162.407 24.9773 162.301 25.0057 162.165 25.0341C162.029 25.0653 161.858 25.0824 161.654 25.0852C161.319 25.0909 161.006 25.0312 160.716 24.9062C160.426 24.7812 160.192 24.5881 160.013 24.3267C159.834 24.0653 159.745 23.7372 159.745 23.3423V16.8864Z" fill="#2059EE"/>
</g>
<defs>
<filter id="filter0_d_245_318" x="30.5" y="0" width="189" height="44" filterUnits="userSpaceOnUse" color-interpolation-filters="sRGB">
<feFlood flood-opacity="0" result="BackgroundImageFix"/>
<feColorMatrix in="SourceAlpha" type="matrix" values="0 0 0 0 0 0 0 0 0 0 0 0 0 0 0 0 0 0 127 0" result="hardAlpha"/>
<feOffset dy="1"/>
<feGaussianBlur stdDeviation="1"/>
<feColorMatrix type="matrix" values="0 0 0 0 0 0 0 0 0 0 0 0 0 0 0 0 0 0 0.05 0"/>
<feBlend mode="normal" in2="BackgroundImageFix" result="effect1_dropShadow_245_318"/>
<feBlend mode="normal" in="SourceGraphic" in2="effect1_dropShadow_245_318" result="shape"/>
</filter>
</defs>
</svg>
