<svg width="125" height="24" viewBox="0 0 125 24" fill="none" xmlns="http://www.w3.org/2000/svg">
<path d="M19.5 14.25V11.625C19.5 10.7299 19.1444 9.87145 18.5115 9.23851C17.8786 8.60558 17.0201 8.25 16.125 8.25H14.625C14.3266 8.25 14.0405 8.13147 13.8295 7.9205C13.6185 7.70952 13.5 7.42337 13.5 7.125V5.625C13.5 4.72989 13.1444 3.87145 12.5115 3.23851C11.8785 2.60558 11.0201 2.25 10.125 2.25H8.25M8.25 15H15.75M8.25 18H12M10.5 2.25H5.625C5.004 2.25 4.5 2.754 4.5 3.375V20.625C4.5 21.246 5.004 21.75 5.625 21.75H18.375C18.996 21.75 19.5 21.246 19.5 20.625V11.25C19.5 8.86305 18.5518 6.57387 16.864 4.88604C15.1761 3.19821 12.8869 2.25 10.5 2.25Z" stroke="#4B5563" stroke-width="1.5" stroke-linecap="round" stroke-linejoin="round"/>
<path d="M19.5 14.25V11.625C19.5 10.7299 19.1444 9.87145 18.5115 9.23851C17.8786 8.60558 17.0201 8.25 16.125 8.25H14.625C14.3266 8.25 14.0405 8.13147 13.8295 7.9205C13.6185 7.70952 13.5 7.42337 13.5 7.125V5.625C13.5 4.72989 13.1444 3.87145 12.5115 3.23851C11.8785 2.60558 11.0201 2.25 10.125 2.25H8.25M8.25 15H15.75M8.25 18H12M10.5 2.25H5.625C5.004 2.25 4.5 2.754 4.5 3.375V20.625C4.5 21.246 5.004 21.75 5.625 21.75H18.375C18.996 21.75 19.5 21.246 19.5 20.625V11.25C19.5 8.86305 18.5518 6.57387 16.864 4.88604C15.1761 3.19821 12.8869 2.25 10.5 2.25Z" stroke="black" stroke-opacity="0.2" stroke-width="1.5" stroke-linecap="round" stroke-linejoin="round"/>
<path d="M19.5 14.25V11.625C19.5 10.7299 19.1444 9.87145 18.5115 9.23851C17.8786 8.60558 17.0201 8.25 16.125 8.25H14.625C14.3266 8.25 14.0405 8.13147 13.8295 7.9205C13.6185 7.70952 13.5 7.42337 13.5 7.125V5.625C13.5 4.72989 13.1444 3.87145 12.5115 3.23851C11.8785 2.60558 11.0201 2.25 10.125 2.25H8.25M8.25 15H15.75M8.25 18H12M10.5 2.25H5.625C5.004 2.25 4.5 2.754 4.5 3.375V20.625C4.5 21.246 5.004 21.75 5.625 21.75H18.375C18.996 21.75 19.5 21.246 19.5 20.625V11.25C19.5 8.86305 18.5518 6.57387 16.864 4.88604C15.1761 3.19821 12.8869 2.25 10.5 2.25Z" stroke="black" stroke-opacity="0.2" stroke-width="1.5" stroke-linecap="round" stroke-linejoin="round"/>
<path d="M19.5 14.25V11.625C19.5 10.7299 19.1444 9.87145 18.5115 9.23851C17.8786 8.60558 17.0201 8.25 16.125 8.25H14.625C14.3266 8.25 14.0405 8.13147 13.8295 7.9205C13.6185 7.70952 13.5 7.42337 13.5 7.125V5.625C13.5 4.72989 13.1444 3.87145 12.5115 3.23851C11.8785 2.60558 11.0201 2.25 10.125 2.25H8.25M8.25 15H15.75M8.25 18H12M10.5 2.25H5.625C5.004 2.25 4.5 2.754 4.5 3.375V20.625C4.5 21.246 5.004 21.75 5.625 21.75H18.375C18.996 21.75 19.5 21.246 19.5 20.625V11.25C19.5 8.86305 18.5518 6.57387 16.864 4.88604C15.1761 3.19821 12.8869 2.25 10.5 2.25Z" stroke="black" stroke-opacity="0.2" stroke-width="1.5" stroke-linecap="round" stroke-linejoin="round"/>
<path d="M33.1186 17V6.81818H36.7479C37.54 6.81818 38.1963 6.96236 38.7166 7.25071C39.237 7.53906 39.6264 7.93347 39.8849 8.43395C40.1435 8.93111 40.2727 9.49124 40.2727 10.1143C40.2727 10.7408 40.1418 11.3042 39.88 11.8047C39.6214 12.3018 39.2304 12.6963 38.7067 12.9879C38.1863 13.2763 37.5317 13.4205 36.7429 13.4205H34.2472V12.1179H36.6037C37.1042 12.1179 37.5102 12.0317 37.8217 11.8594C38.1333 11.6837 38.362 11.4451 38.5078 11.1435C38.6536 10.8419 38.7266 10.4988 38.7266 10.1143C38.7266 9.72988 38.6536 9.38849 38.5078 9.0902C38.362 8.7919 38.1316 8.55824 37.8168 8.3892C37.5052 8.22017 37.0942 8.13565 36.5838 8.13565H34.6548V17H33.1186ZM41.9544 17V9.36364H43.3912V10.5767H43.4707C43.6099 10.1657 43.8552 9.84257 44.2065 9.60724C44.5611 9.36861 44.9622 9.24929 45.4096 9.24929C45.5024 9.24929 45.6118 9.2526 45.7377 9.25923C45.867 9.26586 45.9681 9.27415 46.041 9.28409V10.706C45.9814 10.6894 45.8753 10.6712 45.7228 10.6513C45.5704 10.6281 45.4179 10.6165 45.2654 10.6165C44.9141 10.6165 44.6009 10.6911 44.3258 10.8402C44.054 10.986 43.8386 11.1899 43.6795 11.4517C43.5204 11.7102 43.4409 12.0052 43.4409 12.3366V17H41.9544ZM47.3274 17V9.36364H48.8139V17H47.3274ZM48.0781 8.18537C47.8196 8.18537 47.5975 8.09919 47.4119 7.92685C47.2296 7.75118 47.1385 7.54238 47.1385 7.30043C47.1385 7.05516 47.2296 6.84635 47.4119 6.67401C47.5975 6.49834 47.8196 6.41051 48.0781 6.41051C48.3366 6.41051 48.5571 6.49834 48.7393 6.67401C48.925 6.84635 49.0178 7.05516 49.0178 7.30043C49.0178 7.54238 48.925 7.75118 48.7393 7.92685C48.5571 8.09919 48.3366 8.18537 48.0781 8.18537ZM57.3464 9.36364L54.5772 17H52.9863L50.2122 9.36364H51.8081L53.742 15.2401H53.8216L55.7505 9.36364H57.3464ZM60.747 17.169C60.2631 17.169 59.8256 17.0795 59.4345 16.9006C59.0434 16.7183 58.7335 16.4548 58.5048 16.1101C58.2794 15.7654 58.1667 15.3428 58.1667 14.8423C58.1667 14.4115 58.2496 14.0568 58.4153 13.7784C58.581 13.5 58.8047 13.2796 59.0865 13.1172C59.3682 12.9548 59.6831 12.8321 60.0311 12.7493C60.3791 12.6664 60.7337 12.6035 61.095 12.5604C61.5524 12.5073 61.9236 12.4643 62.2086 12.4311C62.4937 12.3946 62.7008 12.3366 62.8301 12.2571C62.9593 12.1776 63.024 12.0483 63.024 11.8693V11.8345C63.024 11.4003 62.9013 11.0639 62.6561 10.8253C62.4141 10.5866 62.0529 10.4673 61.5723 10.4673C61.0718 10.4673 60.6774 10.5784 60.389 10.8004C60.104 11.0192 59.9068 11.2628 59.7974 11.5312L58.4004 11.2131C58.5661 10.7491 58.8081 10.3745 59.1262 10.0895C59.4477 9.80114 59.8173 9.59233 60.2349 9.46307C60.6525 9.33049 61.0917 9.2642 61.5524 9.2642C61.8573 9.2642 62.1805 9.30066 62.5218 9.37358C62.8665 9.44318 63.188 9.57244 63.4863 9.76136C63.7879 9.95028 64.0349 10.2204 64.2271 10.5717C64.4193 10.9197 64.5154 11.3722 64.5154 11.929V17H63.0637V15.956H63.0041C62.908 16.1482 62.7638 16.3371 62.5716 16.5227C62.3793 16.7083 62.1324 16.8625 61.8308 16.9851C61.5292 17.1077 61.1679 17.169 60.747 17.169ZM61.0701 15.9759C61.4811 15.9759 61.8324 15.8946 62.1241 15.7322C62.4191 15.5698 62.6428 15.3577 62.7953 15.0959C62.9511 14.8307 63.0289 14.5473 63.0289 14.2457V13.2614C62.9759 13.3144 62.8732 13.3641 62.7207 13.4105C62.5716 13.4536 62.4009 13.4917 62.2086 13.5249C62.0164 13.5547 61.8291 13.5829 61.6468 13.6094C61.4645 13.6326 61.3121 13.6525 61.1895 13.669C60.9011 13.7055 60.6376 13.7668 60.399 13.853C60.1636 13.9392 59.9747 14.0634 59.8322 14.2259C59.693 14.3849 59.6234 14.5971 59.6234 14.8622C59.6234 15.2301 59.7593 15.5085 60.0311 15.6974C60.3029 15.883 60.6492 15.9759 61.0701 15.9759ZM69.712 17.1541C68.9729 17.1541 68.3365 16.9867 67.8029 16.652C67.2726 16.3139 66.8649 15.8482 66.5799 15.255C66.2949 14.6617 66.1523 13.9822 66.1523 13.2166C66.1523 12.4411 66.2982 11.7566 66.5898 11.1634C66.8815 10.5668 67.2925 10.1011 67.8228 9.76633C68.3531 9.43158 68.9779 9.2642 69.6971 9.2642C70.2771 9.2642 70.7942 9.37192 71.2482 9.58736C71.7023 9.79948 72.0685 10.0978 72.3469 10.4822C72.6287 10.8667 72.796 11.3158 72.8491 11.8295H71.4023C71.3228 11.4716 71.1405 11.1634 70.8555 10.9048C70.5737 10.6463 70.1959 10.517 69.7219 10.517C69.3076 10.517 68.9447 10.6264 68.6332 10.8452C68.3249 11.0606 68.0846 11.3688 67.9123 11.7699C67.7399 12.1676 67.6538 12.6383 67.6538 13.1818C67.6538 13.7386 67.7383 14.2192 67.9073 14.6236C68.0763 15.0279 68.315 15.3411 68.6232 15.5632C68.9348 15.7853 69.301 15.8963 69.7219 15.8963C70.0037 15.8963 70.2589 15.8449 70.4876 15.7422C70.7196 15.6361 70.9135 15.4853 71.0692 15.2898C71.2283 15.0942 71.3394 14.8589 71.4023 14.5838H72.8491C72.796 15.0777 72.6353 15.5185 72.3668 15.9062C72.0984 16.294 71.7388 16.599 71.288 16.821C70.8406 17.0431 70.3152 17.1541 69.712 17.1541ZM75.3784 19.8636C75.1563 19.8636 74.9541 19.8454 74.7718 19.8089C74.5895 19.7758 74.4537 19.7393 74.3642 19.6996L74.7221 18.4815C74.9939 18.5545 75.2359 18.5859 75.448 18.576C75.6601 18.5661 75.8474 18.4865 76.0098 18.3374C76.1755 18.1882 76.3213 17.9446 76.4473 17.6065L76.6312 17.0994L73.8372 9.36364H75.4281L77.362 15.2898H77.4416L79.3755 9.36364H80.9714L77.8244 18.0192C77.6786 18.4169 77.493 18.7533 77.2676 19.0284C77.0422 19.3068 76.7737 19.5156 76.4622 19.6548C76.1506 19.794 75.7894 19.8636 75.3784 19.8636ZM86.0735 19.8636V9.36364H87.5252V10.6016H87.6495C87.7357 10.4425 87.86 10.2585 88.0224 10.0497C88.1848 9.84091 88.4102 9.65862 88.6985 9.50284C88.9869 9.34375 89.368 9.2642 89.842 9.2642C90.4585 9.2642 91.0086 9.41998 91.4925 9.73153C91.9764 10.0431 92.3559 10.4922 92.631 11.0788C92.9094 11.6655 93.0487 12.3714 93.0487 13.1967C93.0487 14.022 92.9111 14.7296 92.636 15.3196C92.3609 15.9062 91.9831 16.3587 91.5025 16.6768C91.0219 16.9917 90.4734 17.1491 89.8569 17.1491C89.3929 17.1491 89.0134 17.0713 88.7184 16.9155C88.4267 16.7597 88.198 16.5774 88.0323 16.3686C87.8666 16.1598 87.739 15.9742 87.6495 15.8118H87.56V19.8636H86.0735ZM87.5302 13.1818C87.5302 13.7187 87.6081 14.1894 87.7638 14.5938C87.9196 14.9981 88.145 15.3146 88.44 15.5433C88.735 15.7687 89.0962 15.8814 89.5238 15.8814C89.9679 15.8814 90.3391 15.7637 90.6374 15.5284C90.9357 15.2898 91.1611 14.9666 91.3136 14.5589C91.4693 14.1513 91.5472 13.6922 91.5472 13.1818C91.5472 12.678 91.471 12.2256 91.3185 11.8246C91.1694 11.4235 90.944 11.107 90.6424 10.875C90.3441 10.643 89.9712 10.527 89.5238 10.527C89.0929 10.527 88.7283 10.638 88.43 10.8601C88.1351 11.0821 87.9113 11.392 87.7589 11.7898C87.6064 12.1875 87.5302 12.6515 87.5302 13.1818ZM97.9308 17.1541C97.2148 17.1541 96.5901 16.9901 96.0565 16.6619C95.5228 16.3338 95.1085 15.8748 94.8136 15.2848C94.5186 14.6948 94.3711 14.0054 94.3711 13.2166C94.3711 12.4245 94.5186 11.7318 94.8136 11.1385C95.1085 10.5452 95.5228 10.0845 96.0565 9.75639C96.5901 9.42827 97.2148 9.2642 97.9308 9.2642C98.6467 9.2642 99.2714 9.42827 99.805 9.75639C100.339 10.0845 100.753 10.5452 101.048 11.1385C101.343 11.7318 101.49 12.4245 101.49 13.2166C101.49 14.0054 101.343 14.6948 101.048 15.2848C100.753 15.8748 100.339 16.3338 99.805 16.6619C99.2714 16.9901 98.6467 17.1541 97.9308 17.1541ZM97.9357 15.9062C98.3997 15.9062 98.7842 15.7836 99.0891 15.5384C99.3941 15.2931 99.6194 14.9666 99.7653 14.5589C99.9144 14.1513 99.989 13.7022 99.989 13.2116C99.989 12.7244 99.9144 12.277 99.7653 11.8693C99.6194 11.4583 99.3941 11.1286 99.0891 10.88C98.7842 10.6314 98.3997 10.5071 97.9357 10.5071C97.4684 10.5071 97.0806 10.6314 96.7724 10.88C96.4674 11.1286 96.2404 11.4583 96.0913 11.8693C95.9454 12.277 95.8725 12.7244 95.8725 13.2116C95.8725 13.7022 95.9454 14.1513 96.0913 14.5589C96.2404 14.9666 96.4674 15.2931 96.7724 15.5384C97.0806 15.7836 97.4684 15.9062 97.9357 15.9062ZM104.636 6.81818V17H103.15V6.81818H104.636ZM106.636 17V9.36364H108.123V17H106.636ZM107.387 8.18537C107.128 8.18537 106.906 8.09919 106.721 7.92685C106.538 7.75118 106.447 7.54238 106.447 7.30043C106.447 7.05516 106.538 6.84635 106.721 6.67401C106.906 6.49834 107.128 6.41051 107.387 6.41051C107.645 6.41051 107.866 6.49834 108.048 6.67401C108.234 6.84635 108.326 7.05516 108.326 7.30043C108.326 7.54238 108.234 7.75118 108.048 7.92685C107.866 8.09919 107.645 8.18537 107.387 8.18537ZM113.339 17.1541C112.6 17.1541 111.963 16.9867 111.43 16.652C110.9 16.3139 110.492 15.8482 110.207 15.255C109.922 14.6617 109.779 13.9822 109.779 13.2166C109.779 12.4411 109.925 11.7566 110.217 11.1634C110.508 10.5668 110.919 10.1011 111.45 9.76633C111.98 9.43158 112.605 9.2642 113.324 9.2642C113.904 9.2642 114.421 9.37192 114.875 9.58736C115.329 9.79948 115.695 10.0978 115.974 10.4822C116.256 10.8667 116.423 11.3158 116.476 11.8295H115.029C114.95 11.4716 114.767 11.1634 114.482 10.9048C114.201 10.6463 113.823 10.517 113.349 10.517C112.935 10.517 112.572 10.6264 112.26 10.8452C111.952 11.0606 111.712 11.3688 111.539 11.7699C111.367 12.1676 111.281 12.6383 111.281 13.1818C111.281 13.7386 111.365 14.2192 111.534 14.6236C111.703 15.0279 111.942 15.3411 112.25 15.5632C112.562 15.7853 112.928 15.8963 113.349 15.8963C113.631 15.8963 113.886 15.8449 114.115 15.7422C114.347 15.6361 114.54 15.4853 114.696 15.2898C114.855 15.0942 114.966 14.8589 115.029 14.5838H116.476C116.423 15.0777 116.262 15.5185 115.994 15.9062C115.725 16.294 115.366 16.599 114.915 16.821C114.468 17.0431 113.942 17.1541 113.339 17.1541ZM119.005 19.8636C118.783 19.8636 118.581 19.8454 118.399 19.8089C118.217 19.7758 118.081 19.7393 117.991 19.6996L118.349 18.4815C118.621 18.5545 118.863 18.5859 119.075 18.576C119.287 18.5661 119.474 18.4865 119.637 18.3374C119.802 18.1882 119.948 17.9446 120.074 17.6065L120.258 17.0994L117.464 9.36364H119.055L120.989 15.2898H121.069L123.002 9.36364H124.598L121.451 18.0192C121.306 18.4169 121.12 18.7533 120.895 19.0284C120.669 19.3068 120.401 19.5156 120.089 19.6548C119.778 19.794 119.416 19.8636 119.005 19.8636Z" fill="#4B5563"/>
<path d="M33.1186 17V6.81818H36.7479C37.54 6.81818 38.1963 6.96236 38.7166 7.25071C39.237 7.53906 39.6264 7.93347 39.8849 8.43395C40.1435 8.93111 40.2727 9.49124 40.2727 10.1143C40.2727 10.7408 40.1418 11.3042 39.88 11.8047C39.6214 12.3018 39.2304 12.6963 38.7067 12.9879C38.1863 13.2763 37.5317 13.4205 36.7429 13.4205H34.2472V12.1179H36.6037C37.1042 12.1179 37.5102 12.0317 37.8217 11.8594C38.1333 11.6837 38.362 11.4451 38.5078 11.1435C38.6536 10.8419 38.7266 10.4988 38.7266 10.1143C38.7266 9.72988 38.6536 9.38849 38.5078 9.0902C38.362 8.7919 38.1316 8.55824 37.8168 8.3892C37.5052 8.22017 37.0942 8.13565 36.5838 8.13565H34.6548V17H33.1186ZM41.9544 17V9.36364H43.3912V10.5767H43.4707C43.6099 10.1657 43.8552 9.84257 44.2065 9.60724C44.5611 9.36861 44.9622 9.24929 45.4096 9.24929C45.5024 9.24929 45.6118 9.2526 45.7377 9.25923C45.867 9.26586 45.9681 9.27415 46.041 9.28409V10.706C45.9814 10.6894 45.8753 10.6712 45.7228 10.6513C45.5704 10.6281 45.4179 10.6165 45.2654 10.6165C44.9141 10.6165 44.6009 10.6911 44.3258 10.8402C44.054 10.986 43.8386 11.1899 43.6795 11.4517C43.5204 11.7102 43.4409 12.0052 43.4409 12.3366V17H41.9544ZM47.3274 17V9.36364H48.8139V17H47.3274ZM48.0781 8.18537C47.8196 8.18537 47.5975 8.09919 47.4119 7.92685C47.2296 7.75118 47.1385 7.54238 47.1385 7.30043C47.1385 7.05516 47.2296 6.84635 47.4119 6.67401C47.5975 6.49834 47.8196 6.41051 48.0781 6.41051C48.3366 6.41051 48.5571 6.49834 48.7393 6.67401C48.925 6.84635 49.0178 7.05516 49.0178 7.30043C49.0178 7.54238 48.925 7.75118 48.7393 7.92685C48.5571 8.09919 48.3366 8.18537 48.0781 8.18537ZM57.3464 9.36364L54.5772 17H52.9863L50.2122 9.36364H51.8081L53.742 15.2401H53.8216L55.7505 9.36364H57.3464ZM60.747 17.169C60.2631 17.169 59.8256 17.0795 59.4345 16.9006C59.0434 16.7183 58.7335 16.4548 58.5048 16.1101C58.2794 15.7654 58.1667 15.3428 58.1667 14.8423C58.1667 14.4115 58.2496 14.0568 58.4153 13.7784C58.581 13.5 58.8047 13.2796 59.0865 13.1172C59.3682 12.9548 59.6831 12.8321 60.0311 12.7493C60.3791 12.6664 60.7337 12.6035 61.095 12.5604C61.5524 12.5073 61.9236 12.4643 62.2086 12.4311C62.4937 12.3946 62.7008 12.3366 62.8301 12.2571C62.9593 12.1776 63.024 12.0483 63.024 11.8693V11.8345C63.024 11.4003 62.9013 11.0639 62.6561 10.8253C62.4141 10.5866 62.0529 10.4673 61.5723 10.4673C61.0718 10.4673 60.6774 10.5784 60.389 10.8004C60.104 11.0192 59.9068 11.2628 59.7974 11.5312L58.4004 11.2131C58.5661 10.7491 58.8081 10.3745 59.1262 10.0895C59.4477 9.80114 59.8173 9.59233 60.2349 9.46307C60.6525 9.33049 61.0917 9.2642 61.5524 9.2642C61.8573 9.2642 62.1805 9.30066 62.5218 9.37358C62.8665 9.44318 63.188 9.57244 63.4863 9.76136C63.7879 9.95028 64.0349 10.2204 64.2271 10.5717C64.4193 10.9197 64.5154 11.3722 64.5154 11.929V17H63.0637V15.956H63.0041C62.908 16.1482 62.7638 16.3371 62.5716 16.5227C62.3793 16.7083 62.1324 16.8625 61.8308 16.9851C61.5292 17.1077 61.1679 17.169 60.747 17.169ZM61.0701 15.9759C61.4811 15.9759 61.8324 15.8946 62.1241 15.7322C62.4191 15.5698 62.6428 15.3577 62.7953 15.0959C62.9511 14.8307 63.0289 14.5473 63.0289 14.2457V13.2614C62.9759 13.3144 62.8732 13.3641 62.7207 13.4105C62.5716 13.4536 62.4009 13.4917 62.2086 13.5249C62.0164 13.5547 61.8291 13.5829 61.6468 13.6094C61.4645 13.6326 61.3121 13.6525 61.1895 13.669C60.9011 13.7055 60.6376 13.7668 60.399 13.853C60.1636 13.9392 59.9747 14.0634 59.8322 14.2259C59.693 14.3849 59.6234 14.5971 59.6234 14.8622C59.6234 15.2301 59.7593 15.5085 60.0311 15.6974C60.3029 15.883 60.6492 15.9759 61.0701 15.9759ZM69.712 17.1541C68.9729 17.1541 68.3365 16.9867 67.8029 16.652C67.2726 16.3139 66.8649 15.8482 66.5799 15.255C66.2949 14.6617 66.1523 13.9822 66.1523 13.2166C66.1523 12.4411 66.2982 11.7566 66.5898 11.1634C66.8815 10.5668 67.2925 10.1011 67.8228 9.76633C68.3531 9.43158 68.9779 9.2642 69.6971 9.2642C70.2771 9.2642 70.7942 9.37192 71.2482 9.58736C71.7023 9.79948 72.0685 10.0978 72.3469 10.4822C72.6287 10.8667 72.796 11.3158 72.8491 11.8295H71.4023C71.3228 11.4716 71.1405 11.1634 70.8555 10.9048C70.5737 10.6463 70.1959 10.517 69.7219 10.517C69.3076 10.517 68.9447 10.6264 68.6332 10.8452C68.3249 11.0606 68.0846 11.3688 67.9123 11.7699C67.7399 12.1676 67.6538 12.6383 67.6538 13.1818C67.6538 13.7386 67.7383 14.2192 67.9073 14.6236C68.0763 15.0279 68.315 15.3411 68.6232 15.5632C68.9348 15.7853 69.301 15.8963 69.7219 15.8963C70.0037 15.8963 70.2589 15.8449 70.4876 15.7422C70.7196 15.6361 70.9135 15.4853 71.0692 15.2898C71.2283 15.0942 71.3394 14.8589 71.4023 14.5838H72.8491C72.796 15.0777 72.6353 15.5185 72.3668 15.9062C72.0984 16.294 71.7388 16.599 71.288 16.821C70.8406 17.0431 70.3152 17.1541 69.712 17.1541ZM75.3784 19.8636C75.1563 19.8636 74.9541 19.8454 74.7718 19.8089C74.5895 19.7758 74.4537 19.7393 74.3642 19.6996L74.7221 18.4815C74.9939 18.5545 75.2359 18.5859 75.448 18.576C75.6601 18.5661 75.8474 18.4865 76.0098 18.3374C76.1755 18.1882 76.3213 17.9446 76.4473 17.6065L76.6312 17.0994L73.8372 9.36364H75.4281L77.362 15.2898H77.4416L79.3755 9.36364H80.9714L77.8244 18.0192C77.6786 18.4169 77.493 18.7533 77.2676 19.0284C77.0422 19.3068 76.7737 19.5156 76.4622 19.6548C76.1506 19.794 75.7894 19.8636 75.3784 19.8636ZM86.0735 19.8636V9.36364H87.5252V10.6016H87.6495C87.7357 10.4425 87.86 10.2585 88.0224 10.0497C88.1848 9.84091 88.4102 9.65862 88.6985 9.50284C88.9869 9.34375 89.368 9.2642 89.842 9.2642C90.4585 9.2642 91.0086 9.41998 91.4925 9.73153C91.9764 10.0431 92.3559 10.4922 92.631 11.0788C92.9094 11.6655 93.0487 12.3714 93.0487 13.1967C93.0487 14.022 92.9111 14.7296 92.636 15.3196C92.3609 15.9062 91.9831 16.3587 91.5025 16.6768C91.0219 16.9917 90.4734 17.1491 89.8569 17.1491C89.3929 17.1491 89.0134 17.0713 88.7184 16.9155C88.4267 16.7597 88.198 16.5774 88.0323 16.3686C87.8666 16.1598 87.739 15.9742 87.6495 15.8118H87.56V19.8636H86.0735ZM87.5302 13.1818C87.5302 13.7187 87.6081 14.1894 87.7638 14.5938C87.9196 14.9981 88.145 15.3146 88.44 15.5433C88.735 15.7687 89.0962 15.8814 89.5238 15.8814C89.9679 15.8814 90.3391 15.7637 90.6374 15.5284C90.9357 15.2898 91.1611 14.9666 91.3136 14.5589C91.4693 14.1513 91.5472 13.6922 91.5472 13.1818C91.5472 12.678 91.471 12.2256 91.3185 11.8246C91.1694 11.4235 90.944 11.107 90.6424 10.875C90.3441 10.643 89.9712 10.527 89.5238 10.527C89.0929 10.527 88.7283 10.638 88.43 10.8601C88.1351 11.0821 87.9113 11.392 87.7589 11.7898C87.6064 12.1875 87.5302 12.6515 87.5302 13.1818ZM97.9308 17.1541C97.2148 17.1541 96.5901 16.9901 96.0565 16.6619C95.5228 16.3338 95.1085 15.8748 94.8136 15.2848C94.5186 14.6948 94.3711 14.0054 94.3711 13.2166C94.3711 12.4245 94.5186 11.7318 94.8136 11.1385C95.1085 10.5452 95.5228 10.0845 96.0565 9.75639C96.5901 9.42827 97.2148 9.2642 97.9308 9.2642C98.6467 9.2642 99.2714 9.42827 99.805 9.75639C100.339 10.0845 100.753 10.5452 101.048 11.1385C101.343 11.7318 101.49 12.4245 101.49 13.2166C101.49 14.0054 101.343 14.6948 101.048 15.2848C100.753 15.8748 100.339 16.3338 99.805 16.6619C99.2714 16.9901 98.6467 17.1541 97.9308 17.1541ZM97.9357 15.9062C98.3997 15.9062 98.7842 15.7836 99.0891 15.5384C99.3941 15.2931 99.6194 14.9666 99.7653 14.5589C99.9144 14.1513 99.989 13.7022 99.989 13.2116C99.989 12.7244 99.9144 12.277 99.7653 11.8693C99.6194 11.4583 99.3941 11.1286 99.0891 10.88C98.7842 10.6314 98.3997 10.5071 97.9357 10.5071C97.4684 10.5071 97.0806 10.6314 96.7724 10.88C96.4674 11.1286 96.2404 11.4583 96.0913 11.8693C95.9454 12.277 95.8725 12.7244 95.8725 13.2116C95.8725 13.7022 95.9454 14.1513 96.0913 14.5589C96.2404 14.9666 96.4674 15.2931 96.7724 15.5384C97.0806 15.7836 97.4684 15.9062 97.9357 15.9062ZM104.636 6.81818V17H103.15V6.81818H104.636ZM106.636 17V9.36364H108.123V17H106.636ZM107.387 8.18537C107.128 8.18537 106.906 8.09919 106.721 7.92685C106.538 7.75118 106.447 7.54238 106.447 7.30043C106.447 7.05516 106.538 6.84635 106.721 6.67401C106.906 6.49834 107.128 6.41051 107.387 6.41051C107.645 6.41051 107.866 6.49834 108.048 6.67401C108.234 6.84635 108.326 7.05516 108.326 7.30043C108.326 7.54238 108.234 7.75118 108.048 7.92685C107.866 8.09919 107.645 8.18537 107.387 8.18537ZM113.339 17.1541C112.6 17.1541 111.963 16.9867 111.43 16.652C110.9 16.3139 110.492 15.8482 110.207 15.255C109.922 14.6617 109.779 13.9822 109.779 13.2166C109.779 12.4411 109.925 11.7566 110.217 11.1634C110.508 10.5668 110.919 10.1011 111.45 9.76633C111.98 9.43158 112.605 9.2642 113.324 9.2642C113.904 9.2642 114.421 9.37192 114.875 9.58736C115.329 9.79948 115.695 10.0978 115.974 10.4822C116.256 10.8667 116.423 11.3158 116.476 11.8295H115.029C114.95 11.4716 114.767 11.1634 114.482 10.9048C114.201 10.6463 113.823 10.517 113.349 10.517C112.935 10.517 112.572 10.6264 112.26 10.8452C111.952 11.0606 111.712 11.3688 111.539 11.7699C111.367 12.1676 111.281 12.6383 111.281 13.1818C111.281 13.7386 111.365 14.2192 111.534 14.6236C111.703 15.0279 111.942 15.3411 112.25 15.5632C112.562 15.7853 112.928 15.8963 113.349 15.8963C113.631 15.8963 113.886 15.8449 114.115 15.7422C114.347 15.6361 114.54 15.4853 114.696 15.2898C114.855 15.0942 114.966 14.8589 115.029 14.5838H116.476C116.423 15.0777 116.262 15.5185 115.994 15.9062C115.725 16.294 115.366 16.599 114.915 16.821C114.468 17.0431 113.942 17.1541 113.339 17.1541ZM119.005 19.8636C118.783 19.8636 118.581 19.8454 118.399 19.8089C118.217 19.7758 118.081 19.7393 117.991 19.6996L118.349 18.4815C118.621 18.5545 118.863 18.5859 119.075 18.576C119.287 18.5661 119.474 18.4865 119.637 18.3374C119.802 18.1882 119.948 17.9446 120.074 17.6065L120.258 17.0994L117.464 9.36364H119.055L120.989 15.2898H121.069L123.002 9.36364H124.598L121.451 18.0192C121.306 18.4169 121.12 18.7533 120.895 19.0284C120.669 19.3068 120.401 19.5156 120.089 19.6548C119.778 19.794 119.416 19.8636 119.005 19.8636Z" fill="black" fill-opacity="0.2"/>
<path d="M33.1186 17V6.81818H36.7479C37.54 6.81818 38.1963 6.96236 38.7166 7.25071C39.237 7.53906 39.6264 7.93347 39.8849 8.43395C40.1435 8.93111 40.2727 9.49124 40.2727 10.1143C40.2727 10.7408 40.1418 11.3042 39.88 11.8047C39.6214 12.3018 39.2304 12.6963 38.7067 12.9879C38.1863 13.2763 37.5317 13.4205 36.7429 13.4205H34.2472V12.1179H36.6037C37.1042 12.1179 37.5102 12.0317 37.8217 11.8594C38.1333 11.6837 38.362 11.4451 38.5078 11.1435C38.6536 10.8419 38.7266 10.4988 38.7266 10.1143C38.7266 9.72988 38.6536 9.38849 38.5078 9.0902C38.362 8.7919 38.1316 8.55824 37.8168 8.3892C37.5052 8.22017 37.0942 8.13565 36.5838 8.13565H34.6548V17H33.1186ZM41.9544 17V9.36364H43.3912V10.5767H43.4707C43.6099 10.1657 43.8552 9.84257 44.2065 9.60724C44.5611 9.36861 44.9622 9.24929 45.4096 9.24929C45.5024 9.24929 45.6118 9.2526 45.7377 9.25923C45.867 9.26586 45.9681 9.27415 46.041 9.28409V10.706C45.9814 10.6894 45.8753 10.6712 45.7228 10.6513C45.5704 10.6281 45.4179 10.6165 45.2654 10.6165C44.9141 10.6165 44.6009 10.6911 44.3258 10.8402C44.054 10.986 43.8386 11.1899 43.6795 11.4517C43.5204 11.7102 43.4409 12.0052 43.4409 12.3366V17H41.9544ZM47.3274 17V9.36364H48.8139V17H47.3274ZM48.0781 8.18537C47.8196 8.18537 47.5975 8.09919 47.4119 7.92685C47.2296 7.75118 47.1385 7.54238 47.1385 7.30043C47.1385 7.05516 47.2296 6.84635 47.4119 6.67401C47.5975 6.49834 47.8196 6.41051 48.0781 6.41051C48.3366 6.41051 48.5571 6.49834 48.7393 6.67401C48.925 6.84635 49.0178 7.05516 49.0178 7.30043C49.0178 7.54238 48.925 7.75118 48.7393 7.92685C48.5571 8.09919 48.3366 8.18537 48.0781 8.18537ZM57.3464 9.36364L54.5772 17H52.9863L50.2122 9.36364H51.8081L53.742 15.2401H53.8216L55.7505 9.36364H57.3464ZM60.747 17.169C60.2631 17.169 59.8256 17.0795 59.4345 16.9006C59.0434 16.7183 58.7335 16.4548 58.5048 16.1101C58.2794 15.7654 58.1667 15.3428 58.1667 14.8423C58.1667 14.4115 58.2496 14.0568 58.4153 13.7784C58.581 13.5 58.8047 13.2796 59.0865 13.1172C59.3682 12.9548 59.6831 12.8321 60.0311 12.7493C60.3791 12.6664 60.7337 12.6035 61.095 12.5604C61.5524 12.5073 61.9236 12.4643 62.2086 12.4311C62.4937 12.3946 62.7008 12.3366 62.8301 12.2571C62.9593 12.1776 63.024 12.0483 63.024 11.8693V11.8345C63.024 11.4003 62.9013 11.0639 62.6561 10.8253C62.4141 10.5866 62.0529 10.4673 61.5723 10.4673C61.0718 10.4673 60.6774 10.5784 60.389 10.8004C60.104 11.0192 59.9068 11.2628 59.7974 11.5312L58.4004 11.2131C58.5661 10.7491 58.8081 10.3745 59.1262 10.0895C59.4477 9.80114 59.8173 9.59233 60.2349 9.46307C60.6525 9.33049 61.0917 9.2642 61.5524 9.2642C61.8573 9.2642 62.1805 9.30066 62.5218 9.37358C62.8665 9.44318 63.188 9.57244 63.4863 9.76136C63.7879 9.95028 64.0349 10.2204 64.2271 10.5717C64.4193 10.9197 64.5154 11.3722 64.5154 11.929V17H63.0637V15.956H63.0041C62.908 16.1482 62.7638 16.3371 62.5716 16.5227C62.3793 16.7083 62.1324 16.8625 61.8308 16.9851C61.5292 17.1077 61.1679 17.169 60.747 17.169ZM61.0701 15.9759C61.4811 15.9759 61.8324 15.8946 62.1241 15.7322C62.4191 15.5698 62.6428 15.3577 62.7953 15.0959C62.9511 14.8307 63.0289 14.5473 63.0289 14.2457V13.2614C62.9759 13.3144 62.8732 13.3641 62.7207 13.4105C62.5716 13.4536 62.4009 13.4917 62.2086 13.5249C62.0164 13.5547 61.8291 13.5829 61.6468 13.6094C61.4645 13.6326 61.3121 13.6525 61.1895 13.669C60.9011 13.7055 60.6376 13.7668 60.399 13.853C60.1636 13.9392 59.9747 14.0634 59.8322 14.2259C59.693 14.3849 59.6234 14.5971 59.6234 14.8622C59.6234 15.2301 59.7593 15.5085 60.0311 15.6974C60.3029 15.883 60.6492 15.9759 61.0701 15.9759ZM69.712 17.1541C68.9729 17.1541 68.3365 16.9867 67.8029 16.652C67.2726 16.3139 66.8649 15.8482 66.5799 15.255C66.2949 14.6617 66.1523 13.9822 66.1523 13.2166C66.1523 12.4411 66.2982 11.7566 66.5898 11.1634C66.8815 10.5668 67.2925 10.1011 67.8228 9.76633C68.3531 9.43158 68.9779 9.2642 69.6971 9.2642C70.2771 9.2642 70.7942 9.37192 71.2482 9.58736C71.7023 9.79948 72.0685 10.0978 72.3469 10.4822C72.6287 10.8667 72.796 11.3158 72.8491 11.8295H71.4023C71.3228 11.4716 71.1405 11.1634 70.8555 10.9048C70.5737 10.6463 70.1959 10.517 69.7219 10.517C69.3076 10.517 68.9447 10.6264 68.6332 10.8452C68.3249 11.0606 68.0846 11.3688 67.9123 11.7699C67.7399 12.1676 67.6538 12.6383 67.6538 13.1818C67.6538 13.7386 67.7383 14.2192 67.9073 14.6236C68.0763 15.0279 68.315 15.3411 68.6232 15.5632C68.9348 15.7853 69.301 15.8963 69.7219 15.8963C70.0037 15.8963 70.2589 15.8449 70.4876 15.7422C70.7196 15.6361 70.9135 15.4853 71.0692 15.2898C71.2283 15.0942 71.3394 14.8589 71.4023 14.5838H72.8491C72.796 15.0777 72.6353 15.5185 72.3668 15.9062C72.0984 16.294 71.7388 16.599 71.288 16.821C70.8406 17.0431 70.3152 17.1541 69.712 17.1541ZM75.3784 19.8636C75.1563 19.8636 74.9541 19.8454 74.7718 19.8089C74.5895 19.7758 74.4537 19.7393 74.3642 19.6996L74.7221 18.4815C74.9939 18.5545 75.2359 18.5859 75.448 18.576C75.6601 18.5661 75.8474 18.4865 76.0098 18.3374C76.1755 18.1882 76.3213 17.9446 76.4473 17.6065L76.6312 17.0994L73.8372 9.36364H75.4281L77.362 15.2898H77.4416L79.3755 9.36364H80.9714L77.8244 18.0192C77.6786 18.4169 77.493 18.7533 77.2676 19.0284C77.0422 19.3068 76.7737 19.5156 76.4622 19.6548C76.1506 19.794 75.7894 19.8636 75.3784 19.8636ZM86.0735 19.8636V9.36364H87.5252V10.6016H87.6495C87.7357 10.4425 87.86 10.2585 88.0224 10.0497C88.1848 9.84091 88.4102 9.65862 88.6985 9.50284C88.9869 9.34375 89.368 9.2642 89.842 9.2642C90.4585 9.2642 91.0086 9.41998 91.4925 9.73153C91.9764 10.0431 92.3559 10.4922 92.631 11.0788C92.9094 11.6655 93.0487 12.3714 93.0487 13.1967C93.0487 14.022 92.9111 14.7296 92.636 15.3196C92.3609 15.9062 91.9831 16.3587 91.5025 16.6768C91.0219 16.9917 90.4734 17.1491 89.8569 17.1491C89.3929 17.1491 89.0134 17.0713 88.7184 16.9155C88.4267 16.7597 88.198 16.5774 88.0323 16.3686C87.8666 16.1598 87.739 15.9742 87.6495 15.8118H87.56V19.8636H86.0735ZM87.5302 13.1818C87.5302 13.7187 87.6081 14.1894 87.7638 14.5938C87.9196 14.9981 88.145 15.3146 88.44 15.5433C88.735 15.7687 89.0962 15.8814 89.5238 15.8814C89.9679 15.8814 90.3391 15.7637 90.6374 15.5284C90.9357 15.2898 91.1611 14.9666 91.3136 14.5589C91.4693 14.1513 91.5472 13.6922 91.5472 13.1818C91.5472 12.678 91.471 12.2256 91.3185 11.8246C91.1694 11.4235 90.944 11.107 90.6424 10.875C90.3441 10.643 89.9712 10.527 89.5238 10.527C89.0929 10.527 88.7283 10.638 88.43 10.8601C88.1351 11.0821 87.9113 11.392 87.7589 11.7898C87.6064 12.1875 87.5302 12.6515 87.5302 13.1818ZM97.9308 17.1541C97.2148 17.1541 96.5901 16.9901 96.0565 16.6619C95.5228 16.3338 95.1085 15.8748 94.8136 15.2848C94.5186 14.6948 94.3711 14.0054 94.3711 13.2166C94.3711 12.4245 94.5186 11.7318 94.8136 11.1385C95.1085 10.5452 95.5228 10.0845 96.0565 9.75639C96.5901 9.42827 97.2148 9.2642 97.9308 9.2642C98.6467 9.2642 99.2714 9.42827 99.805 9.75639C100.339 10.0845 100.753 10.5452 101.048 11.1385C101.343 11.7318 101.49 12.4245 101.49 13.2166C101.49 14.0054 101.343 14.6948 101.048 15.2848C100.753 15.8748 100.339 16.3338 99.805 16.6619C99.2714 16.9901 98.6467 17.1541 97.9308 17.1541ZM97.9357 15.9062C98.3997 15.9062 98.7842 15.7836 99.0891 15.5384C99.3941 15.2931 99.6194 14.9666 99.7653 14.5589C99.9144 14.1513 99.989 13.7022 99.989 13.2116C99.989 12.7244 99.9144 12.277 99.7653 11.8693C99.6194 11.4583 99.3941 11.1286 99.0891 10.88C98.7842 10.6314 98.3997 10.5071 97.9357 10.5071C97.4684 10.5071 97.0806 10.6314 96.7724 10.88C96.4674 11.1286 96.2404 11.4583 96.0913 11.8693C95.9454 12.277 95.8725 12.7244 95.8725 13.2116C95.8725 13.7022 95.9454 14.1513 96.0913 14.5589C96.2404 14.9666 96.4674 15.2931 96.7724 15.5384C97.0806 15.7836 97.4684 15.9062 97.9357 15.9062ZM104.636 6.81818V17H103.15V6.81818H104.636ZM106.636 17V9.36364H108.123V17H106.636ZM107.387 8.18537C107.128 8.18537 106.906 8.09919 106.721 7.92685C106.538 7.75118 106.447 7.54238 106.447 7.30043C106.447 7.05516 106.538 6.84635 106.721 6.67401C106.906 6.49834 107.128 6.41051 107.387 6.41051C107.645 6.41051 107.866 6.49834 108.048 6.67401C108.234 6.84635 108.326 7.05516 108.326 7.30043C108.326 7.54238 108.234 7.75118 108.048 7.92685C107.866 8.09919 107.645 8.18537 107.387 8.18537ZM113.339 17.1541C112.6 17.1541 111.963 16.9867 111.43 16.652C110.9 16.3139 110.492 15.8482 110.207 15.255C109.922 14.6617 109.779 13.9822 109.779 13.2166C109.779 12.4411 109.925 11.7566 110.217 11.1634C110.508 10.5668 110.919 10.1011 111.45 9.76633C111.98 9.43158 112.605 9.2642 113.324 9.2642C113.904 9.2642 114.421 9.37192 114.875 9.58736C115.329 9.79948 115.695 10.0978 115.974 10.4822C116.256 10.8667 116.423 11.3158 116.476 11.8295H115.029C114.95 11.4716 114.767 11.1634 114.482 10.9048C114.201 10.6463 113.823 10.517 113.349 10.517C112.935 10.517 112.572 10.6264 112.26 10.8452C111.952 11.0606 111.712 11.3688 111.539 11.7699C111.367 12.1676 111.281 12.6383 111.281 13.1818C111.281 13.7386 111.365 14.2192 111.534 14.6236C111.703 15.0279 111.942 15.3411 112.25 15.5632C112.562 15.7853 112.928 15.8963 113.349 15.8963C113.631 15.8963 113.886 15.8449 114.115 15.7422C114.347 15.6361 114.54 15.4853 114.696 15.2898C114.855 15.0942 114.966 14.8589 115.029 14.5838H116.476C116.423 15.0777 116.262 15.5185 115.994 15.9062C115.725 16.294 115.366 16.599 114.915 16.821C114.468 17.0431 113.942 17.1541 113.339 17.1541ZM119.005 19.8636C118.783 19.8636 118.581 19.8454 118.399 19.8089C118.217 19.7758 118.081 19.7393 117.991 19.6996L118.349 18.4815C118.621 18.5545 118.863 18.5859 119.075 18.576C119.287 18.5661 119.474 18.4865 119.637 18.3374C119.802 18.1882 119.948 17.9446 120.074 17.6065L120.258 17.0994L117.464 9.36364H119.055L120.989 15.2898H121.069L123.002 9.36364H124.598L121.451 18.0192C121.306 18.4169 121.12 18.7533 120.895 19.0284C120.669 19.3068 120.401 19.5156 120.089 19.6548C119.778 19.794 119.416 19.8636 119.005 19.8636Z" fill="black" fill-opacity="0.2"/>
<path d="M33.1186 17V6.81818H36.7479C37.54 6.81818 38.1963 6.96236 38.7166 7.25071C39.237 7.53906 39.6264 7.93347 39.8849 8.43395C40.1435 8.93111 40.2727 9.49124 40.2727 10.1143C40.2727 10.7408 40.1418 11.3042 39.88 11.8047C39.6214 12.3018 39.2304 12.6963 38.7067 12.9879C38.1863 13.2763 37.5317 13.4205 36.7429 13.4205H34.2472V12.1179H36.6037C37.1042 12.1179 37.5102 12.0317 37.8217 11.8594C38.1333 11.6837 38.362 11.4451 38.5078 11.1435C38.6536 10.8419 38.7266 10.4988 38.7266 10.1143C38.7266 9.72988 38.6536 9.38849 38.5078 9.0902C38.362 8.7919 38.1316 8.55824 37.8168 8.3892C37.5052 8.22017 37.0942 8.13565 36.5838 8.13565H34.6548V17H33.1186ZM41.9544 17V9.36364H43.3912V10.5767H43.4707C43.6099 10.1657 43.8552 9.84257 44.2065 9.60724C44.5611 9.36861 44.9622 9.24929 45.4096 9.24929C45.5024 9.24929 45.6118 9.2526 45.7377 9.25923C45.867 9.26586 45.9681 9.27415 46.041 9.28409V10.706C45.9814 10.6894 45.8753 10.6712 45.7228 10.6513C45.5704 10.6281 45.4179 10.6165 45.2654 10.6165C44.9141 10.6165 44.6009 10.6911 44.3258 10.8402C44.054 10.986 43.8386 11.1899 43.6795 11.4517C43.5204 11.7102 43.4409 12.0052 43.4409 12.3366V17H41.9544ZM47.3274 17V9.36364H48.8139V17H47.3274ZM48.0781 8.18537C47.8196 8.18537 47.5975 8.09919 47.4119 7.92685C47.2296 7.75118 47.1385 7.54238 47.1385 7.30043C47.1385 7.05516 47.2296 6.84635 47.4119 6.67401C47.5975 6.49834 47.8196 6.41051 48.0781 6.41051C48.3366 6.41051 48.5571 6.49834 48.7393 6.67401C48.925 6.84635 49.0178 7.05516 49.0178 7.30043C49.0178 7.54238 48.925 7.75118 48.7393 7.92685C48.5571 8.09919 48.3366 8.18537 48.0781 8.18537ZM57.3464 9.36364L54.5772 17H52.9863L50.2122 9.36364H51.8081L53.742 15.2401H53.8216L55.7505 9.36364H57.3464ZM60.747 17.169C60.2631 17.169 59.8256 17.0795 59.4345 16.9006C59.0434 16.7183 58.7335 16.4548 58.5048 16.1101C58.2794 15.7654 58.1667 15.3428 58.1667 14.8423C58.1667 14.4115 58.2496 14.0568 58.4153 13.7784C58.581 13.5 58.8047 13.2796 59.0865 13.1172C59.3682 12.9548 59.6831 12.8321 60.0311 12.7493C60.3791 12.6664 60.7337 12.6035 61.095 12.5604C61.5524 12.5073 61.9236 12.4643 62.2086 12.4311C62.4937 12.3946 62.7008 12.3366 62.8301 12.2571C62.9593 12.1776 63.024 12.0483 63.024 11.8693V11.8345C63.024 11.4003 62.9013 11.0639 62.6561 10.8253C62.4141 10.5866 62.0529 10.4673 61.5723 10.4673C61.0718 10.4673 60.6774 10.5784 60.389 10.8004C60.104 11.0192 59.9068 11.2628 59.7974 11.5312L58.4004 11.2131C58.5661 10.7491 58.8081 10.3745 59.1262 10.0895C59.4477 9.80114 59.8173 9.59233 60.2349 9.46307C60.6525 9.33049 61.0917 9.2642 61.5524 9.2642C61.8573 9.2642 62.1805 9.30066 62.5218 9.37358C62.8665 9.44318 63.188 9.57244 63.4863 9.76136C63.7879 9.95028 64.0349 10.2204 64.2271 10.5717C64.4193 10.9197 64.5154 11.3722 64.5154 11.929V17H63.0637V15.956H63.0041C62.908 16.1482 62.7638 16.3371 62.5716 16.5227C62.3793 16.7083 62.1324 16.8625 61.8308 16.9851C61.5292 17.1077 61.1679 17.169 60.747 17.169ZM61.0701 15.9759C61.4811 15.9759 61.8324 15.8946 62.1241 15.7322C62.4191 15.5698 62.6428 15.3577 62.7953 15.0959C62.9511 14.8307 63.0289 14.5473 63.0289 14.2457V13.2614C62.9759 13.3144 62.8732 13.3641 62.7207 13.4105C62.5716 13.4536 62.4009 13.4917 62.2086 13.5249C62.0164 13.5547 61.8291 13.5829 61.6468 13.6094C61.4645 13.6326 61.3121 13.6525 61.1895 13.669C60.9011 13.7055 60.6376 13.7668 60.399 13.853C60.1636 13.9392 59.9747 14.0634 59.8322 14.2259C59.693 14.3849 59.6234 14.5971 59.6234 14.8622C59.6234 15.2301 59.7593 15.5085 60.0311 15.6974C60.3029 15.883 60.6492 15.9759 61.0701 15.9759ZM69.712 17.1541C68.9729 17.1541 68.3365 16.9867 67.8029 16.652C67.2726 16.3139 66.8649 15.8482 66.5799 15.255C66.2949 14.6617 66.1523 13.9822 66.1523 13.2166C66.1523 12.4411 66.2982 11.7566 66.5898 11.1634C66.8815 10.5668 67.2925 10.1011 67.8228 9.76633C68.3531 9.43158 68.9779 9.2642 69.6971 9.2642C70.2771 9.2642 70.7942 9.37192 71.2482 9.58736C71.7023 9.79948 72.0685 10.0978 72.3469 10.4822C72.6287 10.8667 72.796 11.3158 72.8491 11.8295H71.4023C71.3228 11.4716 71.1405 11.1634 70.8555 10.9048C70.5737 10.6463 70.1959 10.517 69.7219 10.517C69.3076 10.517 68.9447 10.6264 68.6332 10.8452C68.3249 11.0606 68.0846 11.3688 67.9123 11.7699C67.7399 12.1676 67.6538 12.6383 67.6538 13.1818C67.6538 13.7386 67.7383 14.2192 67.9073 14.6236C68.0763 15.0279 68.315 15.3411 68.6232 15.5632C68.9348 15.7853 69.301 15.8963 69.7219 15.8963C70.0037 15.8963 70.2589 15.8449 70.4876 15.7422C70.7196 15.6361 70.9135 15.4853 71.0692 15.2898C71.2283 15.0942 71.3394 14.8589 71.4023 14.5838H72.8491C72.796 15.0777 72.6353 15.5185 72.3668 15.9062C72.0984 16.294 71.7388 16.599 71.288 16.821C70.8406 17.0431 70.3152 17.1541 69.712 17.1541ZM75.3784 19.8636C75.1563 19.8636 74.9541 19.8454 74.7718 19.8089C74.5895 19.7758 74.4537 19.7393 74.3642 19.6996L74.7221 18.4815C74.9939 18.5545 75.2359 18.5859 75.448 18.576C75.6601 18.5661 75.8474 18.4865 76.0098 18.3374C76.1755 18.1882 76.3213 17.9446 76.4473 17.6065L76.6312 17.0994L73.8372 9.36364H75.4281L77.362 15.2898H77.4416L79.3755 9.36364H80.9714L77.8244 18.0192C77.6786 18.4169 77.493 18.7533 77.2676 19.0284C77.0422 19.3068 76.7737 19.5156 76.4622 19.6548C76.1506 19.794 75.7894 19.8636 75.3784 19.8636ZM86.0735 19.8636V9.36364H87.5252V10.6016H87.6495C87.7357 10.4425 87.86 10.2585 88.0224 10.0497C88.1848 9.84091 88.4102 9.65862 88.6985 9.50284C88.9869 9.34375 89.368 9.2642 89.842 9.2642C90.4585 9.2642 91.0086 9.41998 91.4925 9.73153C91.9764 10.0431 92.3559 10.4922 92.631 11.0788C92.9094 11.6655 93.0487 12.3714 93.0487 13.1967C93.0487 14.022 92.9111 14.7296 92.636 15.3196C92.3609 15.9062 91.9831 16.3587 91.5025 16.6768C91.0219 16.9917 90.4734 17.1491 89.8569 17.1491C89.3929 17.1491 89.0134 17.0713 88.7184 16.9155C88.4267 16.7597 88.198 16.5774 88.0323 16.3686C87.8666 16.1598 87.739 15.9742 87.6495 15.8118H87.56V19.8636H86.0735ZM87.5302 13.1818C87.5302 13.7187 87.6081 14.1894 87.7638 14.5938C87.9196 14.9981 88.145 15.3146 88.44 15.5433C88.735 15.7687 89.0962 15.8814 89.5238 15.8814C89.9679 15.8814 90.3391 15.7637 90.6374 15.5284C90.9357 15.2898 91.1611 14.9666 91.3136 14.5589C91.4693 14.1513 91.5472 13.6922 91.5472 13.1818C91.5472 12.678 91.471 12.2256 91.3185 11.8246C91.1694 11.4235 90.944 11.107 90.6424 10.875C90.3441 10.643 89.9712 10.527 89.5238 10.527C89.0929 10.527 88.7283 10.638 88.43 10.8601C88.1351 11.0821 87.9113 11.392 87.7589 11.7898C87.6064 12.1875 87.5302 12.6515 87.5302 13.1818ZM97.9308 17.1541C97.2148 17.1541 96.5901 16.9901 96.0565 16.6619C95.5228 16.3338 95.1085 15.8748 94.8136 15.2848C94.5186 14.6948 94.3711 14.0054 94.3711 13.2166C94.3711 12.4245 94.5186 11.7318 94.8136 11.1385C95.1085 10.5452 95.5228 10.0845 96.0565 9.75639C96.5901 9.42827 97.2148 9.2642 97.9308 9.2642C98.6467 9.2642 99.2714 9.42827 99.805 9.75639C100.339 10.0845 100.753 10.5452 101.048 11.1385C101.343 11.7318 101.49 12.4245 101.49 13.2166C101.49 14.0054 101.343 14.6948 101.048 15.2848C100.753 15.8748 100.339 16.3338 99.805 16.6619C99.2714 16.9901 98.6467 17.1541 97.9308 17.1541ZM97.9357 15.9062C98.3997 15.9062 98.7842 15.7836 99.0891 15.5384C99.3941 15.2931 99.6194 14.9666 99.7653 14.5589C99.9144 14.1513 99.989 13.7022 99.989 13.2116C99.989 12.7244 99.9144 12.277 99.7653 11.8693C99.6194 11.4583 99.3941 11.1286 99.0891 10.88C98.7842 10.6314 98.3997 10.5071 97.9357 10.5071C97.4684 10.5071 97.0806 10.6314 96.7724 10.88C96.4674 11.1286 96.2404 11.4583 96.0913 11.8693C95.9454 12.277 95.8725 12.7244 95.8725 13.2116C95.8725 13.7022 95.9454 14.1513 96.0913 14.5589C96.2404 14.9666 96.4674 15.2931 96.7724 15.5384C97.0806 15.7836 97.4684 15.9062 97.9357 15.9062ZM104.636 6.81818V17H103.15V6.81818H104.636ZM106.636 17V9.36364H108.123V17H106.636ZM107.387 8.18537C107.128 8.18537 106.906 8.09919 106.721 7.92685C106.538 7.75118 106.447 7.54238 106.447 7.30043C106.447 7.05516 106.538 6.84635 106.721 6.67401C106.906 6.49834 107.128 6.41051 107.387 6.41051C107.645 6.41051 107.866 6.49834 108.048 6.67401C108.234 6.84635 108.326 7.05516 108.326 7.30043C108.326 7.54238 108.234 7.75118 108.048 7.92685C107.866 8.09919 107.645 8.18537 107.387 8.18537ZM113.339 17.1541C112.6 17.1541 111.963 16.9867 111.43 16.652C110.9 16.3139 110.492 15.8482 110.207 15.255C109.922 14.6617 109.779 13.9822 109.779 13.2166C109.779 12.4411 109.925 11.7566 110.217 11.1634C110.508 10.5668 110.919 10.1011 111.45 9.76633C111.98 9.43158 112.605 9.2642 113.324 9.2642C113.904 9.2642 114.421 9.37192 114.875 9.58736C115.329 9.79948 115.695 10.0978 115.974 10.4822C116.256 10.8667 116.423 11.3158 116.476 11.8295H115.029C114.95 11.4716 114.767 11.1634 114.482 10.9048C114.201 10.6463 113.823 10.517 113.349 10.517C112.935 10.517 112.572 10.6264 112.26 10.8452C111.952 11.0606 111.712 11.3688 111.539 11.7699C111.367 12.1676 111.281 12.6383 111.281 13.1818C111.281 13.7386 111.365 14.2192 111.534 14.6236C111.703 15.0279 111.942 15.3411 112.25 15.5632C112.562 15.7853 112.928 15.8963 113.349 15.8963C113.631 15.8963 113.886 15.8449 114.115 15.7422C114.347 15.6361 114.54 15.4853 114.696 15.2898C114.855 15.0942 114.966 14.8589 115.029 14.5838H116.476C116.423 15.0777 116.262 15.5185 115.994 15.9062C115.725 16.294 115.366 16.599 114.915 16.821C114.468 17.0431 113.942 17.1541 113.339 17.1541ZM119.005 19.8636C118.783 19.8636 118.581 19.8454 118.399 19.8089C118.217 19.7758 118.081 19.7393 117.991 19.6996L118.349 18.4815C118.621 18.5545 118.863 18.5859 119.075 18.576C119.287 18.5661 119.474 18.4865 119.637 18.3374C119.802 18.1882 119.948 17.9446 120.074 17.6065L120.258 17.0994L117.464 9.36364H119.055L120.989 15.2898H121.069L123.002 9.36364H124.598L121.451 18.0192C121.306 18.4169 121.12 18.7533 120.895 19.0284C120.669 19.3068 120.401 19.5156 120.089 19.6548C119.778 19.794 119.416 19.8636 119.005 19.8636Z" fill="black" fill-opacity="0.2"/>
</svg>
