<svg width="189" height="44" viewBox="0 0 189 44" fill="none" xmlns="http://www.w3.org/2000/svg">
<g filter="url(#filter0_d_245_313)">
<rect x="2" y="1" width="185" height="40" rx="10" fill="#2059EE"/>
<path d="M52.0188 23.0741L51.4262 29L59.1299 20.7037L54.9817 18.3333L55.5743 13L47.8706 21.2963L52.0188 23.0741Z" stroke="white" stroke-width="1.33" stroke-linecap="round" stroke-linejoin="round"/>
<path d="M74.071 16.2727H75.392V22.0128C75.392 22.6236 75.2486 23.1648 74.9616 23.6364C74.6747 24.1051 74.2713 24.4744 73.7514 24.7443C73.2315 25.0114 72.6222 25.1449 71.9233 25.1449C71.2273 25.1449 70.6193 25.0114 70.0994 24.7443C69.5795 24.4744 69.1761 24.1051 68.8892 23.6364C68.6023 23.1648 68.4588 22.6236 68.4588 22.0128V16.2727H69.7756V21.9062C69.7756 22.3011 69.8622 22.652 70.0355 22.9588C70.2116 23.2656 70.4602 23.5071 70.7812 23.6832C71.1023 23.8565 71.483 23.9432 71.9233 23.9432C72.3665 23.9432 72.7486 23.8565 73.0696 23.6832C73.3935 23.5071 73.6406 23.2656 73.8111 22.9588C73.9844 22.652 74.071 22.3011 74.071 21.9062V16.2727ZM77.2042 27.4545V18.4545H78.4485V19.5156H78.555C78.6289 19.3793 78.7354 19.2216 78.8746 19.0426C79.0138 18.8636 79.207 18.7074 79.4542 18.5739C79.7013 18.4375 80.0281 18.3693 80.4343 18.3693C80.9627 18.3693 81.4343 18.5028 81.8491 18.7699C82.2638 19.0369 82.5891 19.4219 82.8249 19.9247C83.0636 20.4276 83.1829 21.0327 83.1829 21.7401C83.1829 22.4474 83.065 23.054 82.8292 23.5597C82.5934 24.0625 82.2695 24.4503 81.8576 24.723C81.4457 24.9929 80.9755 25.1278 80.4471 25.1278C80.0494 25.1278 79.7241 25.0611 79.4712 24.9276C79.2212 24.794 79.0252 24.6378 78.8832 24.4588C78.7411 24.2798 78.6317 24.1207 78.555 23.9815H78.4783V27.4545H77.2042ZM78.4528 21.7273C78.4528 22.1875 78.5195 22.5909 78.6531 22.9375C78.7866 23.2841 78.9798 23.5554 79.2326 23.7514C79.4854 23.9446 79.7951 24.0412 80.1616 24.0412C80.5423 24.0412 80.8604 23.9403 81.1161 23.7386C81.3718 23.5341 81.565 23.2571 81.6957 22.9077C81.8292 22.5582 81.896 22.1648 81.896 21.7273C81.896 21.2955 81.8306 20.9077 81.6999 20.5639C81.5721 20.2202 81.3789 19.9489 81.1204 19.75C80.8647 19.5511 80.5451 19.4517 80.1616 19.4517C79.7923 19.4517 79.4798 19.5469 79.2241 19.7372C78.9712 19.9276 78.7795 20.1932 78.6488 20.5341C78.5181 20.875 78.4528 21.2727 78.4528 21.7273ZM87.3548 27.5909C86.8349 27.5909 86.3874 27.5227 86.0124 27.3864C85.6403 27.25 85.3363 27.0696 85.1005 26.8452C84.8647 26.6207 84.6886 26.375 84.5721 26.108L85.6673 25.6562C85.744 25.7812 85.8462 25.9134 85.9741 26.0526C86.1048 26.1946 86.2809 26.3153 86.5025 26.4148C86.7269 26.5142 87.0153 26.5639 87.3675 26.5639C87.8505 26.5639 88.2496 26.446 88.565 26.2102C88.8803 25.9773 89.038 25.6051 89.038 25.0938V23.8068H88.957C88.8803 23.946 88.7695 24.1009 88.6246 24.2713C88.4826 24.4418 88.2866 24.5895 88.0366 24.7145C87.7866 24.8395 87.4613 24.902 87.0607 24.902C86.5437 24.902 86.0778 24.7812 85.663 24.5398C85.2511 24.2955 84.9244 23.9361 84.6829 23.4616C84.4442 22.9844 84.3249 22.3977 84.3249 21.7017C84.3249 21.0057 84.4428 20.4091 84.6786 19.9119C84.9173 19.4148 85.244 19.0341 85.6587 18.7699C86.0735 18.5028 86.5437 18.3693 87.0692 18.3693C87.4755 18.3693 87.8036 18.4375 88.0536 18.5739C88.3036 18.7074 88.4982 18.8636 88.6374 19.0426C88.7795 19.2216 88.8888 19.3793 88.9656 19.5156H89.0593V18.4545H90.3079V25.1449C90.3079 25.7074 90.1772 26.169 89.9158 26.5298C89.6545 26.8906 89.3008 27.1577 88.8548 27.331C88.4116 27.5043 87.9116 27.5909 87.3548 27.5909ZM87.342 23.8452C87.7085 23.8452 88.0181 23.7599 88.271 23.5895C88.5266 23.4162 88.7198 23.169 88.8505 22.848C88.984 22.5241 89.0508 22.1364 89.0508 21.6847C89.0508 21.2443 88.9854 20.8565 88.8548 20.5213C88.7241 20.1861 88.5323 19.9247 88.2795 19.7372C88.0266 19.5469 87.7141 19.4517 87.342 19.4517C86.9585 19.4517 86.6388 19.5511 86.3832 19.75C86.1275 19.946 85.9343 20.2131 85.8036 20.5511C85.6758 20.8892 85.6119 21.267 85.6119 21.6847C85.6119 22.1136 85.6772 22.4901 85.8079 22.8139C85.9386 23.1378 86.1317 23.3906 86.3874 23.5724C86.646 23.7543 86.9641 23.8452 87.342 23.8452ZM92.0167 25V18.4545H93.2482V19.4943H93.3164C93.4357 19.142 93.646 18.8651 93.9471 18.6634C94.2511 18.4588 94.5948 18.3565 94.9783 18.3565C95.0579 18.3565 95.1516 18.3594 95.2596 18.3651C95.3704 18.3707 95.457 18.3778 95.5195 18.3864V19.6051C95.4684 19.5909 95.3775 19.5753 95.2468 19.5582C95.1161 19.5384 94.9854 19.5284 94.8548 19.5284C94.5536 19.5284 94.2852 19.5923 94.0494 19.7202C93.8164 19.8452 93.6317 20.0199 93.4954 20.2443C93.359 20.4659 93.2908 20.7187 93.2908 21.0028V25H92.0167ZM98.4684 25.1449C98.0536 25.1449 97.6786 25.0682 97.3434 24.9148C97.0082 24.7585 96.7425 24.5327 96.5465 24.2372C96.3533 23.9418 96.2567 23.5795 96.2567 23.1506C96.2567 22.7812 96.3278 22.4773 96.4698 22.2386C96.6119 22 96.8036 21.8111 97.0451 21.6719C97.2866 21.5327 97.5565 21.4276 97.8548 21.3565C98.1531 21.2855 98.457 21.2315 98.7667 21.1946C99.1587 21.1491 99.4769 21.1122 99.7212 21.0838C99.9656 21.0526 100.143 21.0028 100.254 20.9347C100.365 20.8665 100.42 20.7557 100.42 20.6023V20.5724C100.42 20.2003 100.315 19.9119 100.105 19.7074C99.8974 19.5028 99.5877 19.4006 99.1758 19.4006C98.7468 19.4006 98.4087 19.4957 98.1616 19.6861C97.9173 19.8736 97.7482 20.0824 97.6545 20.3125L96.457 20.0398C96.5991 19.642 96.8065 19.321 97.0792 19.0767C97.3548 18.8295 97.6715 18.6506 98.0295 18.5398C98.3874 18.4261 98.7638 18.3693 99.1587 18.3693C99.4201 18.3693 99.6971 18.4006 99.9897 18.4631C100.285 18.5227 100.561 18.6335 100.816 18.7955C101.075 18.9574 101.287 19.1889 101.451 19.4901C101.616 19.7884 101.699 20.1761 101.699 20.6534V25H100.454V24.1051H100.403C100.321 24.2699 100.197 24.4318 100.032 24.5909C99.8675 24.75 99.6559 24.8821 99.3974 24.9872C99.1388 25.0923 98.8292 25.1449 98.4684 25.1449ZM98.7454 24.1222C99.0977 24.1222 99.3988 24.0526 99.6488 23.9134C99.9016 23.7741 100.093 23.5923 100.224 23.3679C100.358 23.1406 100.424 22.8977 100.424 22.6392V21.7955C100.379 21.8409 100.291 21.8835 100.16 21.9233C100.032 21.9602 99.886 21.9929 99.7212 22.0213C99.5565 22.0469 99.396 22.071 99.2397 22.0938C99.0835 22.1136 98.9528 22.1307 98.8477 22.1449C98.6005 22.1761 98.3746 22.2287 98.1701 22.3026C97.9684 22.3764 97.8065 22.483 97.6843 22.6222C97.565 22.7585 97.5053 22.9403 97.5053 23.1676C97.5053 23.483 97.6218 23.7216 97.8548 23.8835C98.0877 24.0426 98.3846 24.1222 98.7454 24.1222ZM105.846 25.1278C105.317 25.1278 104.846 24.9929 104.431 24.723C104.019 24.4503 103.695 24.0625 103.46 23.5597C103.227 23.054 103.11 22.4474 103.11 21.7401C103.11 21.0327 103.228 20.4276 103.464 19.9247C103.702 19.4219 104.029 19.0369 104.444 18.7699C104.859 18.5028 105.329 18.3693 105.854 18.3693C106.261 18.3693 106.587 18.4375 106.835 18.5739C107.085 18.7074 107.278 18.8636 107.414 19.0426C107.553 19.2216 107.661 19.3793 107.738 19.5156H107.815V16.2727H109.089V25H107.844V23.9815H107.738C107.661 24.1207 107.55 24.2798 107.406 24.4588C107.263 24.6378 107.067 24.794 106.817 24.9276C106.567 25.0611 106.244 25.1278 105.846 25.1278ZM106.127 24.0412C106.494 24.0412 106.803 23.9446 107.056 23.7514C107.312 23.5554 107.505 23.2841 107.636 22.9375C107.769 22.5909 107.836 22.1875 107.836 21.7273C107.836 21.2727 107.771 20.875 107.64 20.5341C107.509 20.1932 107.317 19.9276 107.065 19.7372C106.812 19.5469 106.499 19.4517 106.127 19.4517C105.744 19.4517 105.424 19.5511 105.168 19.75C104.913 19.9489 104.719 20.2202 104.589 20.5639C104.461 20.9077 104.397 21.2955 104.397 21.7273C104.397 22.1648 104.462 22.5582 104.593 22.9077C104.724 23.2571 104.917 23.5341 105.173 23.7386C105.431 23.9403 105.749 24.0412 106.127 24.0412ZM113.728 25.1321C113.083 25.1321 112.528 24.9943 112.062 24.7188C111.599 24.4403 111.241 24.0497 110.988 23.5469C110.738 23.0412 110.613 22.4489 110.613 21.7699C110.613 21.0994 110.738 20.5085 110.988 19.9972C111.241 19.4858 111.593 19.0866 112.045 18.7997C112.5 18.5128 113.031 18.3693 113.639 18.3693C114.008 18.3693 114.366 18.4304 114.713 18.5526C115.059 18.6747 115.37 18.8665 115.646 19.1278C115.922 19.3892 116.139 19.7287 116.298 20.1463C116.457 20.5611 116.537 21.0653 116.537 21.6591V22.1108H111.333V21.1562H115.288C115.288 20.821 115.22 20.5241 115.083 20.2656C114.947 20.0043 114.755 19.7983 114.508 19.6477C114.264 19.4972 113.977 19.4219 113.647 19.4219C113.289 19.4219 112.977 19.5099 112.71 19.6861C112.446 19.8594 112.241 20.0866 112.096 20.3679C111.954 20.6463 111.883 20.9489 111.883 21.2756V22.0213C111.883 22.4588 111.96 22.831 112.113 23.1378C112.27 23.4446 112.487 23.679 112.765 23.8409C113.044 24 113.369 24.0795 113.741 24.0795C113.983 24.0795 114.203 24.0455 114.402 23.9773C114.6 23.9062 114.772 23.8011 114.917 23.6619C115.062 23.5227 115.173 23.3509 115.25 23.1463L116.456 23.3636C116.359 23.7187 116.186 24.0298 115.936 24.2969C115.689 24.5611 115.377 24.767 115.002 24.9148C114.63 25.0597 114.206 25.1321 113.728 25.1321ZM121.228 25V16.2727H124.339C125.018 16.2727 125.581 16.3963 126.027 16.6435C126.473 16.8906 126.806 17.2287 127.028 17.6577C127.25 18.0838 127.36 18.5639 127.36 19.098C127.36 19.6349 127.248 20.1179 127.024 20.5469C126.802 20.973 126.467 21.3111 126.018 21.5611C125.572 21.8082 125.011 21.9318 124.335 21.9318H122.196V20.8153H124.216C124.645 20.8153 124.993 20.7415 125.26 20.5938C125.527 20.4432 125.723 20.2386 125.848 19.9801C125.973 19.7216 126.035 19.4276 126.035 19.098C126.035 18.7685 125.973 18.4759 125.848 18.2202C125.723 17.9645 125.525 17.7642 125.255 17.6193C124.988 17.4744 124.636 17.402 124.199 17.402H122.545V25H121.228ZM130.076 16.2727V25H128.802V16.2727H130.076ZM133.695 25.1449C133.28 25.1449 132.905 25.0682 132.57 24.9148C132.235 24.7585 131.969 24.5327 131.773 24.2372C131.58 23.9418 131.483 23.5795 131.483 23.1506C131.483 22.7812 131.554 22.4773 131.696 22.2386C131.838 22 132.03 21.8111 132.272 21.6719C132.513 21.5327 132.783 21.4276 133.081 21.3565C133.38 21.2855 133.684 21.2315 133.993 21.1946C134.385 21.1491 134.703 21.1122 134.948 21.0838C135.192 21.0526 135.37 21.0028 135.48 20.9347C135.591 20.8665 135.647 20.7557 135.647 20.6023V20.5724C135.647 20.2003 135.542 19.9119 135.331 19.7074C135.124 19.5028 134.814 19.4006 134.402 19.4006C133.973 19.4006 133.635 19.4957 133.388 19.6861C133.144 19.8736 132.975 20.0824 132.881 20.3125L131.684 20.0398C131.826 19.642 132.033 19.321 132.306 19.0767C132.581 18.8295 132.898 18.6506 133.256 18.5398C133.614 18.4261 133.99 18.3693 134.385 18.3693C134.647 18.3693 134.924 18.4006 135.216 18.4631C135.512 18.5227 135.787 18.6335 136.043 18.7955C136.301 18.9574 136.513 19.1889 136.678 19.4901C136.843 19.7884 136.925 20.1761 136.925 20.6534V25H135.681V24.1051H135.63C135.547 24.2699 135.424 24.4318 135.259 24.5909C135.094 24.75 134.882 24.8821 134.624 24.9872C134.365 25.0923 134.056 25.1449 133.695 25.1449ZM133.972 24.1222C134.324 24.1222 134.625 24.0526 134.875 23.9134C135.128 23.7741 135.32 23.5923 135.451 23.3679C135.584 23.1406 135.651 22.8977 135.651 22.6392V21.7955C135.605 21.8409 135.517 21.8835 135.387 21.9233C135.259 21.9602 135.113 21.9929 134.948 22.0213C134.783 22.0469 134.623 22.071 134.466 22.0938C134.31 22.1136 134.179 22.1307 134.074 22.1449C133.827 22.1761 133.601 22.2287 133.397 22.3026C133.195 22.3764 133.033 22.483 132.911 22.6222C132.792 22.7585 132.732 22.9403 132.732 23.1676C132.732 23.483 132.848 23.7216 133.081 23.8835C133.314 24.0426 133.611 24.1222 133.972 24.1222ZM139.896 21.1136V25H138.622V18.4545H139.845V19.5199H139.926C140.077 19.1733 140.313 18.8949 140.634 18.6847C140.957 18.4744 141.365 18.3693 141.857 18.3693C142.303 18.3693 142.693 18.4631 143.028 18.6506C143.364 18.8352 143.624 19.1108 143.808 19.4773C143.993 19.8437 144.085 20.2969 144.085 20.8366V25H142.811V20.9901C142.811 20.5156 142.688 20.1449 142.44 19.8778C142.193 19.608 141.854 19.473 141.422 19.473C141.126 19.473 140.864 19.5369 140.634 19.6648C140.406 19.7926 140.226 19.9801 140.092 20.2273C139.962 20.4716 139.896 20.767 139.896 21.1136Z" fill="white"/>
</g>
<defs>
<filter id="filter0_d_245_313" x="0" y="0" width="189" height="44" filterUnits="userSpaceOnUse" color-interpolation-filters="sRGB">
<feFlood flood-opacity="0" result="BackgroundImageFix"/>
<feColorMatrix in="SourceAlpha" type="matrix" values="0 0 0 0 0 0 0 0 0 0 0 0 0 0 0 0 0 0 127 0" result="hardAlpha"/>
<feOffset dy="1"/>
<feGaussianBlur stdDeviation="1"/>
<feColorMatrix type="matrix" values="0 0 0 0 0 0 0 0 0 0 0 0 0 0 0 0 0 0 0.05 0"/>
<feBlend mode="normal" in2="BackgroundImageFix" result="effect1_dropShadow_245_313"/>
<feBlend mode="normal" in="SourceGraphic" in2="effect1_dropShadow_245_313" result="shape"/>
</filter>
</defs>
</svg>
